<?xml version="1.0" encoding="utf-8"?>
<!-- Generator: Adobe Illustrator 22.1.0, SVG Export Plug-In . SVG Version: 6.00 Build 0)  -->
<svg version="1.1" id="Layer_1" xmlns="http://www.w3.org/2000/svg" xmlns:xlink="http://www.w3.org/1999/xlink" x="0px" y="0px"
	 viewBox="0 0 143.9 273" style="enable-background:new 0 0 143.9 273;" xml:space="preserve">
<style type="text/css">
	.st0{fill:url(#SVGID_1_);}
	.st1{fill:url(#SVGID_2_);}
	.st2{fill:#FFFFFF;}
	.st3{fill:url(#SVGID_3_);}
	.st4{fill:url(#SVGID_4_);}
	.st5{opacity:0.3;fill:#767676;}
	.st6{opacity:0.7;fill:#767676;}
	.st7{opacity:0.4;fill:#767676;}
	.st8{fill:url(#SVGID_5_);}
	.st9{fill:url(#SVGID_6_);}
	.st10{fill:#FF9D09;}
	.st11{opacity:0.3;}
	.st12{fill:#767676;}
	.st13{opacity:0.2;fill:#767676;}
	.st14{filter:url(#Adobe_OpacityMaskFilter);}
	.st15{filter:url(#Adobe_OpacityMaskFilter_1_);}
	.st16{mask:url(#SVGID_7_);fill:url(#SVGID_8_);}
	.st17{opacity:0.3;fill:url(#SVGID_9_);}
	.st18{filter:url(#Adobe_OpacityMaskFilter_2_);}
	.st19{filter:url(#Adobe_OpacityMaskFilter_3_);}
	.st20{mask:url(#SVGID_10_);fill:url(#SVGID_11_);}
	.st21{opacity:0.3;fill:url(#SVGID_12_);}
	.st22{opacity:0.6;fill:#767676;}
	.st23{fill:#E78B00;}
	.st24{fill:url(#SVGID_13_);}
	.st25{fill:url(#SVGID_14_);}
	.st26{fill:url(#SVGID_15_);}
	.st27{opacity:0.2;fill:#A6A6A6;}
	.st28{filter:url(#Adobe_OpacityMaskFilter_4_);}
	.st29{filter:url(#Adobe_OpacityMaskFilter_5_);}
	.st30{mask:url(#SVGID_16_);fill:url(#SVGID_17_);}
	.st31{opacity:0.8;fill:url(#SVGID_18_);}
	.st32{filter:url(#Adobe_OpacityMaskFilter_6_);}
	.st33{filter:url(#Adobe_OpacityMaskFilter_7_);}
	.st34{mask:url(#SVGID_19_);fill:url(#SVGID_20_);}
	.st35{opacity:0.8;fill:url(#SVGID_21_);}
	.st36{display:none;}
	.st37{display:inline;}
	.st38{fill:url(#SVGID_22_);}
	.st39{fill:url(#SVGID_23_);}
	.st40{fill:url(#SVGID_24_);}
	.st41{display:inline;fill:url(#SVGID_25_);}
	.st42{display:inline;opacity:0.3;fill:#767676;}
	.st43{display:inline;opacity:0.7;fill:#767676;}
	.st44{display:inline;opacity:0.4;fill:#767676;}
	.st45{display:inline;fill:url(#SVGID_26_);}
	.st46{fill:url(#SVGID_27_);}
	.st47{fill:#848484;}
	.st48{fill:#444A52;}
	.st49{fill:#71767C;}
	.st50{display:inline;filter:url(#Adobe_OpacityMaskFilter_8_);}
	.st51{filter:url(#Adobe_OpacityMaskFilter_9_);}
	.st52{mask:url(#SVGID_28_);fill:url(#SVGID_29_);}
	.st53{display:inline;opacity:0.3;fill:url(#SVGID_30_);}
	.st54{display:inline;filter:url(#Adobe_OpacityMaskFilter_10_);}
	.st55{filter:url(#Adobe_OpacityMaskFilter_11_);}
	.st56{mask:url(#SVGID_31_);fill:url(#SVGID_32_);}
	.st57{display:inline;opacity:0.3;fill:url(#SVGID_33_);}
	.st58{display:inline;opacity:0.6;fill:#767676;}
	.st59{fill:#7F8389;}
	.st60{fill:url(#SVGID_34_);}
	.st61{fill:url(#SVGID_35_);}
	.st62{fill:url(#SVGID_36_);}
	.st63{display:inline;opacity:0.2;fill:#A6A6A6;}
	.st64{display:inline;opacity:0.2;fill:#767676;}
	.st65{display:inline;filter:url(#Adobe_OpacityMaskFilter_12_);}
	.st66{filter:url(#Adobe_OpacityMaskFilter_13_);}
	.st67{mask:url(#SVGID_37_);fill:url(#SVGID_38_);}
	.st68{display:inline;opacity:0.8;fill:url(#SVGID_39_);}
	.st69{display:inline;filter:url(#Adobe_OpacityMaskFilter_14_);}
	.st70{filter:url(#Adobe_OpacityMaskFilter_15_);}
	.st71{mask:url(#SVGID_40_);fill:url(#SVGID_41_);}
	.st72{display:inline;opacity:0.8;fill:url(#SVGID_42_);}
	.st73{fill:url(#SVGID_43_);}
	.st74{fill:url(#SVGID_44_);}
	.st75{fill:#E6E6E6;}
	.st76{fill:url(#SVGID_45_);}
	.st77{display:inline;fill:#A3472B;}
	.st78{display:inline;opacity:0.3;fill:#6A6A6A;}
	.st79{display:inline;opacity:0.7;fill:#6A6A6A;}
	.st80{display:inline;opacity:0.4;fill:#6A6A6A;}
	.st81{display:inline;fill:#E36B3C;}
	.st82{fill:#BA5131;}
	.st83{fill:#691C0A;}
	.st84{opacity:0.2;fill:#D93C14;}
	.st85{fill:#96280F;}
	.st86{display:inline;filter:url(#Adobe_OpacityMaskFilter_16_);}
	.st87{filter:url(#Adobe_OpacityMaskFilter_17_);}
	.st88{mask:url(#SVGID_46_);fill:url(#SVGID_47_);}
	.st89{display:inline;opacity:0.3;fill:url(#SVGID_48_);}
	.st90{display:inline;filter:url(#Adobe_OpacityMaskFilter_18_);}
	.st91{filter:url(#Adobe_OpacityMaskFilter_19_);}
	.st92{mask:url(#SVGID_49_);fill:url(#SVGID_50_);}
	.st93{display:inline;opacity:0.3;fill:url(#SVGID_51_);}
	.st94{display:inline;opacity:0.6;fill:#6A6A6A;}
	.st95{fill:url(#SVGID_52_);}
	.st96{fill:url(#SVGID_53_);}
	.st97{fill:url(#SVGID_54_);}
	.st98{display:inline;opacity:0.2;fill:#959595;}
	.st99{display:inline;opacity:0.2;fill:#6A6A6A;}
	.st100{display:inline;filter:url(#Adobe_OpacityMaskFilter_20_);}
	.st101{filter:url(#Adobe_OpacityMaskFilter_21_);}
	.st102{mask:url(#SVGID_55_);fill:url(#SVGID_56_);}
	.st103{display:inline;opacity:0.8;fill:url(#SVGID_57_);}
	.st104{display:inline;filter:url(#Adobe_OpacityMaskFilter_22_);}
	.st105{filter:url(#Adobe_OpacityMaskFilter_23_);}
	.st106{mask:url(#SVGID_58_);fill:url(#SVGID_59_);}
	.st107{display:inline;opacity:0.8;fill:url(#SVGID_60_);}
</style>
<g>
	<g>
		
			<linearGradient id="SVGID_1_" gradientUnits="userSpaceOnUse" x1="282.1194" y1="59.5664" x2="126.7889" y2="-197.0663" gradientTransform="matrix(-1 0 0 1 352.3229 0)">
			<stop  offset="0" style="stop-color:#A51500"/>
			<stop  offset="1" style="stop-color:#DD1D00"/>
		</linearGradient>
		<polygon class="st0" points="45.1,7.7 75.4,137 79.8,137 53,7.7 		"/>
		<linearGradient id="SVGID_2_" gradientUnits="userSpaceOnUse" x1="87.6914" y1="127.0314" x2="-28.463" y2="-82.284">
			<stop  offset="0" style="stop-color:#8E8E8E"/>
			<stop  offset="0.5343" style="stop-color:#FFFFFF"/>
			<stop  offset="1" style="stop-color:#C8C8C8"/>
		</linearGradient>
		<polygon class="st1" points="36,7.7 69.6,137 75.4,137 45.1,7.7 		"/>
		<polygon class="st2" points="27.6,7.7 65.6,137 69.6,137 36,7.7 		"/>
		
			<linearGradient id="SVGID_3_" gradientUnits="userSpaceOnUse" x1="284.7094" y1="40.9446" x2="127.7087" y2="-218.4475" gradientTransform="matrix(-1 0 0 1 352.3229 0)">
			<stop  offset="0" style="stop-color:#A51500"/>
			<stop  offset="1" style="stop-color:#DD1D00"/>
		</linearGradient>
		<polygon class="st3" points="27.6,7.7 65.6,137 69.6,137 36,7.7 		"/>
	</g>
	<linearGradient id="SVGID_4_" gradientUnits="userSpaceOnUse" x1="7.5947" y1="195.4938" x2="130.5507" y2="195.4938">
		<stop  offset="0" style="stop-color:#FFD945"/>
		<stop  offset="1" style="stop-color:#FF9D09"/>
	</linearGradient>
	<path class="st4" d="M126.1,179.8L126.1,179.8c-2.3-5.7-5.3-10.9-9-15.7c0,0,0-0.1,0-0.1c-0.3-0.3-0.5-0.6-0.7-0.9
		c0,0-0.1-0.1-0.1-0.1c-7.9-9.7-18.5-16.9-30.8-20.5c-0.4-0.2-0.9-0.3-1.4-0.4c-0.8-0.2-1.5-0.4-2.3-0.6l0.7,0l0.3,0l0.3,0l0.9,0
		l1.2,0c0-0.1,0.1-0.5,0.2-1.3c0.1-1.1-0.8-4.8-2.3-7.6v0c0,0,0,0,0,0c-0.3-0.5-0.5-0.9-0.8-1.3c0,0,0-0.1,0-0.1
		c-2.4-3.6-6.3-4.5-9.5-4.5c-3.6,0-8.3,1.2-10.7,3.7c-4.8,4.9-5.2,8.2-5.3,10.5v0.1c-8.9,1.7-16.9,5.2-23.8,10.2
		c-1.3,0.9-2.6,1.9-3.8,3c-0.6,0.5-1.1,1-1.7,1.5c-0.8,0.7-1.5,1.4-2.2,2.2c-0.2,0.2-0.4,0.4-0.7,0.7h0c-0.5,0.5-1,1-1.4,1.6
		c-1.2,1.4-2.4,2.9-3.5,4.4c-1.7,2.3-3.2,4.7-4.6,7.3c-0.5,1-1,2-1.5,3c-0.3,0.6-0.5,1.2-0.8,1.7c-3.4,8-5.3,16.8-5.3,26.2
		c0,28.6,19.5,51.4,45.5,58.7c5.7,1.6,11.7,2.5,17.9,2.5c13.1,0,24.9-3.8,34.4-10.4c0.4-0.3,0.9-0.6,1.3-0.9
		c3.4-2.5,6.4-5.3,9.2-8.5c0.4-0.4,0.7-0.9,1.1-1.3c1-1.2,1.9-2.4,2.7-3.6c0.4-0.6,0.8-1.2,1.2-1.8c0.4-0.6,0.8-1.2,1.1-1.9
		c0-0.1,0.1-0.1,0.1-0.2c0.4-0.7,0.8-1.5,1.2-2.3c0.3-0.7,0.7-1.3,1-2c3.9-8.3,6.1-17.8,6.1-28C130.6,194.9,129,187,126.1,179.8z
		 M62.6,135.8c0.3-1.2,0.6-0.6,1.1-0.2c0.3,0.2,0.7,0.4,1.2-0.3c0.3-0.4,0.6-0.8,0.9-1.1c1.4-1.4,3.1-2.1,5.2-2.1
		c1.2,0,2.3,0.2,3.2,0.7c0.4,0.2,0.7,0.4,1.1,0.6c0.1,0.1,0.2,0.2,0.3,0.3c0.2,0.1,4.4,3.7,4.3,6.2c-0.2,0-0.4-0.1-0.6-0.1
		c-3.6-0.6-7.6-0.6-11.3-0.2c-1.3,0.1-2.4,0.3-3.6,0.5c-0.5,0.1-1.1,0.1-1.6,0.2c-0.2,0-0.5,0.1-0.7,0.1
		C62.1,139.1,62.2,137.5,62.6,135.8z"/>
	<path class="st5" d="M82.8,141.5c0,0-3.1-1.8-2.9-1.7c0.1-2.5-4.1-6.1-4.3-6.3c-0.4-0.4-0.9-0.6-1.4-0.9c0.9-0.4,2.3,0,3.1,0.2
		l0.7,0.7C79.6,136.1,84.2,137.7,82.8,141.5z"/>
	<path class="st6" d="M85.9,146.1c0.1,0-6.4,0-6.4,0l-15.3,0.8l-1.4-6.6c1.7-0.2,3.4-0.5,5.2-0.7c3.9-0.4,8.2-0.4,11.9,0.3
		c0,0,4.5,2.9,4.6,3.1C85.4,145,85.8,146,85.9,146.1z"/>
	<path class="st7" d="M83.1,132.7L83.1,132.7c0,0.2-5.7-1.6-5.7-1.6l-10,1.4l-1.5,0.2l-1,2.6l-1.2,0.3l-1.1,0.3l-2.8,7.1l-0.8-0.5
		l-2.2-1.4c0-2.3,0.4-5.6,5.2-10.5c1-1,2.4-1.9,4-2.5c2.2-0.8,4.6-1.2,6.7-1.2c2.6,0,5.7,0.6,8.1,2.8c0.5,0.5,1,1,1.4,1.6
		C82.5,131.7,82.8,132.2,83.1,132.7C83,132.7,83,132.7,83.1,132.7z"/>
	<linearGradient id="SVGID_5_" gradientUnits="userSpaceOnUse" x1="11.7285" y1="196.619" x2="136.3242" y2="196.619">
		<stop  offset="0" style="stop-color:#FF9D09"/>
		<stop  offset="1" style="stop-color:#FFDA45"/>
	</linearGradient>
	<path class="st8" d="M87.4,142.1c0-1.9-0.3-4.5-2.7-7.9c-0.7-0.9-1.5-1.9-2.5-2.9c-2.4-2.4-5.4-3.3-9-3.3c-2,0-3.9,0.4-5.5,1.2l0,0
		c-1.3,0.6-2.4,1.4-3.4,2.5c-5,5.1-5.2,9.1-5.2,10.8v0.1c-8.6,2.1-16.4,6-23.2,11.3c-1.9,1.4-3.7,3-5.3,4.7c-1.5,1.5-2.9,3-4.2,4.6
		c-3,3.6-5.7,7.6-7.8,11.9c-4.3,8.4-6.7,18-6.7,28.1c0,27.1,17.3,50.1,41.4,58.7c6.5,2.3,13.6,3.6,20.9,3.6
		c12.3,0,23.8-3.6,33.4-9.7c4-2.6,7.7-5.6,11-9c1.5-1.5,2.9-3.1,4.2-4.7c1.5-1.8,2.9-3.7,4.1-5.7c6.1-9.6,9.6-21,9.6-33.2
		C136.3,173.2,115.4,148.2,87.4,142.1z M74,140.7c-3.3,0-6.6,0.3-9.8,0.8c0-0.6,0.1-1,0.2-1.5c0.3-1.4,1-2.1,2.6-3.7
		c0.3-0.3,0.7-0.7,1-1.1c1.4-1.4,3.1-2.1,5.2-2.1c0.7,0,1.4,0,2.1,0.1c1.2,0.2,2.3,0.6,3.2,1.6c0.7,0.7,1.3,1.4,1.7,1.9
		c1.3,1.7,1.7,2.9,1.9,4.4C79.5,140.9,76.8,140.7,74,140.7z"/>
	<path class="st5" d="M84.7,134.2l-4.5,2.6c-0.4-0.6-1-1.2-1.7-1.9c-0.9-0.9-2-1.4-3.2-1.6c-0.6-0.1-1.3-0.1-2.1-0.1
		c-2.1,0-3.9,0.7-5.2,2.1c-0.4,0.4-0.7,0.7-1,1.1l0.4-3.9l0.3-3.3l0,0c0-0.1-0.9-0.6-1.6-1.1c2.2-0.8,4.6-1.2,6.7-1.2
		c2.6,0,5.7,0.6,8.1,2.8c0.4,0.6,0.9,1.1,1.4,1.6C83.2,132.3,84,133.3,84.7,134.2z"/>
	<g>
		<radialGradient id="SVGID_6_" cx="74.0273" cy="202.9716" r="58.131" gradientUnits="userSpaceOnUse">
			<stop  offset="0" style="stop-color:#FFDF10"/>
			<stop  offset="1" style="stop-color:#FFC441"/>
		</radialGradient>
		<path class="st9" d="M74,261.1C42,261.1,15.9,235,15.9,203c0-32.1,26.1-58.1,58.1-58.1c32.1,0,58.1,26.1,58.1,58.1
			C132.2,235,106.1,261.1,74,261.1z"/>
	</g>
	<g>
		<g>
			<path class="st10" d="M61,240.2v-9.1h4.2v-55.6h-5.1v-9.9h26.2v65.4h4.2v9.1H61z"/>
		</g>
		<g class="st11">
			<path class="st12" d="M86.4,231.1v-65.4H60.2v3.5h23.1v65.5h4.3v5.6h3v-9.1H86.4z"/>
		</g>
		<polygon class="st13" points="83.3,169.1 86.4,165.8 86.4,230.8 83.3,234.6 		"/>
		<polygon class="st13" points="90.6,231.1 90.6,240.2 87.6,240.2 87.6,235 		"/>
	</g>
	<defs>
		<filter id="Adobe_OpacityMaskFilter" filterUnits="userSpaceOnUse" x="15.9" y="144.8" width="116.3" height="116.3">
			<feFlood  style="flood-color:white;flood-opacity:1" result="back"/>
			<feBlend  in="SourceGraphic" in2="back" mode="normal"/>
		</filter>
	</defs>
	<mask maskUnits="userSpaceOnUse" x="15.9" y="144.8" width="116.3" height="116.3" id="SVGID_7_">
		<g class="st14">
			<defs>
				<filter id="Adobe_OpacityMaskFilter_1_" filterUnits="userSpaceOnUse" x="15.9" y="144.8" width="116.3" height="116.3">
					<feFlood  style="flood-color:white;flood-opacity:1" result="back"/>
					<feBlend  in="SourceGraphic" in2="back" mode="normal"/>
				</filter>
			</defs>
			<mask maskUnits="userSpaceOnUse" x="15.9" y="144.8" width="116.3" height="116.3" id="SVGID_7_">
				<g class="st15">
				</g>
			</mask>
			<linearGradient id="SVGID_8_" gradientUnits="userSpaceOnUse" x1="29.0097" y1="239.5259" x2="118.5578" y2="166.8118">
				<stop  offset="0" style="stop-color:#000000"/>
				<stop  offset="0.1621" style="stop-color:#020202"/>
				<stop  offset="0.2313" style="stop-color:#090909"/>
				<stop  offset="0.2828" style="stop-color:#161616"/>
				<stop  offset="0.3255" style="stop-color:#272727"/>
				<stop  offset="0.3628" style="stop-color:#3F3F3F"/>
				<stop  offset="0.3963" style="stop-color:#5B5B5B"/>
				<stop  offset="0.427" style="stop-color:#7D7D7D"/>
				<stop  offset="0.4554" style="stop-color:#A5A5A5"/>
				<stop  offset="0.4811" style="stop-color:#D0D0D0"/>
				<stop  offset="0.5049" style="stop-color:#FFFFFF"/>
				<stop  offset="0.5347" style="stop-color:#DCDCDC"/>
				<stop  offset="0.5835" style="stop-color:#A9A9A9"/>
				<stop  offset="0.6346" style="stop-color:#7C7C7C"/>
				<stop  offset="0.687" style="stop-color:#565656"/>
				<stop  offset="0.741" style="stop-color:#363636"/>
				<stop  offset="0.7972" style="stop-color:#1E1E1E"/>
				<stop  offset="0.8565" style="stop-color:#0D0D0D"/>
				<stop  offset="0.9209" style="stop-color:#030303"/>
				<stop  offset="1" style="stop-color:#000000"/>
			</linearGradient>
			<path class="st16" d="M74,261.1C42,261.1,15.9,235,15.9,203c0-32.1,26.1-58.1,58.1-58.1c32.1,0,58.1,26.1,58.1,58.1
				C132.2,235,106.1,261.1,74,261.1z"/>
		</g>
	</mask>
	<linearGradient id="SVGID_9_" gradientUnits="userSpaceOnUse" x1="29.0097" y1="239.5259" x2="118.5578" y2="166.8118">
		<stop  offset="0" style="stop-color:#FFFFFF"/>
		<stop  offset="0.431" style="stop-color:#FFFFFF"/>
		<stop  offset="0.5049" style="stop-color:#FFFFFF"/>
		<stop  offset="0.5347" style="stop-color:#F2DCDC"/>
		<stop  offset="0.5835" style="stop-color:#E0A9A9"/>
		<stop  offset="0.6346" style="stop-color:#D07C7C"/>
		<stop  offset="0.687" style="stop-color:#C25656"/>
		<stop  offset="0.741" style="stop-color:#B73636"/>
		<stop  offset="0.7972" style="stop-color:#AE1E1E"/>
		<stop  offset="0.8565" style="stop-color:#A80D0D"/>
		<stop  offset="0.9209" style="stop-color:#A40303"/>
		<stop  offset="1" style="stop-color:#A30000"/>
	</linearGradient>
	<path class="st17" d="M74,261.1C42,261.1,15.9,235,15.9,203c0-32.1,26.1-58.1,58.1-58.1c32.1,0,58.1,26.1,58.1,58.1
		C132.2,235,106.1,261.1,74,261.1z"/>
	<defs>
		<filter id="Adobe_OpacityMaskFilter_2_" filterUnits="userSpaceOnUse" x="15.9" y="144.8" width="116.3" height="116.3">
			<feFlood  style="flood-color:white;flood-opacity:1" result="back"/>
			<feBlend  in="SourceGraphic" in2="back" mode="normal"/>
		</filter>
	</defs>
	<mask maskUnits="userSpaceOnUse" x="15.9" y="144.8" width="116.3" height="116.3" id="SVGID_10_">
		<g class="st18">
			<defs>
				<filter id="Adobe_OpacityMaskFilter_3_" filterUnits="userSpaceOnUse" x="15.9" y="144.8" width="116.3" height="116.3">
					<feFlood  style="flood-color:white;flood-opacity:1" result="back"/>
					<feBlend  in="SourceGraphic" in2="back" mode="normal"/>
				</filter>
			</defs>
			<mask maskUnits="userSpaceOnUse" x="15.9" y="144.8" width="116.3" height="116.3" id="SVGID_10_">
				<g class="st19">
				</g>
			</mask>
			<linearGradient id="SVGID_11_" gradientUnits="userSpaceOnUse" x1="79.6559" y1="145.1143" x2="68.3768" y2="261.0334">
				<stop  offset="0" style="stop-color:#000000"/>
				<stop  offset="0.5049" style="stop-color:#FFFFFF"/>
				<stop  offset="0.5347" style="stop-color:#DCDCDC"/>
				<stop  offset="0.5835" style="stop-color:#A9A9A9"/>
				<stop  offset="0.6346" style="stop-color:#7C7C7C"/>
				<stop  offset="0.687" style="stop-color:#565656"/>
				<stop  offset="0.741" style="stop-color:#363636"/>
				<stop  offset="0.7972" style="stop-color:#1E1E1E"/>
				<stop  offset="0.8565" style="stop-color:#0D0D0D"/>
				<stop  offset="0.9209" style="stop-color:#030303"/>
				<stop  offset="1" style="stop-color:#000000"/>
			</linearGradient>
			<path class="st20" d="M132.2,203c0,32-26.1,58.1-58.1,58.1c-23.9,0-44.4-14.5-53.4-35.1c-3.1-7.1-4.8-14.9-4.8-23
				c0-32.1,26.1-58.1,58.1-58.1c9.4,0,18.3,2.2,26.1,6.2C119.1,160.6,132.2,180.3,132.2,203z"/>
		</g>
	</mask>
	<linearGradient id="SVGID_12_" gradientUnits="userSpaceOnUse" x1="79.6559" y1="145.1143" x2="68.3768" y2="261.0334">
		<stop  offset="0" style="stop-color:#FFFFFF"/>
		<stop  offset="0.5049" style="stop-color:#FFFFFF"/>
		<stop  offset="0.5474" style="stop-color:#FFFFFF"/>
		<stop  offset="1" style="stop-color:#FFFFFF"/>
	</linearGradient>
	<path class="st21" d="M132.2,203c0,32-26.1,58.1-58.1,58.1c-23.9,0-44.4-14.5-53.4-35.1c-3.1-7.1-4.8-14.9-4.8-23
		c0-32.1,26.1-58.1,58.1-58.1c9.4,0,18.3,2.2,26.1,6.2C119.1,160.6,132.2,180.3,132.2,203z"/>
	<path class="st22" d="M132.2,203c0,31.2-24.8,56.8-55.7,58.1c29.7-2.6,51.8-27.5,51.8-57.9c0-32.1-24.8-58.1-56.9-58.1
		c-0.9,0-1.8,0-2.6,0.1c1.7-0.2,3.5-0.2,5.2-0.2C106.1,144.8,132.2,170.9,132.2,203z"/>
	<g>
		<path class="st23" d="M121.3,228.2c0,0-1.7,4.1-3.9,5.2c-1.1,0.5-2.1,0.7-3,0.6c0,0,0,0,0,0c-1-0.1-1.7-0.6-2-1.4
			c-0.6-1.5,0.8-3.7,3-4.8c0.5-0.2,1.1-0.4,1.7-0.4C119.1,227.3,121.3,228.2,121.3,228.2z"/>
		<path class="st23" d="M109.3,231.6c-0.4,0.3-0.9,0.4-1.5,0.3c-1.1-0.2-2.3-1.2-3.2-2.8c-1.2-2-1.1-5.5-1-6.5c0-0.2,0-0.3,0-0.3
			s3.8,1,5.2,3.3C110.3,228,110.5,230.6,109.3,231.6z"/>
		<path class="st23" d="M115.2,239c0,0-2.2,3.7-4.6,4.4c-0.7,0.2-1.4,0.3-2.1,0.2c-1.5-0.1-2.6-0.8-2.8-2c-0.3-1.6,1.3-3.5,3.7-4.1
			c0.2-0.1,0.4-0.1,0.6-0.1C112.3,237.1,115.2,239,115.2,239z"/>
		<path class="st23" d="M101.9,240.4c-0.3,0.1-0.5,0.1-0.8,0c-1.2-0.4-2.3-2.1-2.7-4.3c-0.4-2.1,0.6-5,1.1-6.2
			c0.1-0.4,0.3-0.6,0.3-0.6s3.2,2.6,3.7,5.4C103.9,237.4,103.3,240,101.9,240.4z"/>
		<path class="st23" d="M125.9,214.1c0,0-1,4.4-3,5.9c-1.3,1-2.6,1.4-3.7,1.3c-0.6-0.1-1.1-0.4-1.4-0.9c-0.8-1.4,0.2-3.8,2.3-5.4
			c1-0.7,2.3-1,3.5-1h0C124.8,214,125.9,214.1,125.9,214.1z"/>
		<path class="st23" d="M115.3,220.3c-0.4,0.7-1.2,1-2.2,0.8c-0.9-0.1-1.9-0.6-2.9-1.4c-2-1.7-2.8-6.1-2.8-6.1s0.3,0,0.7-0.1
			c0.1,0,0.1,0,0.2,0c1.3,0,3.6,0.1,4.9,1.2C115.2,216.5,116.1,219,115.3,220.3z"/>
		<path class="st23" d="M120.9,191.1c-0.9,2.5-2.6,4.1-3.9,3.7h0c-0.1,0-0.1,0-0.2-0.1c-1.3-0.7-1.6-3.3-0.7-5.9
			c0.7-1.9,2.6-3.4,3.7-4.1c0.5-0.3,0.8-0.5,0.8-0.5S121.8,188.5,120.9,191.1z"/>
		<path class="st23" d="M114.9,195.9c-0.4,1-1.5,1.5-2.9,1.4c-0.7-0.1-1.4-0.3-2.2-0.6c-2.3-1.1-3.9-5.2-3.9-5.2s1.6-0.7,3.4-0.7
			c0.9-0.1,1.8,0,2.6,0.4C114.1,192.2,115.5,194.3,114.9,195.9z"/>
		<path class="st23" d="M123.7,205.8c-1.3,1.8-2.9,2.7-4.1,2.5c-0.3-0.1-0.5-0.2-0.7-0.4c-1.1-1.1-0.7-3.7,0.8-5.9
			c1.1-1.6,3.3-2.4,4.5-2.7c0.5-0.2,0.9-0.2,0.9-0.2S125.2,203.6,123.7,205.8z"/>
		<path class="st23" d="M115.7,207.8c-0.4,0.9-1.4,1.2-2.6,1.1c-0.8-0.1-1.7-0.4-2.5-1c-2.1-1.4-3.4-5.7-3.4-5.7s1-0.3,2.3-0.3h0.1
			c1.2-0.1,2.6,0.1,3.6,0.7C115.2,204.1,116.4,206.4,115.7,207.8z"/>
		<path class="st23" d="M115.6,177.5c-0.5,2.4-1.8,4.2-3.1,3.8c0,0-0.1,0-0.1,0c-1.1-0.4-1.7-2.6-1.2-4.9c0.3-1.7,1.8-3.3,2.6-4.2
			c0.4-0.4,0.6-0.6,0.6-0.6S116.1,175.1,115.6,177.5z"/>
		<path class="st23" d="M111.7,184.6c-0.2,1.2-1.6,1.9-3.3,1.7c-0.3,0-0.6-0.1-0.9-0.2c-2.1-0.6-4.1-3.8-4.1-3.8s2-1.3,3.8-1.4
			c0.4-0.1,0.9,0,1.3,0.1C110.5,181.6,112,183.2,111.7,184.6z"/>
		<path class="st23" d="M108.9,168c-0.1,2.2-1.1,3.9-2.2,3.8c-0.1,0-0.3,0-0.4-0.1c-0.9-0.4-1.5-2.1-1.4-4c0.1-1.5,1.1-3.1,1.7-3.9
			c0.3-0.4,0.5-0.6,0.5-0.6S109.1,165.9,108.9,168z"/>
		<path class="st23" d="M106.9,175.2c-0.1,1.3-1.6,2.2-3.5,2c0,0-0.1,0-0.1,0c-1.8-0.2-3.8-2.6-3.8-2.6s1.8-1.7,3.5-2
			c0.2,0,0.4,0,0.6,0C105.5,172.8,106.9,174,106.9,175.2z"/>
		<path class="st23" d="M103.2,168.7c-0.3,0.7-1.1,0.9-2,0.8c-0.6-0.1-1.3-0.4-1.9-0.8c-1.6-1.1-2.5-4.4-2.5-4.4s0.6-0.1,1.4-0.2
			c1-0.1,2.2,0,3.1,0.6C102.9,165.8,103.8,167.6,103.2,168.7z"/>
	</g>
	<g>
		<path class="st10" d="M120.4,228.2c0,0-1.6,4.1-3.9,5.2c-0.7,0.4-1.5,0.6-2.2,0.6c0,0,0,0,0,0c-1-0.1-1.7-0.6-2-1.4
			c-0.6-1.5,0.8-3.7,3-4.8c0.5-0.2,1.1-0.4,1.7-0.4C118.8,227.5,120.4,228.2,120.4,228.2z"/>
		<path class="st10" d="M108.4,231.6c-0.2,0.1-0.4,0.3-0.6,0.3c-1.1-0.2-2.3-1.2-3.2-2.8c-1.2-2-1.1-5.5-1-6.5
			c1.2,0.4,3.3,1.4,4.3,3C109.4,228,109.6,230.6,108.4,231.6z"/>
		<path class="st10" d="M114.4,239c0,0-2.2,3.7-4.6,4.4c-0.4,0.1-0.8,0.2-1.2,0.2c-1.5-0.1-2.6-0.8-2.8-2c-0.3-1.6,1.3-3.5,3.7-4.1
			c0.2-0.1,0.4-0.1,0.6-0.1C112.1,237.5,114.4,239,114.4,239z"/>
		<path class="st10" d="M101.1,240.3c-1.2-0.4-2.3-2.1-2.7-4.3c-0.4-2.1,0.6-5,1.1-6.2c1,0.9,2.7,2.8,3.1,4.8
			C103,237.4,102.4,239.9,101.1,240.3z"/>
		<path class="st10" d="M125,214.1c0,0-1,4.4-3,5.9c-0.9,0.7-1.9,1.1-2.8,1.3c-0.6-0.1-1.1-0.4-1.4-0.9c-0.8-1.4,0.2-3.8,2.3-5.4
			c1-0.7,2.3-1,3.5-1h0C124.4,214,125,214.1,125,214.1z"/>
		<path class="st10" d="M114.4,220.3c-0.3,0.5-0.8,0.7-1.3,0.8c-0.9-0.1-1.9-0.6-2.9-1.4c-2-1.7-2.8-6.1-2.8-6.1s0.3,0,0.7-0.1
			c0.1,0,0.1,0,0.2,0c1.3,0.1,3,0.3,4.1,1.2C114.3,216.5,115.2,219,114.4,220.3z"/>
		<path class="st10" d="M120,191.1c-0.7,1.9-1.9,3.3-3,3.7h0c-0.1,0-0.1,0-0.2-0.1c-1.3-0.7-1.6-3.3-0.7-5.9
			c0.7-1.9,2.6-3.4,3.7-4.1C120.1,185.8,120.7,189,120,191.1z"/>
		<path class="st10" d="M114,195.9c-0.3,0.8-1,1.3-2,1.4c-0.7-0.1-1.4-0.3-2.2-0.6c-2.3-1.1-3.9-5.2-3.9-5.2s1.6-0.7,3.4-0.7
			c0.6,0,1.2,0.2,1.7,0.4C113.2,192.2,114.6,194.3,114,195.9z"/>
		<path class="st10" d="M122.8,205.8c-1,1.4-2.2,2.3-3.2,2.5c-0.3-0.1-0.5-0.2-0.7-0.4c-1.1-1.1-0.7-3.7,0.8-5.9
			c1.1-1.6,3.3-2.4,4.5-2.7C124.2,200.2,124.1,203.9,122.8,205.8z"/>
		<path class="st10" d="M114.8,207.8c-0.3,0.6-0.9,1-1.7,1.1c-0.8-0.1-1.7-0.4-2.5-1c-2.1-1.4-3.4-5.7-3.4-5.7s1-0.3,2.3-0.3h0.1
			c0.9,0,1.9,0.2,2.7,0.7C114.3,204.1,115.5,206.4,114.8,207.8z"/>
		<path class="st10" d="M114.7,177.5c-0.4,1.9-1.3,3.4-2.3,3.8c-1.1-0.4-1.7-2.6-1.2-4.9c0.3-1.7,1.8-3.3,2.6-4.2
			C114.3,173.3,115.1,175.7,114.7,177.5z"/>
		<path class="st10" d="M110.8,184.6c-0.2,1-1.2,1.6-2.4,1.7c-0.3,0-0.6-0.1-0.9-0.2c-2.1-0.6-4.1-3.8-4.1-3.8s2-1.3,3.8-1.4
			c0.1,0,0.3,0,0.4,0.1C109.6,181.6,111.1,183.2,110.8,184.6z"/>
		<path class="st10" d="M108.1,168c-0.1,1.8-0.8,3.3-1.7,3.7c-0.9-0.4-1.5-2.1-1.4-4c0.1-1.5,1.1-3.1,1.7-3.9
			C107.3,164.7,108.1,166.5,108.1,168z"/>
		<path class="st10" d="M106,175.2c-0.1,1.1-1.2,1.9-2.7,2c-1.8-0.2-3.8-2.6-3.8-2.6s1.8-1.7,3.5-2C104.7,173,106,174,106,175.2z"/>
		<path class="st10" d="M102.3,168.7c-0.2,0.4-0.6,0.7-1.1,0.8c-0.6-0.1-1.3-0.4-1.9-0.8c-1.6-1.1-2.5-4.4-2.5-4.4s0.6-0.1,1.4-0.2
			c0.8,0,1.6,0.2,2.2,0.6C102,165.8,102.9,167.6,102.3,168.7z"/>
	</g>
	<g>
		<path class="st23" d="M35.4,231.9c-0.6,1.6-2.8,2-5.1,0.8c-0.1,0-0.2-0.1-0.3-0.1c-2.1-1.3-3.7-5.3-3.7-5.3s3.3-1.4,5.5-0.5
			c0.1,0,0.3,0.1,0.4,0.2C34.6,228,36,230.3,35.4,231.9z"/>
		<path class="st23" d="M43.1,228.2c-1.4,2.4-3.5,3.6-4.7,2.6c0,0-0.1-0.1-0.1-0.1c-1.1-1.1-0.8-3.8,0.6-6.2c1-1.7,3.2-2.7,4.4-3.2
			c0.5-0.2,0.8-0.3,0.8-0.3S44.6,225.8,43.1,228.2z"/>
		<path class="st23" d="M42.1,241.2c-0.3,1.7-2.5,2.5-4.9,1.9c-0.4-0.1-0.7-0.3-1.1-0.5c-1.9-1.3-3.6-4-3.6-4s3.4-2.3,5.8-1.6
			c0.3,0.1,0.5,0.2,0.7,0.3C41,237.9,42.3,239.7,42.1,241.2z"/>
		<path class="st23" d="M49.4,235.4c-0.6,2.9-2.1,5-3.5,4.6c-0.2-0.1-0.4-0.2-0.6-0.4c-0.9-0.9-1.3-3.2-0.9-5.6
			c0.4-2.2,2.3-4.3,3.2-5.2c0.3-0.3,0.5-0.5,0.5-0.5S50,232.5,49.4,235.4z"/>
		<path class="st23" d="M30.1,219c-0.7,1.3-2.5,1.3-4.3,0.2c0,0,0,0,0,0c-0.3-0.1-0.5-0.3-0.8-0.5c-2-1.6-3-6.2-3-6.2
			s2.6-0.5,4.7,0.3c0.4,0.2,0.8,0.4,1.2,0.6C29.8,215.1,30.8,217.6,30.1,219z"/>
		<path class="st23" d="M40.4,211.9c0,0-0.9,4.6-2.8,6.4c-1.8,1.5-3.7,1.9-4.7,1c-0.1-0.1-0.3-0.3-0.4-0.4c-0.8-1.4,0.1-4,2.1-5.7
			c1.4-1.2,3.6-1.3,4.9-1.3C40.1,211.9,40.4,211.9,40.4,211.9z"/>
		<path class="st23" d="M31,192c-0.6,0.3-1.2,0.1-1.9-0.3c-0.9-0.6-1.7-1.9-2.2-3.4c-0.9-2.5,0.1-6.4,0.3-7.1c0-0.1,0-0.1,0-0.1
			s3.5,2,4.5,4.8C32.6,188.6,32.3,191.4,31,192z"/>
		<path class="st23" d="M41.9,188.6c0,0-1.7,4.3-3.9,5.5c-1.7,0.9-3.5,0.9-4.4,0.1c-0.3-0.2-0.5-0.5-0.7-0.9c-0.6-1.6,0.8-3.9,3.1-5
			c1.5-0.8,3.8-0.3,5,0.1C41.5,188.5,41.9,188.6,41.9,188.6z"/>
		<path class="st23" d="M28.9,205.9c-0.7,0.7-1.7,0.6-2.8-0.1c-0.7-0.4-1.4-1.2-2.1-2.1c-1.6-2.3-1.4-7.1-1.4-7.1s1.2,0.2,2.5,0.8
			c1.1,0.5,2.2,1.2,2.9,2.2C29.6,202,30,204.8,28.9,205.9z"/>
		<path class="st23" d="M40.7,200c0,0-1.3,4.5-3.4,5.9c-1.7,1.2-3.6,1.4-4.6,0.5c-0.2-0.2-0.4-0.4-0.5-0.7c-0.7-1.5,0.5-3.9,2.6-5.4
			c1.5-1,3.7-0.8,5-0.6C40.3,199.9,40.7,200,40.7,200z"/>
		<path class="st23" d="M35.2,178.1c-0.4,0.1-0.9,0-1.3-0.4c-0.8-0.7-1.4-2-1.7-3.6c-0.4-2.1,0.7-5,1.1-5.9c0.1-0.2,0.1-0.3,0.1-0.3
			s2.8,2.4,3.2,5C37,175.4,36.4,177.7,35.2,178.1z"/>
		<path class="st23" d="M44.4,179.1c0,0-2,3.4-4.1,4c-1.4,0.4-2.7,0.2-3.5-0.4c-0.4-0.3-0.7-0.7-0.8-1.2c-0.3-1.5,1.2-3.2,3.3-3.7
			c1.1-0.3,2.4,0.1,3.5,0.6C43.7,178.7,44.4,179.1,44.4,179.1z"/>
		<path class="st23" d="M41,168.1c-0.3,0-0.7-0.1-1-0.4c-0.6-0.7-1.1-2-1.2-3.5c-0.1-1.7,1-3.8,1.5-4.7c0.2-0.3,0.2-0.4,0.2-0.4
			s2.1,2.5,2.2,4.8C42.9,166.1,42.1,168,41,168.1z"/>
		<path class="st23" d="M48.3,171.1c0,0-2.1,2.6-3.9,2.7c-1,0.1-1.9-0.2-2.6-0.6c-0.5-0.4-0.9-0.9-0.9-1.5c-0.1-1.3,1.4-2.5,3.2-2.7
			c0.5,0,1,0.1,1.5,0.3C47,169.8,48.3,171.1,48.3,171.1z"/>
		<path class="st23" d="M51,160.1c0,0-0.9,3.4-2.5,4.6c-1.4,1-2.9,1.2-3.6,0.4c-0.1-0.1-0.2-0.2-0.3-0.4c-0.6-1.1,0.3-3,1.9-4.2
			c1-0.7,2.6-0.7,3.5-0.6C50.6,160,51,160.1,51,160.1z"/>
	</g>
	<g>
		<path class="st10" d="M34.5,231.4c-0.5,1.5-2.4,1.9-4.5,1.1c-2.1-1.3-3.7-5.3-3.7-5.3s3.3-1.4,5.5-0.5
			C33.9,227.9,35.1,229.9,34.5,231.4z"/>
		<path class="st10" d="M42.3,227.8c-1.1,2-2.7,3.1-3.9,2.9c-1.1-1.1-0.8-3.8,0.6-6.2c1-1.7,3.2-2.7,4.4-3.2
			C43.4,222.7,43.3,225.9,42.3,227.8z"/>
		<path class="st10" d="M41.2,240.7c-0.3,1.7-2.5,2.5-4.9,1.9c-0.1,0-0.1,0-0.2-0.1c-1.9-1.3-3.6-4-3.6-4s3.4-2.3,5.8-1.6
			c0.3,0.1,0.5,0.2,0.7,0.3C40.5,238,41.4,239.5,41.2,240.7z"/>
		<path class="st10" d="M48.6,235c-0.5,2.8-2,4.7-3.3,4.6c-0.9-0.9-1.3-3.2-0.9-5.6c0.4-2.2,2.3-4.3,3.2-5.2
			C48.1,230.2,49,232.9,48.6,235z"/>
		<path class="st10" d="M29.2,218.6c-0.6,1.1-2,1.3-3.5,0.7c0,0,0,0,0,0c-0.3-0.1-0.5-0.3-0.8-0.5c-2-1.6-3-6.2-3-6.2
			s2.6-0.5,4.7,0.3c0.1,0.1,0.2,0.1,0.3,0.2C28.9,214.6,30,217.1,29.2,218.6z"/>
		<path class="st10" d="M39.5,211.9c-0.3,1.1-1.1,4.5-2.7,6c-1.3,1.2-2.8,1.7-3.9,1.5c-0.1-0.1-0.3-0.3-0.4-0.4
			c-0.8-1.4,0.1-4,2.1-5.7C35.9,212,38.2,211.9,39.5,211.9z"/>
		<path class="st10" d="M30.1,191.6c-0.3,0.2-0.7,0.2-1,0.1c-0.9-0.6-1.7-1.9-2.2-3.4c-0.9-2.5,0.1-6.4,0.3-7.1
			c1.1,0.8,3,2.3,3.6,4.2C31.7,188.1,31.5,190.9,30.1,191.6z"/>
		<path class="st10" d="M41,188.3c-0.3,0.7-1.8,4.3-3.9,5.3c-1.3,0.7-2.6,0.8-3.6,0.6c-0.3-0.2-0.5-0.5-0.7-0.9
			c-0.6-1.6,0.8-3.9,3.1-5C37.5,187.4,39.7,187.9,41,188.3z"/>
		<path class="st10" d="M28,205.5c-0.5,0.5-1.1,0.6-1.9,0.3c-0.7-0.4-1.4-1.2-2.1-2.1c-1.6-2.3-1.4-7.1-1.4-7.1s1.2,0.2,2.5,0.8
			c0.8,0.4,1.6,1.1,2.1,1.8C28.8,201.6,29.1,204.4,28,205.5z"/>
		<path class="st10" d="M39.7,199.8c-0.3,0.9-1.5,4.4-3.4,5.7c-1.3,0.9-2.7,1.2-3.7,1c-0.2-0.2-0.4-0.4-0.5-0.7
			c-0.7-1.5,0.5-3.9,2.6-5.4C36.2,199.4,38.5,199.6,39.7,199.8z"/>
		<path class="st10" d="M34.3,177.6c-0.2,0-0.3,0.1-0.5,0c-0.8-0.7-1.4-2-1.7-3.6c-0.4-2.1,0.7-5,1.1-5.9c0.9,0.9,2.2,2.5,2.5,4.2
			C36.2,174.9,35.6,177.3,34.3,177.6z"/>
		<path class="st10" d="M43.5,178.7c0,0-2,3.4-4.1,4c-0.9,0.3-1.9,0.3-2.6,0c-0.4-0.3-0.7-0.7-0.8-1.2c-0.3-1.5,1.2-3.2,3.3-3.7
			c1.1-0.3,2.4,0.1,3.5,0.6C43.3,178.5,43.5,178.7,43.5,178.7z"/>
		<path class="st10" d="M40.1,167.6H40c-0.6-0.7-1.1-2-1.2-3.5c-0.1-1.7,1-3.8,1.5-4.7c0.6,0.9,1.5,2.5,1.6,3.9
			C42,165.6,41.2,167.5,40.1,167.6z"/>
		<path class="st10" d="M47.5,170.6c0,0-2.1,2.6-3.9,2.7c-0.6,0.1-1.2,0-1.7-0.2c-0.5-0.4-0.9-0.9-0.9-1.5c-0.1-1.3,1.4-2.5,3.2-2.7
			c0.5,0,1,0.1,1.5,0.3C46.7,169.9,47.5,170.6,47.5,170.6z"/>
		<path class="st10" d="M50,160c-0.2,0.8-1.1,3.4-2.4,4.3c-1,0.7-2,1-2.8,0.9c-0.1-0.1-0.2-0.2-0.3-0.4c-0.6-1.1,0.3-3,1.9-4.2
			C47.5,159.9,49,159.9,50,160z"/>
	</g>
	<g>
		<linearGradient id="SVGID_13_" gradientUnits="userSpaceOnUse" x1="155.653" y1="-41.6161" x2="58.0347" y2="109.1363">
			<stop  offset="0" style="stop-color:#A51500"/>
			<stop  offset="1" style="stop-color:#DD1D00"/>
		</linearGradient>
		<polygon class="st24" points="93.1,7.7 66.2,137 70.6,137 100.9,7.7 		"/>
		<linearGradient id="SVGID_14_" gradientUnits="userSpaceOnUse" x1="70.622" y1="72.3774" x2="127.1074" y2="72.3774">
			<stop  offset="0" style="stop-color:#C8C8C8"/>
			<stop  offset="0.5343" style="stop-color:#FFFFFF"/>
			<stop  offset="1" style="stop-color:#C8C8C8"/>
		</linearGradient>
		<polygon class="st25" points="100.9,7.7 70.6,137 76.4,137 110,7.7 		"/>
		<polygon class="st2" points="110,7.7 76.4,137 78.9,137 118,7.7 		"/>
		<linearGradient id="SVGID_15_" gradientUnits="userSpaceOnUse" x1="167.9639" y1="-41.1784" x2="69.9541" y2="110.1785">
			<stop  offset="0" style="stop-color:#A51500"/>
			<stop  offset="1" style="stop-color:#DD1D00"/>
		</linearGradient>
		<polygon class="st26" points="110,7.7 76.4,137 78.9,137 118,7.7 		"/>
	</g>
	<path class="st27" d="M132.2,203c0,32-26.1,58.1-58.1,58.1c-1.6,0-3.2-0.1-4.7-0.2C47.5,259.2,29,245.3,20.7,226
		c86.3,20.1,81.3-59,79.7-73.1c0,0,0.4-1.3,0.4-1.6c10.6,5.3,18.7,13.5,24.4,23.9C129.6,183.5,132.2,193,132.2,203z"/>
	<path class="st13" d="M132.2,203c0,32-26.1,58.1-58.1,58.1c-1.6,0-3.2-0.1-4.7-0.2c39.4-13.7,51.4-55.7,55-79.4l2.7-2.5
		C130.2,186.4,132.2,193,132.2,203z"/>
	<defs>
		<filter id="Adobe_OpacityMaskFilter_4_" filterUnits="userSpaceOnUse" x="12.9" y="163" width="105.6" height="92.5">
			<feFlood  style="flood-color:white;flood-opacity:1" result="back"/>
			<feBlend  in="SourceGraphic" in2="back" mode="normal"/>
		</filter>
	</defs>
	<mask maskUnits="userSpaceOnUse" x="12.9" y="163" width="105.6" height="92.5" id="SVGID_16_">
		<g class="st28">
			<defs>
				<filter id="Adobe_OpacityMaskFilter_5_" filterUnits="userSpaceOnUse" x="12.9" y="163" width="105.6" height="92.5">
					<feFlood  style="flood-color:white;flood-opacity:1" result="back"/>
					<feBlend  in="SourceGraphic" in2="back" mode="normal"/>
				</filter>
			</defs>
			<mask maskUnits="userSpaceOnUse" x="12.9" y="163" width="105.6" height="92.5" id="SVGID_16_">
				<g class="st29">
				</g>
			</mask>
			<linearGradient id="SVGID_17_" gradientUnits="userSpaceOnUse" x1="110.6333" y1="250.8906" x2="24.4487" y2="173.013">
				<stop  offset="0" style="stop-color:#000000"/>
				<stop  offset="1" style="stop-color:#FFFFFF"/>
			</linearGradient>
			<path class="st30" d="M118.5,246.6c-3.3,3.4-7,6.4-11,9l-0.7-2.8l-0.4-1.5l-3.2,0.4l-7.7-6.9l-75.4-63.4l-1.7-6.4l-5.5,1.8
				c0.3-0.6,0.6-1.2,0.8-1.7c0.5-1,1-2,1.5-3c1.3-2.6,2.9-5,4.6-7.3l6.5-1.6l0.3,6.4l73,60l2.1,1.9l0,0h0l2.9,2.6l4.1,3.7h0l3.9,3.6
				l0.5,0.4l0.6,0.6l3.1,0l0.2,0.6L118.5,246.6z"/>
		</g>
	</mask>
	<linearGradient id="SVGID_18_" gradientUnits="userSpaceOnUse" x1="110.6333" y1="250.8906" x2="24.4487" y2="173.013">
		<stop  offset="0" style="stop-color:#FFFFFF"/>
		<stop  offset="1" style="stop-color:#FFFFFF"/>
	</linearGradient>
	<path class="st31" d="M118.5,246.6c-3.3,3.4-7,6.4-11,9l-0.7-2.8l-0.4-1.5l-3.2,0.4l-7.7-6.9l-75.4-63.4l-1.7-6.4l-5.5,1.8
		c0.3-0.6,0.6-1.2,0.8-1.7c0.5-1,1-2,1.5-3c1.3-2.6,2.9-5,4.6-7.3l6.5-1.6l0.3,6.4l73,60l2.1,1.9l0,0h0l2.9,2.6l4.1,3.7h0l3.9,3.6
		l0.5,0.4l0.6,0.6l3.1,0l0.2,0.6L118.5,246.6z"/>
	<defs>
		<filter id="Adobe_OpacityMaskFilter_6_" filterUnits="userSpaceOnUse" x="24.6" y="153.8" width="102.1" height="88.1">
			<feFlood  style="flood-color:white;flood-opacity:1" result="back"/>
			<feBlend  in="SourceGraphic" in2="back" mode="normal"/>
		</filter>
	</defs>
	<mask maskUnits="userSpaceOnUse" x="24.6" y="153.8" width="102.1" height="88.1" id="SVGID_19_">
		<g class="st32">
			<defs>
				<filter id="Adobe_OpacityMaskFilter_7_" filterUnits="userSpaceOnUse" x="24.6" y="153.8" width="102.1" height="88.1">
					<feFlood  style="flood-color:white;flood-opacity:1" result="back"/>
					<feBlend  in="SourceGraphic" in2="back" mode="normal"/>
				</filter>
			</defs>
			<mask maskUnits="userSpaceOnUse" x="24.6" y="153.8" width="102.1" height="88.1" id="SVGID_19_">
				<g class="st33">
				</g>
			</mask>
			<linearGradient id="SVGID_20_" gradientUnits="userSpaceOnUse" x1="109.7444" y1="228.853" x2="49.3159" y2="170.2477">
				<stop  offset="0" style="stop-color:#000000"/>
				<stop  offset="1" style="stop-color:#FFFFFF"/>
			</linearGradient>
			<path class="st34" d="M126.8,236.2c-1.3,2-2.6,3.9-4.1,5.7l-1.7-4.4l-0.1-0.2l-3.3,0l-86.5-73.5l-0.6-5.4l-5.8,0.2
				c0.3-0.2,0.5-0.5,0.7-0.7c0.7-0.7,1.5-1.5,2.2-2.2c0.5-0.5,1.1-1,1.7-1.5l6.6-0.5l-0.1,5.2l84.5,71.3l1.1,1l3.1-0.1l0.4,0
				L126.8,236.2z"/>
		</g>
	</mask>
	<linearGradient id="SVGID_21_" gradientUnits="userSpaceOnUse" x1="109.7444" y1="228.853" x2="49.3159" y2="170.2477">
		<stop  offset="0" style="stop-color:#FFFFFF"/>
		<stop  offset="1" style="stop-color:#FFFFFF"/>
	</linearGradient>
	<path class="st35" d="M126.8,236.2c-1.3,2-2.6,3.9-4.1,5.7l-1.7-4.4l-0.1-0.2l-3.3,0l-86.5-73.5l-0.6-5.4l-5.8,0.2
		c0.3-0.2,0.5-0.5,0.7-0.7c0.7-0.7,1.5-1.5,2.2-2.2c0.5-0.5,1.1-1,1.7-1.5l6.6-0.5l-0.1,5.2l84.5,71.3l1.1,1l3.1-0.1l0.4,0
		L126.8,236.2z"/>
</g>
<g class="st36">
	<g class="st37">
		
			<linearGradient id="SVGID_22_" gradientUnits="userSpaceOnUse" x1="193.9167" y1="171.4957" x2="251.5838" y2="110.8287" gradientTransform="matrix(-1 0 0 1 352.3229 0)">
			<stop  offset="0.1569" style="stop-color:#13589C"/>
			<stop  offset="0.5251" style="stop-color:#13579A"/>
			<stop  offset="0.6822" style="stop-color:#125393"/>
			<stop  offset="0.799" style="stop-color:#104C86"/>
			<stop  offset="0.8959" style="stop-color:#0E4275"/>
			<stop  offset="0.9797" style="stop-color:#0B355E"/>
			<stop  offset="1" style="stop-color:#0A3157"/>
		</linearGradient>
		<polygon class="st38" points="45.1,7.7 75.4,137 79.8,137 53,7.7 		"/>
		<linearGradient id="SVGID_23_" gradientUnits="userSpaceOnUse" x1="87.692" y1="127.0315" x2="-28.4627" y2="-82.2843">
			<stop  offset="0" style="stop-color:#8E8E8E"/>
			<stop  offset="0.5343" style="stop-color:#FFFFFF"/>
			<stop  offset="1" style="stop-color:#C8C8C8"/>
		</linearGradient>
		<polygon class="st39" points="36,7.7 69.6,137 75.4,137 45.1,7.7 		"/>
		<polygon class="st2" points="27.6,7.7 65.6,137 69.6,137 36,7.7 		"/>
		
			<linearGradient id="SVGID_24_" gradientUnits="userSpaceOnUse" x1="200.9379" y1="178.171" x2="258.6053" y2="117.5036" gradientTransform="matrix(-1 0 0 1 352.3229 0)">
			<stop  offset="0.1569" style="stop-color:#13589C"/>
			<stop  offset="0.5251" style="stop-color:#13579A"/>
			<stop  offset="0.6822" style="stop-color:#125393"/>
			<stop  offset="0.799" style="stop-color:#104C86"/>
			<stop  offset="0.8959" style="stop-color:#0E4275"/>
			<stop  offset="0.9797" style="stop-color:#0B355E"/>
			<stop  offset="1" style="stop-color:#0A3157"/>
		</linearGradient>
		<polygon class="st40" points="27.6,7.7 65.6,137 69.6,137 36,7.7 		"/>
	</g>
	<linearGradient id="SVGID_25_" gradientUnits="userSpaceOnUse" x1="7.595" y1="195.4938" x2="130.5505" y2="195.4938">
		<stop  offset="0" style="stop-color:#9EA0A6"/>
		<stop  offset="1" style="stop-color:#7F8389"/>
	</linearGradient>
	<path class="st41" d="M126.1,179.8L126.1,179.8c-2.3-5.7-5.3-10.9-9-15.7c0,0,0-0.1,0-0.1c-0.3-0.3-0.5-0.6-0.7-0.9
		c0,0-0.1-0.1-0.1-0.1c-7.9-9.7-18.5-16.9-30.8-20.5c-0.4-0.2-0.9-0.3-1.4-0.4c-0.8-0.2-1.5-0.4-2.3-0.6l0.7,0l0.3,0l0.3,0l0.9,0
		l1.2,0c0-0.1,0.1-0.5,0.2-1.3c0.1-1.1-0.8-4.8-2.3-7.6v0c0,0,0,0,0,0c-0.3-0.5-0.5-0.9-0.8-1.3c0,0,0-0.1,0-0.1
		c-2.4-3.6-6.3-4.5-9.5-4.5c-3.6,0-8.3,1.2-10.7,3.7c-4.8,4.9-5.2,8.2-5.3,10.5v0.1c-8.9,1.7-16.9,5.2-23.8,10.2
		c-1.3,0.9-2.6,1.9-3.8,3c-0.6,0.5-1.1,1-1.7,1.5c-0.8,0.7-1.5,1.4-2.2,2.2c-0.2,0.2-0.4,0.4-0.7,0.7h0c-0.5,0.5-1,1-1.4,1.6
		c-1.2,1.4-2.4,2.9-3.5,4.4c-1.7,2.3-3.2,4.7-4.6,7.3c-0.5,1-1,2-1.5,3c-0.3,0.6-0.5,1.2-0.8,1.7c-3.4,8-5.3,16.8-5.3,26.2
		c0,28.6,19.5,51.4,45.5,58.7c5.7,1.6,11.7,2.5,17.9,2.5c13.1,0,24.9-3.8,34.4-10.4c0.4-0.3,0.9-0.6,1.3-0.9
		c3.4-2.5,6.4-5.3,9.2-8.5c0.4-0.4,0.8-0.9,1.1-1.3c1-1.2,1.9-2.4,2.7-3.6c0.4-0.6,0.8-1.2,1.2-1.8c0.4-0.6,0.8-1.2,1.1-1.9
		c0-0.1,0.1-0.1,0.1-0.2c0.4-0.7,0.8-1.5,1.2-2.3c0.3-0.7,0.7-1.3,1-2c3.9-8.3,6.1-17.8,6.1-28C130.6,194.9,129,187,126.1,179.8z
		 M62.6,135.8c0.3-1.2,0.6-0.6,1.1-0.2c0.3,0.2,0.7,0.4,1.2-0.3c0.3-0.4,0.6-0.8,0.9-1.1c1.4-1.4,3.1-2.1,5.2-2.1
		c1.2,0,2.3,0.2,3.2,0.7c0.4,0.2,0.7,0.4,1.1,0.6c0.1,0.1,0.2,0.2,0.3,0.3c0.2,0.1,4.4,3.7,4.3,6.2c-0.2,0-0.4-0.1-0.6-0.1
		c-3.6-0.6-7.6-0.6-11.3-0.2c-1.3,0.1-2.4,0.3-3.6,0.5c-0.5,0.1-1.1,0.1-1.6,0.2c-0.2,0-0.5,0.1-0.7,0.1
		C62.1,139.1,62.2,137.5,62.6,135.8z"/>
	<path class="st42" d="M82.8,141.5c0,0-3.1-1.8-2.9-1.7c0.1-2.5-4.1-6.1-4.3-6.3c-0.4-0.4-0.9-0.6-1.4-0.9c0.9-0.4,2.3,0,3.1,0.2
		l0.7,0.7C79.6,136.1,84.2,137.7,82.8,141.5z"/>
	<path class="st43" d="M85.9,146.1c0.1,0-6.4,0-6.4,0l-15.3,0.8l-1.4-6.6c1.7-0.2,3.4-0.5,5.2-0.7c3.9-0.4,8.2-0.4,11.9,0.3
		c0,0,4.5,2.9,4.6,3.1C85.4,145,85.8,146,85.9,146.1z"/>
	<path class="st44" d="M83.1,132.7L83.1,132.7c0,0.2-5.7-1.6-5.7-1.6l-10,1.4l-1.5,0.2l-1,2.6l-1.2,0.3l-1.1,0.3l-2.8,7.1l-0.8-0.5
		l-2.2-1.4c0-2.3,0.4-5.6,5.2-10.5c1-1,2.4-1.9,4-2.5c2.2-0.8,4.6-1.2,6.7-1.2c2.6,0,5.7,0.6,8.1,2.8c0.5,0.5,1,1,1.4,1.6
		C82.5,131.7,82.8,132.2,83.1,132.7C83,132.7,83,132.7,83.1,132.7z"/>
	<linearGradient id="SVGID_26_" gradientUnits="userSpaceOnUse" x1="11.7288" y1="196.619" x2="136.324" y2="196.619">
		<stop  offset="0" style="stop-color:#7F8389"/>
		<stop  offset="1" style="stop-color:#9EA0A6"/>
	</linearGradient>
	<path class="st45" d="M87.4,142.1c0-1.9-0.3-4.5-2.7-7.9c-0.7-0.9-1.5-1.9-2.5-2.9c-2.4-2.4-5.4-3.3-9-3.3c-2,0-3.9,0.4-5.5,1.2
		l0,0c-1.3,0.6-2.4,1.4-3.4,2.5c-5,5.1-5.2,9.1-5.2,10.8v0.1c-8.6,2.1-16.4,6-23.2,11.3c-1.9,1.4-3.7,3-5.3,4.7
		c-1.5,1.5-2.9,3-4.2,4.6c-3,3.6-5.7,7.6-7.8,11.9c-4.3,8.4-6.7,18-6.7,28.1c0,27.1,17.3,50.1,41.4,58.7c6.5,2.3,13.6,3.6,20.9,3.6
		c12.3,0,23.8-3.6,33.4-9.7c4-2.6,7.7-5.6,11-9c1.5-1.5,2.9-3.1,4.2-4.7c1.5-1.8,2.9-3.7,4.1-5.7c6.1-9.6,9.6-21,9.6-33.2
		C136.3,173.2,115.4,148.2,87.4,142.1z M74,140.7c-3.3,0-6.6,0.3-9.8,0.8c0-0.6,0.1-1,0.2-1.5c0.3-1.4,1-2.1,2.6-3.7
		c0.3-0.3,0.7-0.7,1-1.1c1.4-1.4,3.1-2.1,5.2-2.1c0.7,0,1.4,0,2.1,0.1c1.2,0.2,2.3,0.6,3.2,1.6c0.7,0.7,1.3,1.4,1.7,1.9
		c1.3,1.7,1.7,2.9,1.9,4.4C79.5,140.9,76.8,140.7,74,140.7z"/>
	<path class="st42" d="M84.7,134.2l-4.5,2.6c-0.4-0.6-1-1.2-1.7-1.9c-0.9-0.9-2-1.4-3.2-1.6c-0.6-0.1-1.3-0.1-2.1-0.1
		c-2.1,0-3.9,0.7-5.2,2.1c-0.4,0.4-0.7,0.7-1,1.1l0.4-3.9l0.3-3.3l0,0c0-0.1-0.9-0.6-1.6-1.1c2.2-0.8,4.6-1.2,6.7-1.2
		c2.6,0,5.7,0.6,8.1,2.8c0.4,0.6,0.9,1.1,1.4,1.6C83.2,132.3,84,133.3,84.7,134.2z"/>
	<g class="st37">
		<radialGradient id="SVGID_27_" cx="74.0273" cy="202.9716" r="58.1309" gradientUnits="userSpaceOnUse">
			<stop  offset="0" style="stop-color:#83848C"/>
			<stop  offset="1" style="stop-color:#9C9FA4"/>
		</radialGradient>
		<path class="st46" d="M74,261.1C42,261.1,15.9,235,15.9,203c0-32.1,26.1-58.1,58.1-58.1c32.1,0,58.1,26.1,58.1,58.1
			C132.2,235,106.1,261.1,74,261.1z"/>
	</g>
	<g class="st37">
		<path class="st47" d="M98.9,215.1c0,3.9-0.3,8.2-0.7,11.9c-0.3,0-1.7,2.6-2.2,2.8c0,0-0.1,0-0.1,0c-4.7,0-25.1-0.1-32.5-0.1H50.7
			c-1-2.7-2-5.9-2.7-8.7c-0.1-0.3,2.4-2.5,2.3-2.8c6.8-5,10.6-8,14.9-12c3.1-2.8,6-5.5,8.4-8.3c2.9-3.9,4.7-7.9,4.7-12.4
			c0-3.4-0.8-5.6-2.3-7.7c-1.3-1.7-3.6-2.8-6.1-2.8c-2.1,0-3.8,0.4-5.1,0.9l-2.1,8.9c-0.3,0-2,2.9-2.3,2.9c0,0-0.1,0-0.1,0
			c-3.5,0-7-0.9-10.2-1.1c0.3-6,0.7-12,1.1-17.9c0-0.4,2.3-2.5,2.3-2.9c4.7-2,12.8-3.4,19.4-3.4c9.2,0,14.7,1.8,18.8,5.4
			c4,3.4,6.2,8.6,6.2,13.8c0,6.7-3.4,12.6-7.7,17.5C86,205,80.1,209.6,76,212.8c-1.4,1.2-2.7,2.1-3.9,3c7.3-0.1,20.6-0.8,26.5-0.9
			l0.1,0.1L98.9,215.1z"/>
		<g>
			<g>
				<path class="st48" d="M98.7,215L98.7,215c-5.9,0-19.3,0.7-26.6,0.8c-0.4,0-0.9,0-1.2,0v-0.4c2.6-1.8,4.7-3.2,7.5-5.5
					c3.4-2.6,8-6.2,11.9-10.7c4.3-4.9,7.7-10.8,7.7-17.5c0-5.2-2.2-10.4-6.2-13.8c-4.1-3.6-9.6-5.4-18.8-5.4
					c-6.7,0-14.8,1.4-19.4,3.4c0,0.4-2.3,2.5-2.3,2.9c-0.4,5.5,1.5,9.4,1.2,15c2,0.1,3.5,1.8,5.2,3c0.8,0.5,1.6,0.9,2.6,1
					c0,0,0.1,0,0.1,0c0.3,0,2-2.9,2.3-2.9l2.1-8.9l0.2-1.1c0-0.2,0.1-0.3,0.1-0.4c0.1-0.2,0.2-0.4,0.4-0.6c1.4-0.9,3.7-1.7,6.7-1.7
					c2.5,0,4.8,1.1,6.1,2.8c1.5,2.1,2.3,4.3,2.3,7.7c0,5.5-2.8,10.5-7,15.2c-2.5,2.8-5.4,5.5-8.4,8.3c-4.3,4-8.1,7-14.9,12
					c0.1,0.3-2.4,2.5-2.3,2.8c0.7,2.6,4.1,3.4,5,5.8h12.7c6.9,0,24,2.9,30.2,3c0,0,0.1,0,0.1,0c0.5-0.3,1.9-2.8,2.2-2.8
					c0.4-3.7,0.7-8,0.7-11.9L98.7,215z"/>
			</g>
		</g>
		<path class="st13" d="M65.2,174.5c0,0.1-0.1,0.2-0.1,0.4l-0.2,1.1l-2.1,8.9c-0.3,0-2,2.9-2.3,2.9c0,0-0.1,0-0.1,0
			c-1-0.1-1.8-0.4-2.6-1c0.1-1.1,0.2-2,0.2-2.4c0.5-2.6,1.8-5.2,3.5-7.2c0.5-0.6,2.4-3.3,3.5-2.8C65,174.4,65.1,174.5,65.2,174.5z"
			/>
		<path class="st13" d="M98.9,215.1c0,3.9-0.3,8.2-0.7,11.9c-0.3,0-1.7,2.6-2.2,2.8l-0.1,0l-0.6-0.2l0.6-11.1l0.5-0.6l2.3-2.9
			L98.9,215.1z"/>
		<g>
			<g>
				<path class="st49" d="M96.4,217.9l-0.1-0.1c-6.2,0.1-20.8,0.8-27.7,0.9v-0.4c1.3-0.9,2.4-1.6,3.6-2.5c1.2-0.9,2.5-1.8,3.9-3
					c4.1-3.2,10-7.8,14.2-13.6c3.2-4.3,5.4-9.2,5.4-14.7c0-5.2-2.2-10.4-6.2-13.8c-4.1-3.6-9.6-5.4-18.7-5.4
					c-6.7,0-14.8,1.4-19.5,3.4c-0.4,5.9-0.8,11.9-1.1,17.9c3.2,0.2,6.7,1.1,10.2,1.1h0.1l2.3-10c0.1-0.5,0.2-0.7,0.5-1
					c0.4-0.3,1-0.6,1.6-0.8c1.3-0.5,3.1-0.9,5.1-0.9c2.5,0,4.8,1.1,6.1,2.8c1.5,2.1,2.3,4.3,2.3,7.7c0,4.4-1.8,8.5-4.7,12.4
					c-2.8,3.8-6.6,7.5-10.7,11.2c-4.3,4-8.1,7-14.9,12c0.7,2.8,1.7,6,2.7,8.7h12.7c7.4,0,27.8,0.1,32.5,0.1c0,0,0,0,0-0.1
					c0.4-3.7,0.7-7.9,0.7-11.8L96.4,217.9z"/>
			</g>
		</g>
	</g>
	<defs>
		<filter id="Adobe_OpacityMaskFilter_8_" filterUnits="userSpaceOnUse" x="15.9" y="144.8" width="116.3" height="116.3">
			<feFlood  style="flood-color:white;flood-opacity:1" result="back"/>
			<feBlend  in="SourceGraphic" in2="back" mode="normal"/>
		</filter>
	</defs>
	<mask maskUnits="userSpaceOnUse" x="15.9" y="144.8" width="116.3" height="116.3" id="SVGID_28_" class="st37">
		<g style="filter:url(#Adobe_OpacityMaskFilter_8_);">
			<defs>
				<filter id="Adobe_OpacityMaskFilter_9_" filterUnits="userSpaceOnUse" x="15.9" y="144.8" width="116.3" height="116.3">
					<feFlood  style="flood-color:white;flood-opacity:1" result="back"/>
					<feBlend  in="SourceGraphic" in2="back" mode="normal"/>
				</filter>
			</defs>
			<mask maskUnits="userSpaceOnUse" x="15.9" y="144.8" width="116.3" height="116.3" id="SVGID_28_">
				<g class="st51">
				</g>
			</mask>
			<linearGradient id="SVGID_29_" gradientUnits="userSpaceOnUse" x1="29.0099" y1="239.5258" x2="118.5579" y2="166.8118">
				<stop  offset="0" style="stop-color:#000000"/>
				<stop  offset="0.1621" style="stop-color:#020202"/>
				<stop  offset="0.2313" style="stop-color:#090909"/>
				<stop  offset="0.2828" style="stop-color:#161616"/>
				<stop  offset="0.3255" style="stop-color:#272727"/>
				<stop  offset="0.3628" style="stop-color:#3F3F3F"/>
				<stop  offset="0.3963" style="stop-color:#5B5B5B"/>
				<stop  offset="0.427" style="stop-color:#7D7D7D"/>
				<stop  offset="0.4554" style="stop-color:#A5A5A5"/>
				<stop  offset="0.4811" style="stop-color:#D0D0D0"/>
				<stop  offset="0.5049" style="stop-color:#FFFFFF"/>
				<stop  offset="0.5347" style="stop-color:#DCDCDC"/>
				<stop  offset="0.5835" style="stop-color:#A9A9A9"/>
				<stop  offset="0.6346" style="stop-color:#7C7C7C"/>
				<stop  offset="0.687" style="stop-color:#565656"/>
				<stop  offset="0.741" style="stop-color:#363636"/>
				<stop  offset="0.7972" style="stop-color:#1E1E1E"/>
				<stop  offset="0.8565" style="stop-color:#0D0D0D"/>
				<stop  offset="0.9209" style="stop-color:#030303"/>
				<stop  offset="1" style="stop-color:#000000"/>
			</linearGradient>
			<path class="st52" d="M74,261.1C42,261.1,15.9,235,15.9,203c0-32.1,26.1-58.1,58.1-58.1c32.1,0,58.1,26.1,58.1,58.1
				C132.2,235,106.1,261.1,74,261.1z"/>
		</g>
	</mask>
	<linearGradient id="SVGID_30_" gradientUnits="userSpaceOnUse" x1="29.0099" y1="239.5258" x2="118.5579" y2="166.8118">
		<stop  offset="0" style="stop-color:#FFFFFF"/>
		<stop  offset="0.431" style="stop-color:#FFFFFF"/>
		<stop  offset="0.5049" style="stop-color:#FFFFFF"/>
		<stop  offset="0.5158" style="stop-color:#F6F6F6"/>
		<stop  offset="0.5743" style="stop-color:#CACCCC"/>
		<stop  offset="0.6353" style="stop-color:#A3A7A7"/>
		<stop  offset="0.6982" style="stop-color:#848989"/>
		<stop  offset="0.7636" style="stop-color:#6C7272"/>
		<stop  offset="0.8327" style="stop-color:#5B6262"/>
		<stop  offset="0.9078" style="stop-color:#515858"/>
		<stop  offset="1" style="stop-color:#4E5555"/>
	</linearGradient>
	<path class="st53" d="M74,261.1C42,261.1,15.9,235,15.9,203c0-32.1,26.1-58.1,58.1-58.1c32.1,0,58.1,26.1,58.1,58.1
		C132.2,235,106.1,261.1,74,261.1z"/>
	<defs>
		<filter id="Adobe_OpacityMaskFilter_10_" filterUnits="userSpaceOnUse" x="15.9" y="144.8" width="116.3" height="116.3">
			<feFlood  style="flood-color:white;flood-opacity:1" result="back"/>
			<feBlend  in="SourceGraphic" in2="back" mode="normal"/>
		</filter>
	</defs>
	<mask maskUnits="userSpaceOnUse" x="15.9" y="144.8" width="116.3" height="116.3" id="SVGID_31_" class="st37">
		<g style="filter:url(#Adobe_OpacityMaskFilter_10_);">
			<defs>
				<filter id="Adobe_OpacityMaskFilter_11_" filterUnits="userSpaceOnUse" x="15.9" y="144.8" width="116.3" height="116.3">
					<feFlood  style="flood-color:white;flood-opacity:1" result="back"/>
					<feBlend  in="SourceGraphic" in2="back" mode="normal"/>
				</filter>
			</defs>
			<mask maskUnits="userSpaceOnUse" x="15.9" y="144.8" width="116.3" height="116.3" id="SVGID_31_">
				<g class="st55">
				</g>
			</mask>
			<linearGradient id="SVGID_32_" gradientUnits="userSpaceOnUse" x1="79.6559" y1="145.1143" x2="68.3768" y2="261.0335">
				<stop  offset="0" style="stop-color:#000000"/>
				<stop  offset="0.5049" style="stop-color:#FFFFFF"/>
				<stop  offset="0.5347" style="stop-color:#DCDCDC"/>
				<stop  offset="0.5835" style="stop-color:#A9A9A9"/>
				<stop  offset="0.6346" style="stop-color:#7C7C7C"/>
				<stop  offset="0.687" style="stop-color:#565656"/>
				<stop  offset="0.741" style="stop-color:#363636"/>
				<stop  offset="0.7972" style="stop-color:#1E1E1E"/>
				<stop  offset="0.8565" style="stop-color:#0D0D0D"/>
				<stop  offset="0.9209" style="stop-color:#030303"/>
				<stop  offset="1" style="stop-color:#000000"/>
			</linearGradient>
			<path class="st56" d="M132.2,203c0,32-26.1,58.1-58.1,58.1c-23.9,0-44.4-14.5-53.4-35.1c-3.1-7.1-4.8-14.9-4.8-23
				c0-32.1,26.1-58.1,58.1-58.1c9.4,0,18.3,2.2,26.1,6.2C119.1,160.6,132.2,180.3,132.2,203z"/>
		</g>
	</mask>
	<linearGradient id="SVGID_33_" gradientUnits="userSpaceOnUse" x1="79.6559" y1="145.1143" x2="68.3768" y2="261.0335">
		<stop  offset="0" style="stop-color:#FFFFFF"/>
		<stop  offset="0.5049" style="stop-color:#FFFFFF"/>
		<stop  offset="0.5474" style="stop-color:#FFFFFF"/>
		<stop  offset="1" style="stop-color:#FFFFFF"/>
	</linearGradient>
	<path class="st57" d="M132.2,203c0,32-26.1,58.1-58.1,58.1c-23.9,0-44.4-14.5-53.4-35.1c-3.1-7.1-4.8-14.9-4.8-23
		c0-32.1,26.1-58.1,58.1-58.1c9.4,0,18.3,2.2,26.1,6.2C119.1,160.6,132.2,180.3,132.2,203z"/>
	<path class="st58" d="M132.2,203c0,31.2-24.8,56.8-55.7,58.1c29.7-2.6,51.8-27.5,51.8-57.9c0-32.1-24.8-58.1-56.9-58.1
		c-0.9,0-1.8,0-2.6,0.1c1.7-0.2,3.5-0.2,5.2-0.2C106.1,144.8,132.2,170.9,132.2,203z"/>
	<g class="st37">
		<g>
			<path class="st48" d="M121.3,228.2c0,0-1.7,4.1-3.9,5.2c-1.1,0.5-2.1,0.7-3,0.6c0,0,0,0,0,0c-1-0.1-1.7-0.6-2-1.4
				c-0.6-1.5,0.8-3.7,3.1-4.8c0.5-0.2,1.1-0.4,1.7-0.4C119.1,227.3,121.3,228.2,121.3,228.2z"/>
			<path class="st48" d="M109.3,231.6c-0.4,0.3-0.9,0.4-1.5,0.3c-1.1-0.2-2.3-1.2-3.2-2.8c-1.2-2-1.1-5.5-1-6.5c0-0.2,0-0.3,0-0.3
				s3.8,1,5.2,3.3C110.3,228,110.5,230.6,109.3,231.6z"/>
			<path class="st48" d="M115.2,239c0,0-2.2,3.7-4.6,4.4c-0.7,0.2-1.4,0.3-2.1,0.2c-1.5-0.1-2.6-0.8-2.8-2c-0.3-1.6,1.3-3.5,3.7-4.1
				c0.2-0.1,0.4-0.1,0.6-0.1C112.3,237.1,115.2,239,115.2,239z"/>
			<path class="st48" d="M101.9,240.4c-0.3,0.1-0.5,0.1-0.8,0c-1.2-0.4-2.3-2.1-2.7-4.3c-0.4-2.1,0.6-5,1.1-6.2
				c0.1-0.4,0.3-0.6,0.3-0.6s3.2,2.6,3.7,5.4C103.9,237.4,103.3,240,101.9,240.4z"/>
			<path class="st48" d="M125.9,214.1c0,0-1,4.4-3,5.9c-1.3,1-2.6,1.4-3.7,1.3c-0.6-0.1-1.1-0.4-1.4-0.9c-0.8-1.4,0.2-3.8,2.3-5.4
				c1-0.7,2.3-1,3.5-1h0C124.8,214,125.9,214.1,125.9,214.1z"/>
			<path class="st48" d="M115.3,220.3c-0.4,0.7-1.2,1-2.2,0.8c-0.9-0.1-1.9-0.6-2.9-1.4c-2-1.7-2.8-6.1-2.8-6.1s0.3,0,0.8-0.1
				c0.1,0,0.1,0,0.2,0c1.3,0,3.6,0.1,4.9,1.2C115.2,216.5,116.1,219,115.3,220.3z"/>
			<path class="st48" d="M120.9,191.1c-0.9,2.5-2.6,4.1-3.9,3.7h0c-0.1,0-0.1,0-0.2-0.1c-1.3-0.7-1.6-3.3-0.7-5.9
				c0.7-1.9,2.6-3.4,3.7-4.1c0.5-0.3,0.8-0.5,0.8-0.5S121.8,188.5,120.9,191.1z"/>
			<path class="st48" d="M114.9,195.9c-0.4,1-1.5,1.5-2.9,1.4c-0.7-0.1-1.4-0.3-2.2-0.6c-2.3-1.1-3.9-5.2-3.9-5.2s1.6-0.7,3.4-0.7
				c0.9-0.1,1.8,0,2.6,0.4C114.1,192.2,115.5,194.3,114.9,195.9z"/>
			<path class="st48" d="M123.7,205.8c-1.3,1.8-2.9,2.7-4.1,2.5c-0.3-0.1-0.5-0.2-0.7-0.4c-1.1-1.1-0.7-3.7,0.8-5.9
				c1.1-1.6,3.3-2.4,4.5-2.7c0.5-0.2,0.9-0.2,0.9-0.2S125.2,203.6,123.7,205.8z"/>
			<path class="st48" d="M115.7,207.8c-0.4,0.9-1.4,1.2-2.6,1.1c-0.8-0.1-1.7-0.4-2.5-1c-2.1-1.4-3.4-5.7-3.4-5.7s1-0.3,2.3-0.3h0.1
				c1.2-0.1,2.6,0.1,3.6,0.7C115.2,204.1,116.4,206.4,115.7,207.8z"/>
			<path class="st48" d="M115.6,177.5c-0.5,2.4-1.8,4.2-3.1,3.8c0,0-0.1,0-0.1,0c-1.1-0.4-1.7-2.6-1.2-4.9c0.3-1.7,1.8-3.3,2.6-4.2
				c0.4-0.4,0.6-0.6,0.6-0.6S116.1,175.1,115.6,177.5z"/>
			<path class="st48" d="M111.7,184.6c-0.2,1.2-1.6,1.9-3.3,1.7c-0.3,0-0.6-0.1-0.9-0.2c-2.1-0.6-4.1-3.8-4.1-3.8s2-1.3,3.8-1.4
				c0.4-0.1,0.9,0,1.3,0.1C110.5,181.6,112,183.2,111.7,184.6z"/>
			<path class="st48" d="M108.9,168c-0.1,2.2-1.1,3.9-2.2,3.8c-0.1,0-0.3,0-0.4-0.1c-0.9-0.4-1.5-2.1-1.4-4c0.1-1.5,1.1-3.1,1.7-3.9
				c0.3-0.4,0.5-0.6,0.5-0.6S109.1,165.9,108.9,168z"/>
			<path class="st48" d="M106.9,175.2c-0.1,1.3-1.6,2.2-3.5,2c0,0-0.1,0-0.1,0c-1.8-0.2-3.8-2.6-3.8-2.6s1.8-1.7,3.5-2
				c0.2,0,0.4,0,0.6,0C105.5,172.8,106.9,174,106.9,175.2z"/>
			<path class="st48" d="M103.2,168.7c-0.3,0.7-1.1,0.9-2,0.8c-0.6-0.1-1.3-0.4-1.9-0.8c-1.6-1.1-2.5-4.4-2.5-4.4s0.6-0.1,1.4-0.2
				c1-0.1,2.2,0,3.1,0.6C102.9,165.8,103.8,167.6,103.2,168.7z"/>
		</g>
	</g>
	<g class="st37">
		<path class="st59" d="M120.4,228.2c0,0-1.6,4.1-3.9,5.2c-0.7,0.4-1.5,0.6-2.2,0.6c0,0,0,0,0,0c-1-0.1-1.7-0.6-2-1.4
			c-0.6-1.5,0.8-3.7,3.1-4.8c0.5-0.2,1.1-0.4,1.7-0.4C118.8,227.5,120.4,228.2,120.4,228.2z"/>
		<path class="st59" d="M108.4,231.6c-0.2,0.1-0.4,0.3-0.6,0.3c-1.1-0.2-2.3-1.2-3.2-2.8c-1.2-2-1.1-5.5-1-6.5
			c1.2,0.4,3.3,1.4,4.3,3C109.4,228,109.6,230.6,108.4,231.6z"/>
		<path class="st59" d="M114.4,239c0,0-2.2,3.7-4.6,4.4c-0.4,0.1-0.8,0.2-1.2,0.2c-1.5-0.1-2.6-0.8-2.8-2c-0.3-1.6,1.3-3.5,3.7-4.1
			c0.2-0.1,0.4-0.1,0.6-0.1C112.1,237.5,114.4,239,114.4,239z"/>
		<path class="st59" d="M101.1,240.3c-1.2-0.4-2.3-2.1-2.7-4.3c-0.4-2.1,0.6-5,1.1-6.2c1,0.9,2.7,2.8,3.1,4.8
			C103,237.4,102.4,239.9,101.1,240.3z"/>
		<path class="st59" d="M125,214.1c0,0-1,4.4-3,5.9c-0.9,0.7-1.9,1.1-2.8,1.3c-0.6-0.1-1.1-0.4-1.4-0.9c-0.8-1.4,0.2-3.8,2.3-5.4
			c1-0.7,2.3-1,3.5-1h0C124.4,214,125,214.1,125,214.1z"/>
		<path class="st59" d="M114.4,220.3c-0.3,0.5-0.8,0.7-1.3,0.8c-0.9-0.1-1.9-0.6-2.9-1.4c-2-1.7-2.8-6.1-2.8-6.1s0.3,0,0.8-0.1
			c0.1,0,0.1,0,0.2,0c1.3,0.1,3,0.3,4.1,1.2C114.3,216.5,115.2,219,114.4,220.3z"/>
		<path class="st59" d="M120,191.1c-0.7,1.9-1.9,3.3-3,3.7h0c-0.1,0-0.1,0-0.2-0.1c-1.3-0.7-1.6-3.3-0.7-5.9
			c0.7-1.9,2.6-3.4,3.7-4.1C120.1,185.8,120.7,189,120,191.1z"/>
		<path class="st59" d="M114,195.9c-0.3,0.8-1,1.3-2,1.4c-0.7-0.1-1.4-0.3-2.2-0.6c-2.3-1.1-3.9-5.2-3.9-5.2s1.6-0.7,3.4-0.7
			c0.6,0,1.2,0.2,1.7,0.4C113.2,192.2,114.6,194.3,114,195.9z"/>
		<path class="st59" d="M122.8,205.8c-1,1.4-2.2,2.3-3.2,2.5c-0.3-0.1-0.5-0.2-0.7-0.4c-1.1-1.1-0.7-3.7,0.8-5.9
			c1.1-1.6,3.3-2.4,4.5-2.7C124.2,200.2,124.1,203.9,122.8,205.8z"/>
		<path class="st59" d="M114.8,207.8c-0.3,0.6-0.9,1-1.7,1.1c-0.8-0.1-1.7-0.4-2.5-1c-2.1-1.4-3.4-5.7-3.4-5.7s1-0.3,2.3-0.3h0.1
			c0.9,0,1.9,0.2,2.7,0.7C114.3,204.1,115.5,206.4,114.8,207.8z"/>
		<path class="st59" d="M114.7,177.5c-0.4,1.9-1.3,3.4-2.3,3.8c-1.1-0.4-1.7-2.6-1.2-4.9c0.3-1.7,1.8-3.3,2.6-4.2
			C114.3,173.3,115.1,175.7,114.7,177.5z"/>
		<path class="st59" d="M110.8,184.6c-0.2,1-1.2,1.6-2.4,1.7c-0.3,0-0.6-0.1-0.9-0.2c-2.1-0.6-4.1-3.8-4.1-3.8s2-1.3,3.8-1.4
			c0.1,0,0.3,0,0.4,0.1C109.6,181.6,111.1,183.2,110.8,184.6z"/>
		<path class="st59" d="M108.1,168c-0.1,1.8-0.8,3.3-1.7,3.7c-0.9-0.4-1.5-2.1-1.4-4c0.1-1.5,1.1-3.1,1.7-3.9
			C107.3,164.7,108.1,166.5,108.1,168z"/>
		<path class="st59" d="M106,175.2c-0.1,1.1-1.2,1.9-2.7,2c-1.8-0.2-3.8-2.6-3.8-2.6s1.8-1.7,3.5-2C104.7,173,106,174,106,175.2z"/>
		<path class="st59" d="M102.3,168.7c-0.2,0.4-0.6,0.7-1.1,0.8c-0.6-0.1-1.3-0.4-1.9-0.8c-1.6-1.1-2.5-4.4-2.5-4.4s0.6-0.1,1.4-0.2
			c0.8,0,1.6,0.2,2.2,0.6C102,165.8,102.9,167.6,102.3,168.7z"/>
	</g>
	<g class="st37">
		<g>
			<path class="st48" d="M35.4,231.9c-0.6,1.6-2.8,2-5.1,0.8c-0.1,0-0.2-0.1-0.3-0.1c-2.1-1.3-3.7-5.3-3.7-5.3s3.3-1.4,5.5-0.5
				c0.1,0,0.3,0.1,0.4,0.2C34.6,228,36,230.3,35.4,231.9z"/>
			<path class="st48" d="M43.1,228.2c-1.4,2.4-3.5,3.6-4.7,2.6c0,0-0.1-0.1-0.1-0.1c-1.1-1.1-0.8-3.8,0.6-6.2c1-1.7,3.2-2.7,4.4-3.2
				c0.5-0.2,0.8-0.3,0.8-0.3S44.6,225.8,43.1,228.2z"/>
			<path class="st48" d="M42.1,241.2c-0.3,1.7-2.5,2.5-4.9,1.9c-0.4-0.1-0.7-0.3-1.1-0.5c-1.9-1.3-3.6-4-3.6-4s3.4-2.3,5.8-1.6
				c0.3,0.1,0.5,0.2,0.7,0.3C41,237.9,42.3,239.7,42.1,241.2z"/>
			<path class="st48" d="M49.4,235.4c-0.6,2.9-2.1,5-3.5,4.6c-0.2-0.1-0.4-0.2-0.6-0.4c-0.9-0.9-1.3-3.2-0.9-5.6
				c0.4-2.2,2.3-4.3,3.2-5.2c0.3-0.3,0.5-0.5,0.5-0.5S50,232.5,49.4,235.4z"/>
			<path class="st48" d="M30.1,219c-0.7,1.3-2.5,1.3-4.3,0.2c0,0,0,0,0,0c-0.3-0.1-0.5-0.3-0.8-0.5c-2-1.6-3-6.2-3-6.2
				s2.6-0.5,4.7,0.3c0.4,0.2,0.8,0.4,1.2,0.6C29.8,215.1,30.8,217.6,30.1,219z"/>
			<path class="st48" d="M40.4,211.9c0,0-0.9,4.6-2.8,6.4c-1.8,1.5-3.7,1.9-4.7,1c-0.1-0.1-0.3-0.3-0.4-0.4c-0.8-1.4,0.1-4,2.1-5.7
				c1.4-1.2,3.6-1.3,4.9-1.3C40.1,211.9,40.4,211.9,40.4,211.9z"/>
			<path class="st48" d="M31,192c-0.6,0.3-1.2,0.1-1.9-0.3c-0.9-0.6-1.7-1.9-2.2-3.4c-0.9-2.5,0.1-6.4,0.3-7.1c0-0.1,0-0.1,0-0.1
				s3.5,2,4.5,4.8C32.6,188.6,32.3,191.4,31,192z"/>
			<path class="st48" d="M41.9,188.6c0,0-1.7,4.3-3.9,5.5c-1.7,0.9-3.5,0.9-4.4,0.1c-0.3-0.2-0.5-0.5-0.7-0.9
				c-0.6-1.6,0.8-3.9,3.1-5c1.5-0.8,3.8-0.3,5,0.1C41.5,188.5,41.9,188.6,41.9,188.6z"/>
			<path class="st48" d="M28.9,205.9c-0.7,0.7-1.7,0.6-2.8-0.1c-0.7-0.4-1.4-1.2-2.1-2.1c-1.6-2.3-1.4-7.1-1.4-7.1s1.2,0.2,2.5,0.8
				c1.1,0.5,2.2,1.2,2.9,2.2C29.6,202,30,204.8,28.9,205.9z"/>
			<path class="st48" d="M40.7,200c0,0-1.3,4.5-3.4,5.9c-1.7,1.2-3.6,1.4-4.6,0.5c-0.2-0.2-0.4-0.4-0.5-0.7
				c-0.7-1.5,0.5-3.9,2.6-5.4c1.5-1,3.7-0.8,5-0.6C40.3,199.9,40.7,200,40.7,200z"/>
			<path class="st48" d="M35.2,178.1c-0.4,0.1-0.9,0-1.3-0.4c-0.8-0.7-1.4-2-1.7-3.6c-0.4-2.1,0.7-5,1.1-5.9
				c0.1-0.2,0.1-0.3,0.1-0.3s2.8,2.4,3.2,5C37,175.4,36.4,177.7,35.2,178.1z"/>
			<path class="st48" d="M44.4,179.1c0,0-2,3.4-4.1,4c-1.4,0.4-2.7,0.2-3.5-0.4c-0.4-0.3-0.7-0.7-0.8-1.2c-0.3-1.5,1.2-3.2,3.3-3.7
				c1.1-0.3,2.4,0.1,3.5,0.6C43.7,178.7,44.4,179.1,44.4,179.1z"/>
			<path class="st48" d="M41,168.1c-0.3,0-0.7-0.1-1-0.4c-0.6-0.7-1.1-2-1.2-3.5c-0.1-1.7,1-3.8,1.5-4.7c0.2-0.3,0.2-0.4,0.2-0.4
				s2.1,2.5,2.2,4.8C42.9,166.1,42.1,168,41,168.1z"/>
			<path class="st48" d="M48.3,171.1c0,0-2.1,2.6-3.9,2.7c-1,0.1-1.9-0.2-2.6-0.6c-0.5-0.4-0.9-0.9-0.9-1.5
				c-0.1-1.3,1.4-2.5,3.2-2.7c0.5,0,1,0.1,1.5,0.3C47,169.8,48.3,171.1,48.3,171.1z"/>
			<path class="st48" d="M51,160.1c0,0-0.9,3.4-2.5,4.6c-1.4,1-2.9,1.2-3.6,0.4c-0.1-0.1-0.2-0.2-0.3-0.4c-0.6-1.1,0.3-3,1.9-4.2
				c1-0.7,2.6-0.7,3.5-0.6C50.6,160,51,160.1,51,160.1z"/>
		</g>
	</g>
	<g class="st37">
		<path class="st59" d="M34.5,231.4c-0.5,1.5-2.4,1.9-4.5,1.1c-2.1-1.3-3.7-5.3-3.7-5.3s3.3-1.4,5.5-0.5
			C33.9,227.9,35.1,229.9,34.5,231.4z"/>
		<path class="st59" d="M42.3,227.8c-1.1,2-2.7,3.1-3.9,2.9c-1.1-1.1-0.8-3.8,0.6-6.2c1-1.7,3.2-2.7,4.4-3.2
			C43.4,222.7,43.3,225.9,42.3,227.8z"/>
		<path class="st59" d="M41.2,240.7c-0.3,1.7-2.5,2.5-4.9,1.9c-0.1,0-0.1,0-0.2-0.1c-1.9-1.3-3.6-4-3.6-4s3.4-2.3,5.8-1.6
			c0.3,0.1,0.5,0.2,0.7,0.3C40.5,238,41.4,239.5,41.2,240.7z"/>
		<path class="st59" d="M48.6,235c-0.5,2.8-2,4.7-3.3,4.6c-0.9-0.9-1.3-3.2-0.9-5.6c0.4-2.2,2.3-4.3,3.2-5.2
			C48.1,230.2,49,232.9,48.6,235z"/>
		<path class="st59" d="M29.2,218.6c-0.6,1.1-2,1.3-3.5,0.7c0,0,0,0,0,0c-0.3-0.1-0.5-0.3-0.8-0.5c-2-1.6-3-6.2-3-6.2
			s2.6-0.5,4.7,0.3c0.1,0.1,0.2,0.1,0.3,0.2C28.9,214.6,30,217.1,29.2,218.6z"/>
		<path class="st59" d="M39.5,211.9c-0.3,1.1-1.1,4.5-2.7,6c-1.3,1.2-2.8,1.7-3.9,1.5c-0.1-0.1-0.3-0.3-0.4-0.4
			c-0.8-1.4,0.1-4,2.1-5.7C35.9,212,38.2,211.9,39.5,211.9z"/>
		<path class="st59" d="M30.1,191.6c-0.3,0.2-0.7,0.2-1,0.1c-0.9-0.6-1.7-1.9-2.2-3.4c-0.9-2.5,0.1-6.4,0.3-7.1
			c1.1,0.8,3,2.3,3.6,4.2C31.7,188.1,31.5,190.9,30.1,191.6z"/>
		<path class="st59" d="M41,188.3c-0.3,0.7-1.8,4.3-3.9,5.3c-1.3,0.7-2.6,0.8-3.6,0.6c-0.3-0.2-0.5-0.5-0.7-0.9
			c-0.6-1.6,0.8-3.9,3.1-5C37.5,187.4,39.7,187.9,41,188.3z"/>
		<path class="st59" d="M28,205.5c-0.5,0.5-1.1,0.6-1.9,0.3c-0.7-0.4-1.4-1.2-2.1-2.1c-1.6-2.3-1.4-7.1-1.4-7.1s1.2,0.2,2.5,0.8
			c0.8,0.4,1.6,1.1,2.1,1.8C28.8,201.6,29.1,204.4,28,205.5z"/>
		<path class="st59" d="M39.7,199.8c-0.3,0.9-1.5,4.4-3.4,5.7c-1.3,0.9-2.7,1.2-3.7,1c-0.2-0.2-0.4-0.4-0.5-0.7
			c-0.7-1.5,0.5-3.9,2.6-5.4C36.2,199.4,38.5,199.6,39.7,199.8z"/>
		<path class="st59" d="M34.3,177.6c-0.2,0-0.3,0.1-0.5,0c-0.8-0.7-1.4-2-1.7-3.6c-0.4-2.1,0.7-5,1.1-5.9c0.9,0.9,2.2,2.5,2.5,4.2
			C36.2,174.9,35.6,177.3,34.3,177.6z"/>
		<path class="st59" d="M43.5,178.7c0,0-2,3.4-4.1,4c-0.9,0.3-1.9,0.3-2.6,0c-0.4-0.3-0.7-0.7-0.8-1.2c-0.3-1.5,1.2-3.2,3.3-3.7
			c1.1-0.3,2.4,0.1,3.5,0.6C43.3,178.5,43.5,178.7,43.5,178.7z"/>
		<path class="st59" d="M40.1,167.6H40c-0.6-0.7-1.1-2-1.2-3.5c-0.1-1.7,1-3.8,1.5-4.7c0.6,0.9,1.5,2.5,1.6,3.9
			C42,165.6,41.2,167.5,40.1,167.6z"/>
		<path class="st59" d="M47.5,170.6c0,0-2.1,2.6-3.9,2.7c-0.6,0.1-1.2,0-1.7-0.2c-0.5-0.4-0.9-0.9-0.9-1.5c-0.1-1.3,1.4-2.5,3.2-2.7
			c0.5,0,1,0.1,1.5,0.3C46.7,169.9,47.5,170.6,47.5,170.6z"/>
		<path class="st59" d="M50,160c-0.2,0.8-1.1,3.4-2.4,4.3c-1,0.7-2,1-2.8,0.9c-0.1-0.1-0.2-0.2-0.3-0.4c-0.6-1.1,0.3-3,1.9-4.2
			C47.5,159.9,49,159.9,50,160z"/>
	</g>
	<g class="st37">
		<linearGradient id="SVGID_34_" gradientUnits="userSpaceOnUse" x1="155.6533" y1="-41.6158" x2="58.035" y2="109.1366">
			<stop  offset="0.1569" style="stop-color:#13589C"/>
			<stop  offset="0.5251" style="stop-color:#13579A"/>
			<stop  offset="0.6822" style="stop-color:#125393"/>
			<stop  offset="0.799" style="stop-color:#104C86"/>
			<stop  offset="0.8959" style="stop-color:#0E4275"/>
			<stop  offset="0.9797" style="stop-color:#0B355E"/>
			<stop  offset="1" style="stop-color:#0A3157"/>
		</linearGradient>
		<polygon class="st60" points="93.1,7.7 66.2,137 70.6,137 100.9,7.7 		"/>
		<linearGradient id="SVGID_35_" gradientUnits="userSpaceOnUse" x1="70.6228" y1="72.3774" x2="127.1074" y2="72.3774">
			<stop  offset="0" style="stop-color:#C8C8C8"/>
			<stop  offset="0.5343" style="stop-color:#FFFFFF"/>
			<stop  offset="1" style="stop-color:#C8C8C8"/>
		</linearGradient>
		<polygon class="st61" points="100.9,7.7 70.6,137 76.4,137 110,7.7 		"/>
		<polygon class="st2" points="110,7.7 76.4,137 78.9,137 118,7.7 		"/>
		<linearGradient id="SVGID_36_" gradientUnits="userSpaceOnUse" x1="167.9639" y1="-41.1784" x2="69.9543" y2="110.1782">
			<stop  offset="0.1569" style="stop-color:#13589C"/>
			<stop  offset="0.5251" style="stop-color:#13579A"/>
			<stop  offset="0.6822" style="stop-color:#125393"/>
			<stop  offset="0.799" style="stop-color:#104C86"/>
			<stop  offset="0.8959" style="stop-color:#0E4275"/>
			<stop  offset="0.9797" style="stop-color:#0B355E"/>
			<stop  offset="1" style="stop-color:#0A3157"/>
		</linearGradient>
		<polygon class="st62" points="110,7.7 76.4,137 78.9,137 118,7.7 		"/>
	</g>
	<path class="st63" d="M132.2,203c0,32-26.1,58.1-58.1,58.1c-1.6,0-3.2-0.1-4.7-0.2C47.5,259.2,29,245.3,20.7,226
		c86.3,20.1,81.3-59,79.7-73.1c0,0,0.4-1.3,0.4-1.6c10.6,5.3,18.7,13.5,24.4,23.9C129.6,183.5,132.2,193,132.2,203z"/>
	<path class="st64" d="M132.2,203c0,32-26.1,58.1-58.1,58.1c-1.6,0-3.2-0.1-4.7-0.2c39.4-13.7,51.4-55.7,55-79.4l2.7-2.5
		C130.2,186.4,132.2,193,132.2,203z"/>
	<defs>
		<filter id="Adobe_OpacityMaskFilter_12_" filterUnits="userSpaceOnUse" x="12.9" y="163" width="105.6" height="92.5">
			<feFlood  style="flood-color:white;flood-opacity:1" result="back"/>
			<feBlend  in="SourceGraphic" in2="back" mode="normal"/>
		</filter>
	</defs>
	<mask maskUnits="userSpaceOnUse" x="12.9" y="163" width="105.6" height="92.5" id="SVGID_37_" class="st37">
		<g style="filter:url(#Adobe_OpacityMaskFilter_12_);">
			<defs>
				<filter id="Adobe_OpacityMaskFilter_13_" filterUnits="userSpaceOnUse" x="12.9" y="163" width="105.6" height="92.5">
					<feFlood  style="flood-color:white;flood-opacity:1" result="back"/>
					<feBlend  in="SourceGraphic" in2="back" mode="normal"/>
				</filter>
			</defs>
			<mask maskUnits="userSpaceOnUse" x="12.9" y="163" width="105.6" height="92.5" id="SVGID_37_">
				<g class="st66">
				</g>
			</mask>
			<linearGradient id="SVGID_38_" gradientUnits="userSpaceOnUse" x1="110.6339" y1="250.8907" x2="24.4491" y2="173.0129">
				<stop  offset="0" style="stop-color:#000000"/>
				<stop  offset="1" style="stop-color:#FFFFFF"/>
			</linearGradient>
			<path class="st67" d="M118.5,246.6c-3.3,3.4-7,6.4-11,9l-0.7-2.8l-0.4-1.5l-3.2,0.4l-7.7-6.9l-75.4-63.4l-1.7-6.4l-5.5,1.8
				c0.3-0.6,0.6-1.2,0.8-1.7c0.5-1,1-2,1.5-3c1.3-2.6,2.9-5,4.6-7.3l6.5-1.6l0.3,6.4l73,60l2.1,1.9l0,0h0l2.9,2.6l4.1,3.7h0l3.9,3.6
				l0.5,0.4l0.6,0.6l3.1,0l0.2,0.6L118.5,246.6z"/>
		</g>
	</mask>
	<linearGradient id="SVGID_39_" gradientUnits="userSpaceOnUse" x1="110.6339" y1="250.8907" x2="24.4491" y2="173.0129">
		<stop  offset="0" style="stop-color:#FFFFFF"/>
		<stop  offset="1" style="stop-color:#FFFFFF"/>
	</linearGradient>
	<path class="st68" d="M118.5,246.6c-3.3,3.4-7,6.4-11,9l-0.7-2.8l-0.4-1.5l-3.2,0.4l-7.7-6.9l-75.4-63.4l-1.7-6.4l-5.5,1.8
		c0.3-0.6,0.6-1.2,0.8-1.7c0.5-1,1-2,1.5-3c1.3-2.6,2.9-5,4.6-7.3l6.5-1.6l0.3,6.4l73,60l2.1,1.9l0,0h0l2.9,2.6l4.1,3.7h0l3.9,3.6
		l0.5,0.4l0.6,0.6l3.1,0l0.2,0.6L118.5,246.6z"/>
	<defs>
		<filter id="Adobe_OpacityMaskFilter_14_" filterUnits="userSpaceOnUse" x="24.6" y="153.8" width="102.1" height="88.1">
			<feFlood  style="flood-color:white;flood-opacity:1" result="back"/>
			<feBlend  in="SourceGraphic" in2="back" mode="normal"/>
		</filter>
	</defs>
	<mask maskUnits="userSpaceOnUse" x="24.6" y="153.8" width="102.1" height="88.1" id="SVGID_40_" class="st37">
		<g style="filter:url(#Adobe_OpacityMaskFilter_14_);">
			<defs>
				<filter id="Adobe_OpacityMaskFilter_15_" filterUnits="userSpaceOnUse" x="24.6" y="153.8" width="102.1" height="88.1">
					<feFlood  style="flood-color:white;flood-opacity:1" result="back"/>
					<feBlend  in="SourceGraphic" in2="back" mode="normal"/>
				</filter>
			</defs>
			<mask maskUnits="userSpaceOnUse" x="24.6" y="153.8" width="102.1" height="88.1" id="SVGID_40_">
				<g class="st70">
				</g>
			</mask>
			<linearGradient id="SVGID_41_" gradientUnits="userSpaceOnUse" x1="109.7445" y1="228.8526" x2="49.3162" y2="170.2475">
				<stop  offset="0" style="stop-color:#000000"/>
				<stop  offset="1" style="stop-color:#FFFFFF"/>
			</linearGradient>
			<path class="st71" d="M126.8,236.2c-1.3,2-2.6,3.9-4.1,5.7l-1.7-4.4l-0.1-0.2l-3.3,0l-86.5-73.5l-0.6-5.4l-5.8,0.2
				c0.3-0.2,0.5-0.5,0.7-0.7c0.7-0.7,1.5-1.5,2.2-2.2c0.5-0.5,1.1-1,1.7-1.5l6.6-0.5l-0.1,5.2l84.5,71.3l1.1,1l3.1-0.1l0.4,0
				L126.8,236.2z"/>
		</g>
	</mask>
	<linearGradient id="SVGID_42_" gradientUnits="userSpaceOnUse" x1="109.7445" y1="228.8526" x2="49.3162" y2="170.2475">
		<stop  offset="0" style="stop-color:#FFFFFF"/>
		<stop  offset="1" style="stop-color:#FFFFFF"/>
	</linearGradient>
	<path class="st72" d="M126.8,236.2c-1.3,2-2.6,3.9-4.1,5.7l-1.7-4.4l-0.1-0.2l-3.3,0l-86.5-73.5l-0.6-5.4l-5.8,0.2
		c0.3-0.2,0.5-0.5,0.7-0.7c0.7-0.7,1.5-1.5,2.2-2.2c0.5-0.5,1.1-1,1.7-1.5l6.6-0.5l-0.1,5.2l84.5,71.3l1.1,1l3.1-0.1l0.4,0
		L126.8,236.2z"/>
</g>
<g class="st36">
	<g class="st37">
		
			<linearGradient id="SVGID_43_" gradientUnits="userSpaceOnUse" x1="282.1191" y1="59.5664" x2="126.7891" y2="-197.0656" gradientTransform="matrix(-1 0 0 1 352.3229 0)">
			<stop  offset="0" style="stop-color:#003D14"/>
			<stop  offset="1" style="stop-color:#238500"/>
		</linearGradient>
		<polygon class="st73" points="45.1,7.7 75.4,137 79.8,137 53,7.7 		"/>
		<linearGradient id="SVGID_44_" gradientUnits="userSpaceOnUse" x1="87.6918" y1="127.0316" x2="-28.4627" y2="-82.2839">
			<stop  offset="0" style="stop-color:#8E8E8E"/>
			<stop  offset="0.5343" style="stop-color:#FFFFFF"/>
			<stop  offset="1" style="stop-color:#C8C8C8"/>
		</linearGradient>
		<polygon class="st74" points="36,7.7 69.6,137 75.4,137 45.1,7.7 		"/>
		<polygon class="st75" points="27.6,7.7 65.6,137 69.6,137 36,7.7 		"/>
		
			<linearGradient id="SVGID_45_" gradientUnits="userSpaceOnUse" x1="284.7093" y1="40.9445" x2="127.7079" y2="-218.4489" gradientTransform="matrix(-1 0 0 1 352.3229 0)">
			<stop  offset="0" style="stop-color:#003D14"/>
			<stop  offset="1" style="stop-color:#238500"/>
		</linearGradient>
		<polygon class="st76" points="27.6,7.7 65.6,137 69.6,137 36,7.7 		"/>
	</g>
	<path class="st77" d="M126.1,179.8L126.1,179.8c-2.3-5.7-5.3-10.9-9-15.7c0,0,0-0.1,0-0.1c-0.3-0.3-0.5-0.6-0.7-0.9
		c0,0-0.1-0.1-0.1-0.1c-7.9-9.7-18.5-16.9-30.8-20.5c-0.4-0.2-0.9-0.3-1.4-0.4c-0.8-0.2-1.5-0.4-2.3-0.6l0.7,0l0.3,0l0.3,0l0.9,0
		l1.2,0c0-0.1,0.1-0.5,0.2-1.3c0.1-1.1-0.8-4.8-2.3-7.6v0c0,0,0,0,0,0c-0.3-0.5-0.5-0.9-0.8-1.3c0,0,0-0.1,0-0.1
		c-2.4-3.6-6.3-4.5-9.5-4.5c-3.6,0-8.3,1.2-10.7,3.7c-4.8,4.9-5.2,8.2-5.3,10.5v0.1c-8.9,1.7-16.9,5.2-23.8,10.2
		c-1.3,0.9-2.6,1.9-3.8,3c-0.6,0.5-1.1,1-1.7,1.5c-0.8,0.7-1.5,1.4-2.2,2.2c-0.2,0.2-0.4,0.4-0.7,0.7h0c-0.5,0.5-1,1-1.4,1.6
		c-1.2,1.4-2.4,2.9-3.5,4.4c-1.7,2.3-3.2,4.7-4.6,7.3c-0.5,1-1,2-1.5,3c-0.3,0.6-0.5,1.2-0.8,1.7c-3.4,8-5.3,16.8-5.3,26.2
		c0,28.6,19.5,51.4,45.5,58.7c5.7,1.6,11.7,2.5,17.9,2.5c13.1,0,24.9-3.8,34.4-10.4c0.4-0.3,0.9-0.6,1.3-0.9
		c3.4-2.5,6.4-5.3,9.2-8.5c0.4-0.4,0.8-0.9,1.1-1.3c1-1.2,1.9-2.4,2.7-3.6c0.4-0.6,0.8-1.2,1.2-1.8c0.4-0.6,0.8-1.2,1.1-1.9
		c0-0.1,0.1-0.1,0.1-0.2c0.4-0.7,0.8-1.5,1.2-2.3c0.3-0.7,0.7-1.3,1-2c3.9-8.3,6.1-17.8,6.1-28C130.6,194.9,129,187,126.1,179.8z
		 M62.6,135.8c0.3-1.2,0.6-0.6,1.1-0.2c0.3,0.2,0.7,0.4,1.2-0.3c0.3-0.4,0.6-0.8,0.9-1.1c1.4-1.4,3.1-2.1,5.2-2.1
		c1.2,0,2.3,0.2,3.2,0.7c0.4,0.2,0.7,0.4,1.1,0.6c0.1,0.1,0.2,0.2,0.3,0.3c0.2,0.1,4.4,3.7,4.3,6.2c-0.2,0-0.4-0.1-0.6-0.1
		c-3.6-0.6-7.6-0.6-11.3-0.2c-1.3,0.1-2.4,0.3-3.6,0.5c-0.5,0.1-1.1,0.1-1.6,0.2c-0.2,0-0.5,0.1-0.7,0.1
		C62.1,139.1,62.2,137.5,62.6,135.8z"/>
	<path class="st78" d="M82.8,141.5c0,0-3.1-1.8-2.9-1.7c0.1-2.5-4.1-6.1-4.3-6.3c-0.4-0.4-0.9-0.6-1.4-0.9c0.9-0.4,2.3,0,3.1,0.2
		l0.7,0.7C79.6,136.1,84.2,137.7,82.8,141.5z"/>
	<path class="st79" d="M85.9,146.1c0.1,0-6.4,0-6.4,0l-15.3,0.8l-1.4-6.6c1.7-0.2,3.4-0.5,5.2-0.7c3.9-0.4,8.2-0.4,11.9,0.3
		c0,0,4.5,2.9,4.6,3.1C85.4,145,85.8,146,85.9,146.1z"/>
	<path class="st80" d="M83.1,132.7L83.1,132.7c0,0.2-5.7-1.6-5.7-1.6l-10,1.4l-1.5,0.2l-1,2.6l-1.2,0.3l-1.1,0.3l-2.8,7.1l-0.8-0.5
		l-2.2-1.4c0-2.3,0.4-5.6,5.2-10.5c1-1,2.4-1.9,4-2.5c2.2-0.8,4.6-1.2,6.7-1.2c2.6,0,5.7,0.6,8.1,2.8c0.5,0.5,1,1,1.4,1.6
		C82.5,131.7,82.8,132.2,83.1,132.7C83,132.7,83,132.7,83.1,132.7z"/>
	<path class="st81" d="M87.4,142.1c0-1.9-0.3-4.5-2.7-7.9c-0.7-0.9-1.5-1.9-2.5-2.9c-2.4-2.4-5.4-3.3-9-3.3c-2,0-3.9,0.4-5.5,1.2
		l0,0c-1.3,0.6-2.4,1.4-3.4,2.5c-5,5.1-5.2,9.1-5.2,10.8v0.1c-8.6,2.1-16.4,6-23.2,11.3c-1.9,1.4-3.7,3-5.3,4.7
		c-1.5,1.5-2.9,3-4.2,4.6c-3,3.6-5.7,7.6-7.8,11.9c-4.3,8.4-6.7,18-6.7,28.1c0,27.1,17.3,50.1,41.4,58.7c6.5,2.3,13.6,3.6,20.9,3.6
		c12.3,0,23.8-3.6,33.4-9.7c4-2.6,7.7-5.6,11-9c1.5-1.5,2.9-3.1,4.2-4.7c1.5-1.8,2.9-3.7,4.1-5.7c6.1-9.6,9.6-21,9.6-33.2
		C136.3,173.2,115.4,148.2,87.4,142.1z M74,140.7c-3.3,0-6.6,0.3-9.8,0.8c0-0.6,0.1-1,0.2-1.5c0.3-1.4,1-2.1,2.6-3.7
		c0.3-0.3,0.7-0.7,1-1.1c1.4-1.4,3.1-2.1,5.2-2.1c0.7,0,1.4,0,2.1,0.1c1.2,0.2,2.3,0.6,3.2,1.6c0.7,0.7,1.3,1.4,1.7,1.9
		c1.3,1.7,1.7,2.9,1.9,4.4C79.5,140.9,76.8,140.7,74,140.7z"/>
	<path class="st78" d="M84.7,134.2l-4.5,2.6c-0.4-0.6-1-1.2-1.7-1.9c-0.9-0.9-2-1.4-3.2-1.6c-0.6-0.1-1.3-0.1-2.1-0.1
		c-2.1,0-3.9,0.7-5.2,2.1c-0.4,0.4-0.7,0.7-1,1.1l0.4-3.9l0.3-3.3l0,0c0-0.1-0.9-0.6-1.6-1.1c2.2-0.8,4.6-1.2,6.7-1.2
		c2.6,0,5.7,0.6,8.1,2.8c0.4,0.6,0.9,1.1,1.4,1.6C83.2,132.3,84,133.3,84.7,134.2z"/>
	<g class="st37">
		<path class="st82" d="M74,261.1C42,261.1,15.9,235,15.9,203c0-32.1,26.1-58.1,58.1-58.1c32.1,0,58.1,26.1,58.1,58.1
			C132.2,235,106.1,261.1,74,261.1z"/>
	</g>
	<g class="st37">
		<g>
			<g>
				<path class="st83" d="M87.9,197c-0.7-0.2-1.4-0.4-2.2-0.5v-0.6c1.6-0.5,3.2-1,4.6-1.7c1.7-0.8,3.1-1.9,4.4-3.1
					c2.5-2.4,4-5.6,4-9.3c0-4.7-3-8.5-6.2-10.7c-4-2.7-9.3-3.5-16.4-3.5c-7.4,0-14.3,1.2-18.9,3.1c0,0.5-2.2,2.2-2.2,2.7
					c-0.3,4.5,1.6,8,1.4,12.6c1.4,0.2,2.5,1.1,3.7,2c1.1,0.8,2.3,1.6,3.7,1.8c0.3,0,1.9-2.8,2.2-2.7l1.7-7.4l0.3-1.2
					c0.1-0.4,0.2-0.6,0.5-0.8c0.1,0,0.1-0.1,0.2-0.1c1.3-0.9,3.2-1.3,5.1-1.3c2.8,0,5.1,0.3,6.9,2.3c1.3,1.3,1.8,3.3,1.8,5.1
					c0,2.8-0.8,5.1-3.1,6.9c-2.7,2.1-7.4,3.4-15.2,3.4c0,0.4-2.2,2.3-2.2,2.7c0,2.5,2.3,3.7,2.5,6.1h5.4c7.6,0,13.2,3.2,13.2,9.7
					c0,1.7-0.4,3.3-1.2,4.7c-0.4,0.7-0.9,1.4-1.6,2c-0.1,0.1-0.2,0.2-0.4,0.3c-1.8,1.4-4.6,2.2-8.1,2.2c-1.3,0-3.2-0.4-4.1-0.9
					c-0.3-0.2-0.6-0.4-0.7-0.9l-2.2-9c-0.1,0-0.2,0-0.3,0.1c-3.2,0.5-6.6,1-9.6,1.6c0,0.5-2.3,2.2-2.2,2.7c0.5,5,3.5,8.7,4.2,13.8
					c3.9,0.9,9.4,1.1,13,1.1c10,0,18-1.7,22.3-5c0.7-0.5,1.3-1,2-1.6c0.5-0.4,1-0.9,1.4-1.3c2.7-2.8,4.7-6.3,4.7-11.4
					C100.2,205.2,96.3,199.3,87.9,197z"/>
			</g>
			<path class="st84" d="M68.6,177.4c-0.1,0-0.1,0.1-0.2,0.1c-0.3,0.2-0.4,0.4-0.5,0.8l-0.3,1.2L66,187c-0.3,0-1.9,2.8-2.2,2.7
				c-1.4-0.1-2.5-0.9-3.7-1.8c1.1-4.1,4.8-9.4,6.7-10.3L68.6,177.4C68.6,177.4,68.6,177.4,68.6,177.4z"/>
			<path class="st84" d="M100.2,210.9c0,5-1.9,8.6-4.7,11.4c-0.5,0.5-0.9,0.9-1.4,1.3c-1.2-2.3-0.8-4.8-0.4-7.2
				c1-5.8-4.6-9.2-8.6-12.2c-1.8-1.4-4.2-3.1-3.5-5.7c0.4-1.6,1.8-2.7,3.2-3.2c1.6-0.5,3.6-0.9,5.6-1.1c-1.4,0.7-3,1.3-4.6,1.7v0.6
				c0.8,0.1,1.5,0.3,2.2,0.5C96.3,199.3,100.2,205.2,100.2,210.9z"/>
			<path class="st84" d="M82.3,219.4c-0.2,6.8-8.3,9.8-14,8.7c-2.1-0.4-5.6-1.3-6.8-3.3c-0.8-1.3-0.1-2.6,0.1-3.9
				c0.4-2.6-0.6-5.3,0.9-7.2c0.1-0.2,0.3-0.3,0.5-0.5c0.7-0.6,1-1.5,1.6-2.2c0.1,0,0.2,0,0.3-0.1l2.2,9c0.1,0.5,0.4,0.7,0.7,0.9
				c1,0.5,2.8,0.9,4.1,0.9c3.6,0,6.3-0.8,8.1-2.2c0.1-0.1,0.3-0.2,0.4-0.3c0.7-0.6,1.2-1.3,1.6-2C82.2,217.9,82.3,218.6,82.3,219.4z
				"/>
			<g>
				<g>
					<path class="st85" d="M83.5,199.2v-0.6c1.6-0.4,3.1-1,4.4-1.6c2.9-1.4,5.3-3.4,6.8-5.9c1.2-1.9,1.8-4.1,1.8-6.6
						c0-4.7-3-8.5-6.2-10.7c-4-2.7-9.3-3.5-16.4-3.5c-7.4,0-14.3,1.2-18.9,3.1c-0.4,5-0.6,10.2-0.8,15.3c3.1,0.5,6.4,0.8,9.6,1.1
						l2-8.6c0.1-0.4,0.2-0.6,0.5-0.8c0.4-0.3,0.9-0.6,1.5-0.8c1.1-0.4,2.5-0.6,3.9-0.6c2.8,0,5.1,0.3,6.9,2.3
						c1.3,1.3,1.8,3.3,1.8,5.1c0,1.5-0.2,2.9-0.8,4.2c-1.8,3.7-6.6,6.1-17.4,6.2c0,2.8,0.1,6,0.3,8.9h5.3c7.7,0,13.2,3.2,13.2,9.7
						c0,1.5-0.3,3-0.9,4.3c-0.4,0.9-1.1,1.7-1.8,2.4c-1.8,1.6-4.7,2.5-8.5,2.5c-1.3,0-3.2-0.4-4.1-0.9c-0.3-0.2-0.6-0.4-0.7-0.9
						l-2.2-9c0,0-0.1,0-0.1,0c-3.3,0.5-6.8,1-9.8,1.6c0.6,5.4,1.2,11,2,16.5c3.9,0.9,9.4,1.1,13,1.1c10,0,18-1.7,22.3-5
						c2.1-1.6,4.1-3.4,5.6-5.6c1.5-2.3,2.5-5.1,2.5-8.6C98,207.5,93.4,201.1,83.5,199.2z"/>
				</g>
			</g>
		</g>
	</g>
	<defs>
		<filter id="Adobe_OpacityMaskFilter_16_" filterUnits="userSpaceOnUse" x="15.9" y="144.8" width="116.3" height="116.3">
			<feFlood  style="flood-color:white;flood-opacity:1" result="back"/>
			<feBlend  in="SourceGraphic" in2="back" mode="normal"/>
		</filter>
	</defs>
	<mask maskUnits="userSpaceOnUse" x="15.9" y="144.8" width="116.3" height="116.3" id="SVGID_46_" class="st37">
		<g style="filter:url(#Adobe_OpacityMaskFilter_16_);">
			<defs>
				<filter id="Adobe_OpacityMaskFilter_17_" filterUnits="userSpaceOnUse" x="15.9" y="144.8" width="116.3" height="116.3">
					<feFlood  style="flood-color:white;flood-opacity:1" result="back"/>
					<feBlend  in="SourceGraphic" in2="back" mode="normal"/>
				</filter>
			</defs>
			<mask maskUnits="userSpaceOnUse" x="15.9" y="144.8" width="116.3" height="116.3" id="SVGID_46_">
				<g class="st87">
				</g>
			</mask>
			<linearGradient id="SVGID_47_" gradientUnits="userSpaceOnUse" x1="29.0096" y1="239.5259" x2="118.5577" y2="166.8119">
				<stop  offset="0" style="stop-color:#000000"/>
				<stop  offset="0.1621" style="stop-color:#020202"/>
				<stop  offset="0.2313" style="stop-color:#090909"/>
				<stop  offset="0.2828" style="stop-color:#161616"/>
				<stop  offset="0.3255" style="stop-color:#272727"/>
				<stop  offset="0.3628" style="stop-color:#3F3F3F"/>
				<stop  offset="0.3963" style="stop-color:#5B5B5B"/>
				<stop  offset="0.427" style="stop-color:#7D7D7D"/>
				<stop  offset="0.4554" style="stop-color:#A5A5A5"/>
				<stop  offset="0.4811" style="stop-color:#D0D0D0"/>
				<stop  offset="0.5049" style="stop-color:#FFFFFF"/>
				<stop  offset="0.5347" style="stop-color:#DCDCDC"/>
				<stop  offset="0.5835" style="stop-color:#A9A9A9"/>
				<stop  offset="0.6346" style="stop-color:#7C7C7C"/>
				<stop  offset="0.687" style="stop-color:#565656"/>
				<stop  offset="0.741" style="stop-color:#363636"/>
				<stop  offset="0.7972" style="stop-color:#1E1E1E"/>
				<stop  offset="0.8565" style="stop-color:#0D0D0D"/>
				<stop  offset="0.9209" style="stop-color:#030303"/>
				<stop  offset="1" style="stop-color:#000000"/>
			</linearGradient>
			<path class="st88" d="M74,261.1C42,261.1,15.9,235,15.9,203c0-32.1,26.1-58.1,58.1-58.1c32.1,0,58.1,26.1,58.1,58.1
				C132.2,235,106.1,261.1,74,261.1z"/>
		</g>
	</mask>
	<linearGradient id="SVGID_48_" gradientUnits="userSpaceOnUse" x1="29.0096" y1="239.5259" x2="118.5577" y2="166.8119">
		<stop  offset="0" style="stop-color:#E6E6E6"/>
		<stop  offset="0.431" style="stop-color:#E6E6E6"/>
		<stop  offset="0.5049" style="stop-color:#E6E6E6"/>
		<stop  offset="0.5071" style="stop-color:#E5E4E4"/>
		<stop  offset="0.5589" style="stop-color:#D0B1BD"/>
		<stop  offset="0.6128" style="stop-color:#BD849B"/>
		<stop  offset="0.6683" style="stop-color:#AD5E7D"/>
		<stop  offset="0.7255" style="stop-color:#A13E66"/>
		<stop  offset="0.785" style="stop-color:#972653"/>
		<stop  offset="0.8478" style="stop-color:#901546"/>
		<stop  offset="0.9161" style="stop-color:#8B0B3E"/>
		<stop  offset="1" style="stop-color:#8A083C"/>
	</linearGradient>
	<path class="st89" d="M74,261.1C42,261.1,15.9,235,15.9,203c0-32.1,26.1-58.1,58.1-58.1c32.1,0,58.1,26.1,58.1,58.1
		C132.2,235,106.1,261.1,74,261.1z"/>
	<defs>
		<filter id="Adobe_OpacityMaskFilter_18_" filterUnits="userSpaceOnUse" x="15.9" y="144.8" width="116.3" height="116.3">
			<feFlood  style="flood-color:white;flood-opacity:1" result="back"/>
			<feBlend  in="SourceGraphic" in2="back" mode="normal"/>
		</filter>
	</defs>
	<mask maskUnits="userSpaceOnUse" x="15.9" y="144.8" width="116.3" height="116.3" id="SVGID_49_" class="st37">
		<g style="filter:url(#Adobe_OpacityMaskFilter_18_);">
			<defs>
				<filter id="Adobe_OpacityMaskFilter_19_" filterUnits="userSpaceOnUse" x="15.9" y="144.8" width="116.3" height="116.3">
					<feFlood  style="flood-color:white;flood-opacity:1" result="back"/>
					<feBlend  in="SourceGraphic" in2="back" mode="normal"/>
				</filter>
			</defs>
			<mask maskUnits="userSpaceOnUse" x="15.9" y="144.8" width="116.3" height="116.3" id="SVGID_49_">
				<g class="st91">
				</g>
			</mask>
			<linearGradient id="SVGID_50_" gradientUnits="userSpaceOnUse" x1="79.656" y1="145.1143" x2="68.3769" y2="261.0335">
				<stop  offset="0" style="stop-color:#000000"/>
				<stop  offset="0.5049" style="stop-color:#FFFFFF"/>
				<stop  offset="0.5347" style="stop-color:#DCDCDC"/>
				<stop  offset="0.5835" style="stop-color:#A9A9A9"/>
				<stop  offset="0.6346" style="stop-color:#7C7C7C"/>
				<stop  offset="0.687" style="stop-color:#565656"/>
				<stop  offset="0.741" style="stop-color:#363636"/>
				<stop  offset="0.7972" style="stop-color:#1E1E1E"/>
				<stop  offset="0.8565" style="stop-color:#0D0D0D"/>
				<stop  offset="0.9209" style="stop-color:#030303"/>
				<stop  offset="1" style="stop-color:#000000"/>
			</linearGradient>
			<path class="st92" d="M132.2,203c0,32-26.1,58.1-58.1,58.1c-23.9,0-44.4-14.5-53.4-35.1c-3.1-7.1-4.8-14.9-4.8-23
				c0-32.1,26.1-58.1,58.1-58.1c9.4,0,18.3,2.2,26.1,6.2C119.1,160.6,132.2,180.3,132.2,203z"/>
		</g>
	</mask>
	<linearGradient id="SVGID_51_" gradientUnits="userSpaceOnUse" x1="79.656" y1="145.1143" x2="68.3769" y2="261.0335">
		<stop  offset="0" style="stop-color:#E6E6E6"/>
		<stop  offset="0.5049" style="stop-color:#E6E6E6"/>
		<stop  offset="0.5474" style="stop-color:#E6E6E6"/>
		<stop  offset="1" style="stop-color:#E6E6E6"/>
	</linearGradient>
	<path class="st93" d="M132.2,203c0,32-26.1,58.1-58.1,58.1c-23.9,0-44.4-14.5-53.4-35.1c-3.1-7.1-4.8-14.9-4.8-23
		c0-32.1,26.1-58.1,58.1-58.1c9.4,0,18.3,2.2,26.1,6.2C119.1,160.6,132.2,180.3,132.2,203z"/>
	<path class="st94" d="M132.2,203c0,31.2-24.8,56.8-55.7,58.1c29.7-2.6,51.8-27.5,51.8-57.9c0-32.1-24.8-58.1-56.9-58.1
		c-0.9,0-1.8,0-2.6,0.1c1.7-0.2,3.5-0.2,5.2-0.2C106.1,144.8,132.2,170.9,132.2,203z"/>
	<g class="st37">
		<path class="st83" d="M121.3,228.2c0,0-1.7,4.1-3.9,5.2c-1.1,0.5-2.1,0.7-3,0.6c0,0,0,0,0,0c-1-0.1-1.7-0.6-2-1.4
			c-0.6-1.5,0.8-3.7,3.1-4.8c0.5-0.2,1.1-0.4,1.7-0.4C119.1,227.3,121.3,228.2,121.3,228.2z"/>
		<path class="st83" d="M109.3,231.6c-0.4,0.3-0.9,0.4-1.5,0.3c-1.1-0.2-2.3-1.2-3.2-2.8c-1.2-2-1.1-5.5-1-6.5c0-0.2,0-0.3,0-0.3
			s3.8,1,5.2,3.3C110.3,228,110.5,230.6,109.3,231.6z"/>
		<path class="st83" d="M115.2,239c0,0-2.2,3.7-4.6,4.4c-0.7,0.2-1.4,0.3-2.1,0.2c-1.5-0.1-2.6-0.8-2.8-2c-0.3-1.6,1.3-3.5,3.7-4.1
			c0.2-0.1,0.4-0.1,0.6-0.1C112.3,237.1,115.2,239,115.2,239z"/>
		<path class="st83" d="M101.9,240.4c-0.3,0.1-0.5,0.1-0.8,0c-1.2-0.4-2.3-2.1-2.7-4.3c-0.4-2.1,0.6-5,1.1-6.2
			c0.1-0.4,0.3-0.6,0.3-0.6s3.2,2.6,3.7,5.4C103.9,237.4,103.3,240,101.9,240.4z"/>
		<path class="st83" d="M125.9,214.1c0,0-1,4.4-3,5.9c-1.3,1-2.6,1.4-3.7,1.3c-0.6-0.1-1.1-0.4-1.4-0.9c-0.8-1.4,0.2-3.8,2.3-5.4
			c1-0.7,2.3-1,3.5-1h0C124.8,214,125.9,214.1,125.9,214.1z"/>
		<path class="st83" d="M115.3,220.3c-0.4,0.7-1.2,1-2.2,0.8c-0.9-0.1-1.9-0.6-2.9-1.4c-2-1.7-2.8-6.1-2.8-6.1s0.3,0,0.8-0.1
			c0.1,0,0.1,0,0.2,0c1.3,0,3.6,0.1,4.9,1.2C115.2,216.5,116.1,219,115.3,220.3z"/>
		<path class="st83" d="M120.9,191.1c-0.9,2.5-2.6,4.1-3.9,3.7h0c-0.1,0-0.1,0-0.2-0.1c-1.3-0.7-1.6-3.3-0.7-5.9
			c0.7-1.9,2.6-3.4,3.7-4.1c0.5-0.3,0.8-0.5,0.8-0.5S121.8,188.5,120.9,191.1z"/>
		<path class="st83" d="M114.9,195.9c-0.4,1-1.5,1.5-2.9,1.4c-0.7-0.1-1.4-0.3-2.2-0.6c-2.3-1.1-3.9-5.2-3.9-5.2s1.6-0.7,3.4-0.7
			c0.9-0.1,1.8,0,2.6,0.4C114.1,192.2,115.5,194.3,114.9,195.9z"/>
		<path class="st83" d="M123.7,205.8c-1.3,1.8-2.9,2.7-4.1,2.5c-0.3-0.1-0.5-0.2-0.7-0.4c-1.1-1.1-0.7-3.7,0.8-5.9
			c1.1-1.6,3.3-2.4,4.5-2.7c0.5-0.2,0.9-0.2,0.9-0.2S125.2,203.6,123.7,205.8z"/>
		<path class="st83" d="M115.7,207.8c-0.4,0.9-1.4,1.2-2.6,1.1c-0.8-0.1-1.7-0.4-2.5-1c-2.1-1.4-3.4-5.7-3.4-5.7s1-0.3,2.3-0.3h0.1
			c1.2-0.1,2.6,0.1,3.6,0.7C115.2,204.1,116.4,206.4,115.7,207.8z"/>
		<path class="st83" d="M115.6,177.5c-0.5,2.4-1.8,4.2-3.1,3.8c0,0-0.1,0-0.1,0c-1.1-0.4-1.7-2.6-1.2-4.9c0.3-1.7,1.8-3.3,2.6-4.2
			c0.4-0.4,0.6-0.6,0.6-0.6S116.1,175.1,115.6,177.5z"/>
		<path class="st83" d="M111.7,184.6c-0.2,1.2-1.6,1.9-3.3,1.7c-0.3,0-0.6-0.1-0.9-0.2c-2.1-0.6-4.1-3.8-4.1-3.8s2-1.3,3.8-1.4
			c0.4-0.1,0.9,0,1.3,0.1C110.5,181.6,112,183.2,111.7,184.6z"/>
		<path class="st83" d="M108.9,168c-0.1,2.2-1.1,3.9-2.2,3.8c-0.1,0-0.3,0-0.4-0.1c-0.9-0.4-1.5-2.1-1.4-4c0.1-1.5,1.1-3.1,1.7-3.9
			c0.3-0.4,0.5-0.6,0.5-0.6S109.1,165.9,108.9,168z"/>
		<path class="st83" d="M106.9,175.2c-0.1,1.3-1.6,2.2-3.5,2c0,0-0.1,0-0.1,0c-1.8-0.2-3.8-2.6-3.8-2.6s1.8-1.7,3.5-2
			c0.2,0,0.4,0,0.6,0C105.5,172.8,106.9,174,106.9,175.2z"/>
		<path class="st83" d="M103.2,168.7c-0.3,0.7-1.1,0.9-2,0.8c-0.6-0.1-1.3-0.4-1.9-0.8c-1.6-1.1-2.5-4.4-2.5-4.4s0.6-0.1,1.4-0.2
			c1-0.1,2.2,0,3.1,0.6C102.9,165.8,103.8,167.6,103.2,168.7z"/>
	</g>
	<g class="st37">
		<path class="st85" d="M120.4,228.2c0,0-1.6,4.1-3.9,5.2c-0.7,0.4-1.5,0.6-2.2,0.6c0,0,0,0,0,0c-1-0.1-1.7-0.6-2-1.4
			c-0.6-1.5,0.8-3.7,3.1-4.8c0.5-0.2,1.1-0.4,1.7-0.4C118.8,227.5,120.4,228.2,120.4,228.2z"/>
		<path class="st85" d="M108.4,231.6c-0.2,0.1-0.4,0.3-0.6,0.3c-1.1-0.2-2.3-1.2-3.2-2.8c-1.2-2-1.1-5.5-1-6.5
			c1.2,0.4,3.3,1.4,4.3,3C109.4,228,109.6,230.6,108.4,231.6z"/>
		<path class="st85" d="M114.4,239c0,0-2.2,3.7-4.6,4.4c-0.4,0.1-0.8,0.2-1.2,0.2c-1.5-0.1-2.6-0.8-2.8-2c-0.3-1.6,1.3-3.5,3.7-4.1
			c0.2-0.1,0.4-0.1,0.6-0.1C112.1,237.5,114.4,239,114.4,239z"/>
		<path class="st85" d="M101.1,240.3c-1.2-0.4-2.3-2.1-2.7-4.3c-0.4-2.1,0.6-5,1.1-6.2c1,0.9,2.7,2.8,3.1,4.8
			C103,237.4,102.4,239.9,101.1,240.3z"/>
		<path class="st85" d="M125,214.1c0,0-1,4.4-3,5.9c-0.9,0.7-1.9,1.1-2.8,1.3c-0.6-0.1-1.1-0.4-1.4-0.9c-0.8-1.4,0.2-3.8,2.3-5.4
			c1-0.7,2.3-1,3.5-1h0C124.4,214,125,214.1,125,214.1z"/>
		<path class="st85" d="M114.4,220.3c-0.3,0.5-0.8,0.7-1.3,0.8c-0.9-0.1-1.9-0.6-2.9-1.4c-2-1.7-2.8-6.1-2.8-6.1s0.3,0,0.8-0.1
			c0.1,0,0.1,0,0.2,0c1.3,0.1,3,0.3,4.1,1.2C114.3,216.5,115.2,219,114.4,220.3z"/>
		<path class="st85" d="M120,191.1c-0.7,1.9-1.9,3.3-3,3.7h0c-0.1,0-0.1,0-0.2-0.1c-1.3-0.7-1.6-3.3-0.7-5.9
			c0.7-1.9,2.6-3.4,3.7-4.1C120.1,185.8,120.7,189,120,191.1z"/>
		<path class="st85" d="M114,195.9c-0.3,0.8-1,1.3-2,1.4c-0.7-0.1-1.4-0.3-2.2-0.6c-2.3-1.1-3.9-5.2-3.9-5.2s1.6-0.7,3.4-0.7
			c0.6,0,1.2,0.2,1.7,0.4C113.2,192.2,114.6,194.3,114,195.9z"/>
		<path class="st85" d="M122.8,205.8c-1,1.4-2.2,2.3-3.2,2.5c-0.3-0.1-0.5-0.2-0.7-0.4c-1.1-1.1-0.7-3.7,0.8-5.9
			c1.1-1.6,3.3-2.4,4.5-2.7C124.2,200.2,124.1,203.9,122.8,205.8z"/>
		<path class="st85" d="M114.8,207.8c-0.3,0.6-0.9,1-1.7,1.1c-0.8-0.1-1.7-0.4-2.5-1c-2.1-1.4-3.4-5.7-3.4-5.7s1-0.3,2.3-0.3h0.1
			c0.9,0,1.9,0.2,2.7,0.7C114.3,204.1,115.5,206.4,114.8,207.8z"/>
		<path class="st85" d="M114.7,177.5c-0.4,1.9-1.3,3.4-2.3,3.8c-1.1-0.4-1.7-2.6-1.2-4.9c0.3-1.7,1.8-3.3,2.6-4.2
			C114.3,173.3,115.1,175.7,114.7,177.5z"/>
		<path class="st85" d="M110.8,184.6c-0.2,1-1.2,1.6-2.4,1.7c-0.3,0-0.6-0.1-0.9-0.2c-2.1-0.6-4.1-3.8-4.1-3.8s2-1.3,3.8-1.4
			c0.1,0,0.3,0,0.4,0.1C109.6,181.6,111.1,183.2,110.8,184.6z"/>
		<path class="st85" d="M108.1,168c-0.1,1.8-0.8,3.3-1.7,3.7c-0.9-0.4-1.5-2.1-1.4-4c0.1-1.5,1.1-3.1,1.7-3.9
			C107.3,164.7,108.1,166.5,108.1,168z"/>
		<path class="st85" d="M106,175.2c-0.1,1.1-1.2,1.9-2.7,2c-1.8-0.2-3.8-2.6-3.8-2.6s1.8-1.7,3.5-2C104.7,173,106,174,106,175.2z"/>
		<path class="st85" d="M102.3,168.7c-0.2,0.4-0.6,0.7-1.1,0.8c-0.6-0.1-1.3-0.4-1.9-0.8c-1.6-1.1-2.5-4.4-2.5-4.4s0.6-0.1,1.4-0.2
			c0.8,0,1.6,0.2,2.2,0.6C102,165.8,102.9,167.6,102.3,168.7z"/>
	</g>
	<g class="st37">
		<path class="st83" d="M35.4,231.9c-0.6,1.6-2.8,2-5.1,0.8c-0.1,0-0.2-0.1-0.3-0.1c-2.1-1.3-3.7-5.3-3.7-5.3s3.3-1.4,5.5-0.5
			c0.1,0,0.3,0.1,0.4,0.2C34.6,228,36,230.3,35.4,231.9z"/>
		<path class="st83" d="M43.1,228.2c-1.4,2.4-3.5,3.6-4.7,2.6c0,0-0.1-0.1-0.1-0.1c-1.1-1.1-0.8-3.8,0.6-6.2c1-1.7,3.2-2.7,4.4-3.2
			c0.5-0.2,0.8-0.3,0.8-0.3S44.6,225.8,43.1,228.2z"/>
		<path class="st83" d="M42.1,241.2c-0.3,1.7-2.5,2.5-4.9,1.9c-0.4-0.1-0.7-0.3-1.1-0.5c-1.9-1.3-3.6-4-3.6-4s3.4-2.3,5.8-1.6
			c0.3,0.1,0.5,0.2,0.7,0.3C41,237.9,42.3,239.7,42.1,241.2z"/>
		<path class="st83" d="M49.4,235.4c-0.6,2.9-2.1,5-3.5,4.6c-0.2-0.1-0.4-0.2-0.6-0.4c-0.9-0.9-1.3-3.2-0.9-5.6
			c0.4-2.2,2.3-4.3,3.2-5.2c0.3-0.3,0.5-0.5,0.5-0.5S50,232.5,49.4,235.4z"/>
		<path class="st83" d="M30.1,219c-0.7,1.3-2.5,1.3-4.3,0.2c0,0,0,0,0,0c-0.3-0.1-0.5-0.3-0.8-0.5c-2-1.6-3-6.2-3-6.2
			s2.6-0.5,4.7,0.3c0.4,0.2,0.8,0.4,1.2,0.6C29.8,215.1,30.8,217.6,30.1,219z"/>
		<path class="st83" d="M40.4,211.9c0,0-0.9,4.6-2.8,6.4c-1.8,1.5-3.7,1.9-4.7,1c-0.1-0.1-0.3-0.3-0.4-0.4c-0.8-1.4,0.1-4,2.1-5.7
			c1.4-1.2,3.6-1.3,4.9-1.3C40.1,211.9,40.4,211.9,40.4,211.9z"/>
		<path class="st83" d="M31,192c-0.6,0.3-1.2,0.1-1.9-0.3c-0.9-0.6-1.7-1.9-2.2-3.4c-0.9-2.5,0.1-6.4,0.3-7.1c0-0.1,0-0.1,0-0.1
			s3.5,2,4.5,4.8C32.6,188.6,32.3,191.4,31,192z"/>
		<path class="st83" d="M41.9,188.6c0,0-1.7,4.3-3.9,5.5c-1.7,0.9-3.5,0.9-4.4,0.1c-0.3-0.2-0.5-0.5-0.7-0.9c-0.6-1.6,0.8-3.9,3.1-5
			c1.5-0.8,3.8-0.3,5,0.1C41.5,188.5,41.9,188.6,41.9,188.6z"/>
		<path class="st83" d="M28.9,205.9c-0.7,0.7-1.7,0.6-2.8-0.1c-0.7-0.4-1.4-1.2-2.1-2.1c-1.6-2.3-1.4-7.1-1.4-7.1s1.2,0.2,2.5,0.8
			c1.1,0.5,2.2,1.2,2.9,2.2C29.6,202,30,204.8,28.9,205.9z"/>
		<path class="st83" d="M40.7,200c0,0-1.3,4.5-3.4,5.9c-1.7,1.2-3.6,1.4-4.6,0.5c-0.2-0.2-0.4-0.4-0.5-0.7c-0.7-1.5,0.5-3.9,2.6-5.4
			c1.5-1,3.7-0.8,5-0.6C40.3,199.9,40.7,200,40.7,200z"/>
		<path class="st83" d="M35.2,178.1c-0.4,0.1-0.9,0-1.3-0.4c-0.8-0.7-1.4-2-1.7-3.6c-0.4-2.1,0.7-5,1.1-5.9c0.1-0.2,0.1-0.3,0.1-0.3
			s2.8,2.4,3.2,5C37,175.4,36.4,177.7,35.2,178.1z"/>
		<path class="st83" d="M44.4,179.1c0,0-2,3.4-4.1,4c-1.4,0.4-2.7,0.2-3.5-0.4c-0.4-0.3-0.7-0.7-0.8-1.2c-0.3-1.5,1.2-3.2,3.3-3.7
			c1.1-0.3,2.4,0.1,3.5,0.6C43.7,178.7,44.4,179.1,44.4,179.1z"/>
		<path class="st83" d="M41,168.1c-0.3,0-0.7-0.1-1-0.4c-0.6-0.7-1.1-2-1.2-3.5c-0.1-1.7,1-3.8,1.5-4.7c0.2-0.3,0.2-0.4,0.2-0.4
			s2.1,2.5,2.2,4.8C42.9,166.1,42.1,168,41,168.1z"/>
		<path class="st83" d="M48.3,171.1c0,0-2.1,2.6-3.9,2.7c-1,0.1-1.9-0.2-2.6-0.6c-0.5-0.4-0.9-0.9-0.9-1.5c-0.1-1.3,1.4-2.5,3.2-2.7
			c0.5,0,1,0.1,1.5,0.3C47,169.8,48.3,171.1,48.3,171.1z"/>
		<path class="st83" d="M51,160.1c0,0-0.9,3.4-2.5,4.6c-1.4,1-2.9,1.2-3.6,0.4c-0.1-0.1-0.2-0.2-0.3-0.4c-0.6-1.1,0.3-3,1.9-4.2
			c1-0.7,2.6-0.7,3.5-0.6C50.6,160,51,160.1,51,160.1z"/>
	</g>
	<g class="st37">
		<path class="st85" d="M34.5,231.4c-0.5,1.5-2.4,1.9-4.5,1.1c-2.1-1.3-3.7-5.3-3.7-5.3s3.3-1.4,5.5-0.5
			C33.9,227.9,35.1,229.9,34.5,231.4z"/>
		<path class="st85" d="M42.3,227.8c-1.1,2-2.7,3.1-3.9,2.9c-1.1-1.1-0.8-3.8,0.6-6.2c1-1.7,3.2-2.7,4.4-3.2
			C43.4,222.7,43.3,225.9,42.3,227.8z"/>
		<path class="st85" d="M41.2,240.7c-0.3,1.7-2.5,2.5-4.9,1.9c-0.1,0-0.1,0-0.2-0.1c-1.9-1.3-3.6-4-3.6-4s3.4-2.3,5.8-1.6
			c0.3,0.1,0.5,0.2,0.7,0.3C40.5,238,41.4,239.5,41.2,240.7z"/>
		<path class="st85" d="M48.6,235c-0.5,2.8-2,4.7-3.3,4.6c-0.9-0.9-1.3-3.2-0.9-5.6c0.4-2.2,2.3-4.3,3.2-5.2
			C48.1,230.2,49,232.9,48.6,235z"/>
		<path class="st85" d="M29.2,218.6c-0.6,1.1-2,1.3-3.5,0.7c0,0,0,0,0,0c-0.3-0.1-0.5-0.3-0.8-0.5c-2-1.6-3-6.2-3-6.2
			s2.6-0.5,4.7,0.3c0.1,0.1,0.2,0.1,0.3,0.2C28.9,214.6,30,217.1,29.2,218.6z"/>
		<path class="st85" d="M39.5,211.9c-0.3,1.1-1.1,4.5-2.7,6c-1.3,1.2-2.8,1.7-3.9,1.5c-0.1-0.1-0.3-0.3-0.4-0.4
			c-0.8-1.4,0.1-4,2.1-5.7C35.9,212,38.2,211.9,39.5,211.9z"/>
		<path class="st85" d="M30.1,191.6c-0.3,0.2-0.7,0.2-1,0.1c-0.9-0.6-1.7-1.9-2.2-3.4c-0.9-2.5,0.1-6.4,0.3-7.1
			c1.1,0.8,3,2.3,3.6,4.2C31.7,188.1,31.5,190.9,30.1,191.6z"/>
		<path class="st85" d="M41,188.3c-0.3,0.7-1.8,4.3-3.9,5.3c-1.3,0.7-2.6,0.8-3.6,0.6c-0.3-0.2-0.5-0.5-0.7-0.9
			c-0.6-1.6,0.8-3.9,3.1-5C37.5,187.4,39.7,187.9,41,188.3z"/>
		<path class="st85" d="M28,205.5c-0.5,0.5-1.1,0.6-1.9,0.3c-0.7-0.4-1.4-1.2-2.1-2.1c-1.6-2.3-1.4-7.1-1.4-7.1s1.2,0.2,2.5,0.8
			c0.8,0.4,1.6,1.1,2.1,1.8C28.8,201.6,29.1,204.4,28,205.5z"/>
		<path class="st85" d="M39.7,199.8c-0.3,0.9-1.5,4.4-3.4,5.7c-1.3,0.9-2.7,1.2-3.7,1c-0.2-0.2-0.4-0.4-0.5-0.7
			c-0.7-1.5,0.5-3.9,2.6-5.4C36.2,199.4,38.5,199.6,39.7,199.8z"/>
		<path class="st85" d="M34.3,177.6c-0.2,0-0.3,0.1-0.5,0c-0.8-0.7-1.4-2-1.7-3.6c-0.4-2.1,0.7-5,1.1-5.9c0.9,0.9,2.2,2.5,2.5,4.2
			C36.2,174.9,35.6,177.3,34.3,177.6z"/>
		<path class="st85" d="M43.5,178.7c0,0-2,3.4-4.1,4c-0.9,0.3-1.9,0.3-2.6,0c-0.4-0.3-0.7-0.7-0.8-1.2c-0.3-1.5,1.2-3.2,3.3-3.7
			c1.1-0.3,2.4,0.1,3.5,0.6C43.3,178.5,43.5,178.7,43.5,178.7z"/>
		<path class="st85" d="M40.1,167.6H40c-0.6-0.7-1.1-2-1.2-3.5c-0.1-1.7,1-3.8,1.5-4.7c0.6,0.9,1.5,2.5,1.6,3.9
			C42,165.6,41.2,167.5,40.1,167.6z"/>
		<path class="st85" d="M47.5,170.6c0,0-2.1,2.6-3.9,2.7c-0.6,0.1-1.2,0-1.7-0.2c-0.5-0.4-0.9-0.9-0.9-1.5c-0.1-1.3,1.4-2.5,3.2-2.7
			c0.5,0,1,0.1,1.5,0.3C46.7,169.9,47.5,170.6,47.5,170.6z"/>
		<path class="st85" d="M50,160c-0.2,0.8-1.1,3.4-2.4,4.3c-1,0.7-2,1-2.8,0.9c-0.1-0.1-0.2-0.2-0.3-0.4c-0.6-1.1,0.3-3,1.9-4.2
			C47.5,159.9,49,159.9,50,160z"/>
	</g>
	<g class="st37">
		<linearGradient id="SVGID_52_" gradientUnits="userSpaceOnUse" x1="155.6531" y1="-41.6158" x2="58.0348" y2="109.1366">
			<stop  offset="0" style="stop-color:#003D14"/>
			<stop  offset="1" style="stop-color:#238500"/>
		</linearGradient>
		<polygon class="st95" points="93.1,7.7 66.2,137 70.6,137 100.9,7.7 		"/>
		<linearGradient id="SVGID_53_" gradientUnits="userSpaceOnUse" x1="70.6226" y1="72.3774" x2="127.1071" y2="72.3774">
			<stop  offset="0" style="stop-color:#C8C8C8"/>
			<stop  offset="0.5343" style="stop-color:#FFFFFF"/>
			<stop  offset="1" style="stop-color:#C8C8C8"/>
		</linearGradient>
		<polygon class="st96" points="100.9,7.7 70.6,137 76.4,137 110,7.7 		"/>
		<polygon class="st75" points="110,7.7 76.4,137 78.9,137 118,7.7 		"/>
		<linearGradient id="SVGID_54_" gradientUnits="userSpaceOnUse" x1="167.9637" y1="-41.1785" x2="69.9541" y2="110.1781">
			<stop  offset="0" style="stop-color:#003D14"/>
			<stop  offset="1" style="stop-color:#238500"/>
		</linearGradient>
		<polygon class="st97" points="110,7.7 76.4,137 78.9,137 118,7.7 		"/>
	</g>
	<path class="st98" d="M132.2,203c0,32-26.1,58.1-58.1,58.1c-1.6,0-3.2-0.1-4.7-0.2C47.5,259.2,29,245.3,20.7,226
		c86.3,20.1,81.3-59,79.7-73.1c0,0,0.4-1.3,0.4-1.6c10.6,5.3,18.7,13.5,24.4,23.9C129.6,183.5,132.2,193,132.2,203z"/>
	<path class="st99" d="M132.2,203c0,32-26.1,58.1-58.1,58.1c-1.6,0-3.2-0.1-4.7-0.2c39.4-13.7,51.4-55.7,55-79.4l2.7-2.5
		C130.2,186.4,132.2,193,132.2,203z"/>
	<defs>
		<filter id="Adobe_OpacityMaskFilter_20_" filterUnits="userSpaceOnUse" x="12.9" y="163" width="105.6" height="92.5">
			<feFlood  style="flood-color:white;flood-opacity:1" result="back"/>
			<feBlend  in="SourceGraphic" in2="back" mode="normal"/>
		</filter>
	</defs>
	<mask maskUnits="userSpaceOnUse" x="12.9" y="163" width="105.6" height="92.5" id="SVGID_55_" class="st37">
		<g style="filter:url(#Adobe_OpacityMaskFilter_20_);">
			<defs>
				<filter id="Adobe_OpacityMaskFilter_21_" filterUnits="userSpaceOnUse" x="12.9" y="163" width="105.6" height="92.5">
					<feFlood  style="flood-color:white;flood-opacity:1" result="back"/>
					<feBlend  in="SourceGraphic" in2="back" mode="normal"/>
				</filter>
			</defs>
			<mask maskUnits="userSpaceOnUse" x="12.9" y="163" width="105.6" height="92.5" id="SVGID_55_">
				<g class="st101">
				</g>
			</mask>
			<linearGradient id="SVGID_56_" gradientUnits="userSpaceOnUse" x1="110.6337" y1="250.8907" x2="24.4489" y2="173.013">
				<stop  offset="0" style="stop-color:#000000"/>
				<stop  offset="1" style="stop-color:#FFFFFF"/>
			</linearGradient>
			<path class="st102" d="M118.5,246.6c-3.3,3.4-7,6.4-11,9l-0.7-2.8l-0.4-1.5l-3.2,0.4l-7.7-6.9l-75.4-63.4l-1.7-6.4l-5.5,1.8
				c0.3-0.6,0.6-1.2,0.8-1.7c0.5-1,1-2,1.5-3c1.3-2.6,2.9-5,4.6-7.3l6.5-1.6l0.3,6.4l73,60l2.1,1.9l0,0h0l2.9,2.6l4.1,3.7h0l3.9,3.6
				l0.5,0.4l0.6,0.6l3.1,0l0.2,0.6L118.5,246.6z"/>
		</g>
	</mask>
	<linearGradient id="SVGID_57_" gradientUnits="userSpaceOnUse" x1="110.6337" y1="250.8907" x2="24.4489" y2="173.013">
		<stop  offset="0" style="stop-color:#E6E6E6"/>
		<stop  offset="1" style="stop-color:#E6E6E6"/>
	</linearGradient>
	<path class="st103" d="M118.5,246.6c-3.3,3.4-7,6.4-11,9l-0.7-2.8l-0.4-1.5l-3.2,0.4l-7.7-6.9l-75.4-63.4l-1.7-6.4l-5.5,1.8
		c0.3-0.6,0.6-1.2,0.8-1.7c0.5-1,1-2,1.5-3c1.3-2.6,2.9-5,4.6-7.3l6.5-1.6l0.3,6.4l73,60l2.1,1.9l0,0h0l2.9,2.6l4.1,3.7h0l3.9,3.6
		l0.5,0.4l0.6,0.6l3.1,0l0.2,0.6L118.5,246.6z"/>
	<defs>
		<filter id="Adobe_OpacityMaskFilter_22_" filterUnits="userSpaceOnUse" x="24.6" y="153.8" width="102.1" height="88.1">
			<feFlood  style="flood-color:white;flood-opacity:1" result="back"/>
			<feBlend  in="SourceGraphic" in2="back" mode="normal"/>
		</filter>
	</defs>
	<mask maskUnits="userSpaceOnUse" x="24.6" y="153.8" width="102.1" height="88.1" id="SVGID_58_" class="st37">
		<g style="filter:url(#Adobe_OpacityMaskFilter_22_);">
			<defs>
				<filter id="Adobe_OpacityMaskFilter_23_" filterUnits="userSpaceOnUse" x="24.6" y="153.8" width="102.1" height="88.1">
					<feFlood  style="flood-color:white;flood-opacity:1" result="back"/>
					<feBlend  in="SourceGraphic" in2="back" mode="normal"/>
				</filter>
			</defs>
			<mask maskUnits="userSpaceOnUse" x="24.6" y="153.8" width="102.1" height="88.1" id="SVGID_58_">
				<g class="st105">
				</g>
			</mask>
			<linearGradient id="SVGID_59_" gradientUnits="userSpaceOnUse" x1="109.7444" y1="228.8525" x2="49.316" y2="170.2473">
				<stop  offset="0" style="stop-color:#000000"/>
				<stop  offset="1" style="stop-color:#FFFFFF"/>
			</linearGradient>
			<path class="st106" d="M126.8,236.2c-1.3,2-2.6,3.9-4.1,5.7l-1.7-4.4l-0.1-0.2l-3.3,0l-86.5-73.5l-0.6-5.4l-5.8,0.2
				c0.3-0.2,0.5-0.5,0.7-0.7c0.7-0.7,1.5-1.5,2.2-2.2c0.5-0.5,1.1-1,1.7-1.5l6.6-0.5l-0.1,5.2l84.5,71.3l1.1,1l3.1-0.1l0.4,0
				L126.8,236.2z"/>
		</g>
	</mask>
	<linearGradient id="SVGID_60_" gradientUnits="userSpaceOnUse" x1="109.7444" y1="228.8525" x2="49.316" y2="170.2473">
		<stop  offset="0" style="stop-color:#E6E6E6"/>
		<stop  offset="1" style="stop-color:#E6E6E6"/>
	</linearGradient>
	<path class="st107" d="M126.8,236.2c-1.3,2-2.6,3.9-4.1,5.7l-1.7-4.4l-0.1-0.2l-3.3,0l-86.5-73.5l-0.6-5.4l-5.8,0.2
		c0.3-0.2,0.5-0.5,0.7-0.7c0.7-0.7,1.5-1.5,2.2-2.2c0.5-0.5,1.1-1,1.7-1.5l6.6-0.5l-0.1,5.2l84.5,71.3l1.1,1l3.1-0.1l0.4,0
		L126.8,236.2z"/>
</g>
</svg>
