<?xml version="1.0" encoding="utf-8"?>
<!-- Generator: Adobe Illustrator 22.1.0, SVG Export Plug-In . SVG Version: 6.00 Build 0)  -->
<svg version="1.1" id="Layer_1" xmlns="http://www.w3.org/2000/svg" xmlns:xlink="http://www.w3.org/1999/xlink" x="0px" y="0px"
	 viewBox="0 0 250 211.5" style="enable-background:new 0 0 250 211.5;" xml:space="preserve">
<style type="text/css">
	.st0{display:none;}
	.st1{display:inline;}
	.st2{fill:url(#SVGID_1_);}
	.st3{fill:url(#SVGID_2_);}
	.st4{fill:#FFFFFF;}
	.st5{fill:url(#SVGID_3_);}
	.st6{display:inline;fill:url(#SVGID_4_);}
	.st7{display:inline;opacity:0.3;fill:#767676;}
	.st8{display:inline;opacity:0.7;fill:#767676;}
	.st9{display:inline;opacity:0.4;fill:#767676;}
	.st10{display:inline;fill:url(#SVGID_5_);}
	.st11{fill:url(#SVGID_6_);}
	.st12{fill:#FF9D09;}
	.st13{opacity:0.3;}
	.st14{fill:#767676;}
	.st15{opacity:0.2;fill:#767676;}
	.st16{display:inline;filter:url(#Adobe_OpacityMaskFilter);}
	.st17{filter:url(#Adobe_OpacityMaskFilter_1_);}
	.st18{mask:url(#SVGID_7_);fill:url(#SVGID_8_);}
	.st19{display:inline;opacity:0.3;fill:url(#SVGID_9_);}
	.st20{display:inline;filter:url(#Adobe_OpacityMaskFilter_2_);}
	.st21{filter:url(#Adobe_OpacityMaskFilter_3_);}
	.st22{mask:url(#SVGID_10_);fill:url(#SVGID_11_);}
	.st23{display:inline;opacity:0.3;fill:url(#SVGID_12_);}
	.st24{display:inline;opacity:0.6;fill:#767676;}
	.st25{fill:#E78B00;}
	.st26{fill:url(#SVGID_13_);}
	.st27{fill:url(#SVGID_14_);}
	.st28{fill:url(#SVGID_15_);}
	.st29{display:inline;opacity:0.2;fill:#A6A6A6;}
	.st30{display:inline;opacity:0.2;fill:#767676;}
	.st31{display:inline;filter:url(#Adobe_OpacityMaskFilter_4_);}
	.st32{filter:url(#Adobe_OpacityMaskFilter_5_);}
	.st33{mask:url(#SVGID_16_);fill:url(#SVGID_17_);}
	.st34{display:inline;opacity:0.8;fill:url(#SVGID_18_);}
	.st35{display:inline;filter:url(#Adobe_OpacityMaskFilter_6_);}
	.st36{filter:url(#Adobe_OpacityMaskFilter_7_);}
	.st37{mask:url(#SVGID_19_);fill:url(#SVGID_20_);}
	.st38{display:inline;opacity:0.8;fill:url(#SVGID_21_);}
	.st39{fill:url(#SVGID_22_);}
	.st40{fill:url(#SVGID_23_);}
	.st41{fill:url(#SVGID_24_);}
	.st42{display:inline;fill:url(#SVGID_25_);}
	.st43{display:inline;fill:url(#SVGID_26_);}
	.st44{fill:url(#SVGID_27_);}
	.st45{fill:#848484;}
	.st46{fill:#444A52;}
	.st47{fill:#71767C;}
	.st48{display:inline;filter:url(#Adobe_OpacityMaskFilter_8_);}
	.st49{filter:url(#Adobe_OpacityMaskFilter_9_);}
	.st50{mask:url(#SVGID_28_);fill:url(#SVGID_29_);}
	.st51{display:inline;opacity:0.3;fill:url(#SVGID_30_);}
	.st52{display:inline;filter:url(#Adobe_OpacityMaskFilter_10_);}
	.st53{filter:url(#Adobe_OpacityMaskFilter_11_);}
	.st54{mask:url(#SVGID_31_);fill:url(#SVGID_32_);}
	.st55{display:inline;opacity:0.3;fill:url(#SVGID_33_);}
	.st56{fill:#7F8389;}
	.st57{fill:url(#SVGID_34_);}
	.st58{fill:url(#SVGID_35_);}
	.st59{fill:url(#SVGID_36_);}
	.st60{display:inline;filter:url(#Adobe_OpacityMaskFilter_12_);}
	.st61{filter:url(#Adobe_OpacityMaskFilter_13_);}
	.st62{mask:url(#SVGID_37_);fill:url(#SVGID_38_);}
	.st63{display:inline;opacity:0.8;fill:url(#SVGID_39_);}
	.st64{display:inline;filter:url(#Adobe_OpacityMaskFilter_14_);}
	.st65{filter:url(#Adobe_OpacityMaskFilter_15_);}
	.st66{mask:url(#SVGID_40_);fill:url(#SVGID_41_);}
	.st67{display:inline;opacity:0.8;fill:url(#SVGID_42_);}
	.st68{fill:url(#SVGID_43_);}
	.st69{fill:url(#SVGID_44_);}
	.st70{fill:#E6E6E6;}
	.st71{fill:url(#SVGID_45_);}
	.st72{display:inline;fill:#A3472B;}
	.st73{display:inline;opacity:0.3;fill:#6A6A6A;}
	.st74{display:inline;opacity:0.7;fill:#6A6A6A;}
	.st75{display:inline;opacity:0.4;fill:#6A6A6A;}
	.st76{display:inline;fill:#E36B3C;}
	.st77{fill:#BA5131;}
	.st78{fill:#691C0A;}
	.st79{opacity:0.2;fill:#D93C14;}
	.st80{fill:#96280F;}
	.st81{display:inline;filter:url(#Adobe_OpacityMaskFilter_16_);}
	.st82{filter:url(#Adobe_OpacityMaskFilter_17_);}
	.st83{mask:url(#SVGID_46_);fill:url(#SVGID_47_);}
	.st84{display:inline;opacity:0.3;fill:url(#SVGID_48_);}
	.st85{display:inline;filter:url(#Adobe_OpacityMaskFilter_18_);}
	.st86{filter:url(#Adobe_OpacityMaskFilter_19_);}
	.st87{mask:url(#SVGID_49_);fill:url(#SVGID_50_);}
	.st88{display:inline;opacity:0.3;fill:url(#SVGID_51_);}
	.st89{display:inline;opacity:0.6;fill:#6A6A6A;}
	.st90{fill:url(#SVGID_52_);}
	.st91{fill:url(#SVGID_53_);}
	.st92{fill:url(#SVGID_54_);}
	.st93{display:inline;opacity:0.2;fill:#959595;}
	.st94{display:inline;opacity:0.2;fill:#6A6A6A;}
	.st95{display:inline;filter:url(#Adobe_OpacityMaskFilter_20_);}
	.st96{filter:url(#Adobe_OpacityMaskFilter_21_);}
	.st97{mask:url(#SVGID_55_);fill:url(#SVGID_56_);}
	.st98{display:inline;opacity:0.8;fill:url(#SVGID_57_);}
	.st99{display:inline;filter:url(#Adobe_OpacityMaskFilter_22_);}
	.st100{filter:url(#Adobe_OpacityMaskFilter_23_);}
	.st101{mask:url(#SVGID_58_);fill:url(#SVGID_59_);}
	.st102{display:inline;opacity:0.8;fill:url(#SVGID_60_);}
	.st103{fill:#5E35B1;}
</style>
<g class="st0">
	<g class="st1">
		
			<linearGradient id="SVGID_1_" gradientUnits="userSpaceOnUse" x1="334.8221" y1="30.5123" x2="179.4917" y2="-226.1204" gradientTransform="matrix(-1 0 0 1 457.7283 0)">
			<stop  offset="0" style="stop-color:#A51500"/>
			<stop  offset="1" style="stop-color:#DD1D00"/>
		</linearGradient>
		<polygon class="st2" points="97.8,-21.3 128.1,108 132.5,108 105.7,-21.3 		"/>
		<linearGradient id="SVGID_2_" gradientUnits="userSpaceOnUse" x1="140.3941" y1="97.9774" x2="24.2397" y2="-111.338">
			<stop  offset="0" style="stop-color:#8E8E8E"/>
			<stop  offset="0.5343" style="stop-color:#FFFFFF"/>
			<stop  offset="1" style="stop-color:#C8C8C8"/>
		</linearGradient>
		<polygon class="st3" points="88.7,-21.3 122.3,108 128.1,108 97.8,-21.3 		"/>
		<polygon class="st4" points="80.3,-21.3 118.3,108 122.3,108 88.7,-21.3 		"/>
		
			<linearGradient id="SVGID_3_" gradientUnits="userSpaceOnUse" x1="337.4121" y1="11.8906" x2="180.4115" y2="-247.5016" gradientTransform="matrix(-1 0 0 1 457.7283 0)">
			<stop  offset="0" style="stop-color:#A51500"/>
			<stop  offset="1" style="stop-color:#DD1D00"/>
		</linearGradient>
		<polygon class="st5" points="80.3,-21.3 118.3,108 122.3,108 88.7,-21.3 		"/>
	</g>
	<linearGradient id="SVGID_4_" gradientUnits="userSpaceOnUse" x1="60.2974" y1="166.4398" x2="183.2534" y2="166.4398">
		<stop  offset="0" style="stop-color:#FFD945"/>
		<stop  offset="1" style="stop-color:#FF9D09"/>
	</linearGradient>
	<path class="st6" d="M178.9,150.7L178.9,150.7c-2.3-5.7-5.3-10.9-9-15.7c0,0,0-0.1,0-0.1c-0.3-0.3-0.5-0.6-0.7-0.9
		c0,0-0.1-0.1-0.1-0.1c-7.9-9.7-18.5-16.9-30.8-20.5c-0.4-0.2-0.9-0.3-1.4-0.4c-0.8-0.2-1.5-0.4-2.3-0.6l0.7,0l0.3,0l0.3,0l0.9,0
		l1.2,0c0-0.1,0.1-0.5,0.2-1.3c0.1-1.1-0.8-4.8-2.3-7.6v0c0,0,0,0,0,0c-0.3-0.5-0.5-0.9-0.8-1.3c0,0,0-0.1,0-0.1
		c-2.4-3.6-6.3-4.5-9.5-4.5c-3.6,0-8.3,1.2-10.7,3.7c-4.8,4.9-5.2,8.2-5.3,10.5v0.1c-8.9,1.7-16.9,5.2-23.8,10.2
		c-1.3,0.9-2.6,1.9-3.8,3c-0.6,0.5-1.1,1-1.7,1.5c-0.8,0.7-1.5,1.4-2.2,2.2c-0.2,0.2-0.4,0.4-0.7,0.7h0c-0.5,0.5-1,1-1.4,1.6
		c-1.2,1.4-2.4,2.9-3.5,4.4c-1.7,2.3-3.2,4.7-4.6,7.3c-0.5,1-1,2-1.5,3c-0.3,0.6-0.5,1.2-0.8,1.7c-3.4,8-5.3,16.8-5.3,26.2
		c0,28.6,19.5,51.4,45.5,58.7c5.7,1.6,11.7,2.5,17.9,2.5c13.1,0,24.9-3.8,34.4-10.4c0.4-0.3,0.9-0.6,1.3-0.9
		c3.4-2.5,6.4-5.3,9.2-8.5c0.4-0.4,0.7-0.9,1.1-1.3c1-1.2,1.9-2.4,2.7-3.6c0.4-0.6,0.8-1.2,1.2-1.8c0.4-0.6,0.8-1.2,1.1-1.9
		c0-0.1,0.1-0.1,0.1-0.2c0.4-0.7,0.8-1.5,1.2-2.3c0.3-0.7,0.7-1.3,1-2c3.9-8.3,6.1-17.8,6.1-28C183.3,165.8,181.7,158,178.9,150.7z
		 M115.3,106.8c0.3-1.2,0.6-0.6,1.1-0.2c0.3,0.2,0.7,0.4,1.2-0.3c0.3-0.4,0.6-0.8,0.9-1.1c1.4-1.4,3.1-2.1,5.2-2.1
		c1.2,0,2.3,0.2,3.2,0.7c0.4,0.2,0.7,0.4,1.1,0.6c0.1,0.1,0.2,0.2,0.3,0.3c0.2,0.1,4.4,3.7,4.3,6.2c-0.2,0-0.4-0.1-0.6-0.1
		c-3.6-0.6-7.6-0.6-11.3-0.2c-1.3,0.1-2.4,0.3-3.6,0.5c-0.5,0.1-1.1,0.1-1.6,0.2c-0.2,0-0.5,0.1-0.7,0.1
		C114.8,110,114.9,108.4,115.3,106.8z"/>
	<path class="st7" d="M135.5,112.5c0,0-3.1-1.8-2.9-1.7c0.1-2.5-4.1-6.1-4.3-6.3c-0.4-0.4-0.9-0.6-1.4-0.9c0.9-0.4,2.3,0,3.1,0.2
		l0.7,0.7C132.3,107.1,136.9,108.7,135.5,112.5z"/>
	<path class="st8" d="M138.6,117c0.1,0-6.4,0-6.4,0l-15.3,0.8l-1.4-6.6c1.7-0.2,3.4-0.5,5.2-0.7c3.9-0.4,8.2-0.4,11.9,0.3
		c0,0,4.5,2.9,4.6,3.1C138.1,116,138.5,117,138.6,117z"/>
	<path class="st9" d="M135.8,103.7L135.8,103.7c0,0.2-5.7-1.6-5.7-1.6l-10,1.4l-1.5,0.2l-1,2.6l-1.2,0.3l-1.1,0.3l-2.8,7.1l-0.8-0.5
		l-2.2-1.4c0-2.3,0.4-5.6,5.2-10.5c1-1,2.4-1.9,4-2.5c2.2-0.8,4.6-1.2,6.7-1.2c2.6,0,5.7,0.6,8.1,2.8c0.5,0.5,1,1,1.4,1.6
		C135.2,102.7,135.5,103.1,135.8,103.7C135.7,103.6,135.7,103.7,135.8,103.7z"/>
	<linearGradient id="SVGID_5_" gradientUnits="userSpaceOnUse" x1="64.4312" y1="167.565" x2="189.0269" y2="167.565">
		<stop  offset="0" style="stop-color:#FF9D09"/>
		<stop  offset="1" style="stop-color:#FFDA45"/>
	</linearGradient>
	<path class="st10" d="M140.1,113.1c0-1.9-0.3-4.5-2.7-7.9c-0.7-0.9-1.5-1.9-2.5-2.9c-2.4-2.4-5.4-3.3-9-3.3c-2,0-3.9,0.4-5.5,1.2
		l0,0c-1.3,0.6-2.4,1.4-3.4,2.5c-5,5.1-5.2,9.1-5.2,10.8v0.1c-8.6,2.1-16.4,6-23.2,11.3c-1.9,1.4-3.7,3-5.3,4.7
		c-1.5,1.5-2.9,3-4.2,4.6c-3,3.6-5.7,7.6-7.8,11.9c-4.3,8.4-6.7,18-6.7,28.1c0,27.1,17.3,50.1,41.4,58.7c6.5,2.3,13.6,3.6,20.9,3.6
		c12.3,0,23.8-3.6,33.4-9.7c4-2.6,7.7-5.6,11-9c1.5-1.5,2.9-3.1,4.2-4.7c1.5-1.8,2.9-3.7,4.1-5.7c6.1-9.6,9.6-21,9.6-33.2
		C189,144.1,168.1,119.2,140.1,113.1z M126.7,111.6c-3.3,0-6.6,0.3-9.8,0.8c0-0.6,0.1-1,0.2-1.5c0.3-1.4,1-2.1,2.6-3.7
		c0.3-0.3,0.7-0.7,1-1.1c1.4-1.4,3.1-2.1,5.2-2.1c0.7,0,1.4,0,2.1,0.1c1.2,0.2,2.3,0.6,3.2,1.6c0.7,0.7,1.3,1.4,1.7,1.9
		c1.3,1.7,1.7,2.9,1.9,4.4C132.2,111.8,129.5,111.6,126.7,111.6z"/>
	<path class="st7" d="M137.4,105.2l-4.5,2.6c-0.4-0.6-1-1.2-1.7-1.9c-0.9-0.9-2-1.4-3.2-1.6c-0.6-0.1-1.3-0.1-2.1-0.1
		c-2.1,0-3.9,0.7-5.2,2.1c-0.4,0.4-0.7,0.7-1,1.1l0.4-3.9l0.3-3.3l0,0c0-0.1-0.9-0.6-1.6-1.1c2.2-0.8,4.6-1.2,6.7-1.2
		c2.6,0,5.7,0.6,8.1,2.8c0.4,0.6,0.9,1.1,1.4,1.6C135.9,103.3,136.7,104.3,137.4,105.2z"/>
	<g class="st1">
		<radialGradient id="SVGID_6_" cx="126.73" cy="173.9176" r="58.131" gradientUnits="userSpaceOnUse">
			<stop  offset="0" style="stop-color:#FFDF10"/>
			<stop  offset="1" style="stop-color:#FFC441"/>
		</radialGradient>
		<path class="st11" d="M126.7,232c-32.1,0-58.1-26.1-58.1-58.1c0-32.1,26.1-58.1,58.1-58.1c32.1,0,58.1,26.1,58.1,58.1
			C184.9,206,158.8,232,126.7,232z"/>
	</g>
	<g class="st1">
		<g>
			<path class="st12" d="M113.7,211.2v-9.1h4.2v-55.6h-5.1v-9.9h26.2v65.4h4.2v9.1H113.7z"/>
		</g>
		<g class="st13">
			<path class="st14" d="M139.1,202.1v-65.4h-26.2v3.5H136v65.5h4.3v5.6h3v-9.1H139.1z"/>
		</g>
		<polygon class="st15" points="136,140.1 139.1,136.8 139.1,201.7 136,205.5 		"/>
		<polygon class="st15" points="143.3,202.1 143.3,211.2 140.3,211.2 140.3,206 		"/>
	</g>
	<defs>
		<filter id="Adobe_OpacityMaskFilter" filterUnits="userSpaceOnUse" x="68.6" y="115.8" width="116.3" height="116.3">
			<feFlood  style="flood-color:white;flood-opacity:1" result="back"/>
			<feBlend  in="SourceGraphic" in2="back" mode="normal"/>
		</filter>
	</defs>
	<mask maskUnits="userSpaceOnUse" x="68.6" y="115.8" width="116.3" height="116.3" id="SVGID_7_" class="st1">
		<g style="filter:url(#Adobe_OpacityMaskFilter);">
			<defs>
				<filter id="Adobe_OpacityMaskFilter_1_" filterUnits="userSpaceOnUse" x="68.6" y="115.8" width="116.3" height="116.3">
					<feFlood  style="flood-color:white;flood-opacity:1" result="back"/>
					<feBlend  in="SourceGraphic" in2="back" mode="normal"/>
				</filter>
			</defs>
			<mask maskUnits="userSpaceOnUse" x="68.6" y="115.8" width="116.3" height="116.3" id="SVGID_7_">
				<g class="st17">
				</g>
			</mask>
			<linearGradient id="SVGID_8_" gradientUnits="userSpaceOnUse" x1="81.7124" y1="210.4718" x2="171.2605" y2="137.7578">
				<stop  offset="0" style="stop-color:#000000"/>
				<stop  offset="0.1621" style="stop-color:#020202"/>
				<stop  offset="0.2313" style="stop-color:#090909"/>
				<stop  offset="0.2828" style="stop-color:#161616"/>
				<stop  offset="0.3255" style="stop-color:#272727"/>
				<stop  offset="0.3628" style="stop-color:#3F3F3F"/>
				<stop  offset="0.3963" style="stop-color:#5B5B5B"/>
				<stop  offset="0.427" style="stop-color:#7D7D7D"/>
				<stop  offset="0.4554" style="stop-color:#A5A5A5"/>
				<stop  offset="0.4811" style="stop-color:#D0D0D0"/>
				<stop  offset="0.5049" style="stop-color:#FFFFFF"/>
				<stop  offset="0.5347" style="stop-color:#DCDCDC"/>
				<stop  offset="0.5835" style="stop-color:#A9A9A9"/>
				<stop  offset="0.6346" style="stop-color:#7C7C7C"/>
				<stop  offset="0.687" style="stop-color:#565656"/>
				<stop  offset="0.741" style="stop-color:#363636"/>
				<stop  offset="0.7972" style="stop-color:#1E1E1E"/>
				<stop  offset="0.8565" style="stop-color:#0D0D0D"/>
				<stop  offset="0.9209" style="stop-color:#030303"/>
				<stop  offset="1" style="stop-color:#000000"/>
			</linearGradient>
			<path class="st18" d="M126.7,232c-32.1,0-58.1-26.1-58.1-58.1c0-32.1,26.1-58.1,58.1-58.1c32.1,0,58.1,26.1,58.1,58.1
				C184.9,206,158.8,232,126.7,232z"/>
		</g>
	</mask>
	<linearGradient id="SVGID_9_" gradientUnits="userSpaceOnUse" x1="81.7124" y1="210.4718" x2="171.2605" y2="137.7578">
		<stop  offset="0" style="stop-color:#FFFFFF"/>
		<stop  offset="0.431" style="stop-color:#FFFFFF"/>
		<stop  offset="0.5049" style="stop-color:#FFFFFF"/>
		<stop  offset="0.5347" style="stop-color:#F2DCDC"/>
		<stop  offset="0.5835" style="stop-color:#E0A9A9"/>
		<stop  offset="0.6346" style="stop-color:#D07C7C"/>
		<stop  offset="0.687" style="stop-color:#C25656"/>
		<stop  offset="0.741" style="stop-color:#B73636"/>
		<stop  offset="0.7972" style="stop-color:#AE1E1E"/>
		<stop  offset="0.8565" style="stop-color:#A80D0D"/>
		<stop  offset="0.9209" style="stop-color:#A40303"/>
		<stop  offset="1" style="stop-color:#A30000"/>
	</linearGradient>
	<path class="st19" d="M126.7,232c-32.1,0-58.1-26.1-58.1-58.1c0-32.1,26.1-58.1,58.1-58.1c32.1,0,58.1,26.1,58.1,58.1
		C184.9,206,158.8,232,126.7,232z"/>
	<defs>
		<filter id="Adobe_OpacityMaskFilter_2_" filterUnits="userSpaceOnUse" x="68.6" y="115.8" width="116.3" height="116.3">
			<feFlood  style="flood-color:white;flood-opacity:1" result="back"/>
			<feBlend  in="SourceGraphic" in2="back" mode="normal"/>
		</filter>
	</defs>
	<mask maskUnits="userSpaceOnUse" x="68.6" y="115.8" width="116.3" height="116.3" id="SVGID_10_" class="st1">
		<g style="filter:url(#Adobe_OpacityMaskFilter_2_);">
			<defs>
				<filter id="Adobe_OpacityMaskFilter_3_" filterUnits="userSpaceOnUse" x="68.6" y="115.8" width="116.3" height="116.3">
					<feFlood  style="flood-color:white;flood-opacity:1" result="back"/>
					<feBlend  in="SourceGraphic" in2="back" mode="normal"/>
				</filter>
			</defs>
			<mask maskUnits="userSpaceOnUse" x="68.6" y="115.8" width="116.3" height="116.3" id="SVGID_10_">
				<g class="st21">
				</g>
			</mask>
			<linearGradient id="SVGID_11_" gradientUnits="userSpaceOnUse" x1="132.3586" y1="116.0602" x2="121.0795" y2="231.9794">
				<stop  offset="0" style="stop-color:#000000"/>
				<stop  offset="0.5049" style="stop-color:#FFFFFF"/>
				<stop  offset="0.5347" style="stop-color:#DCDCDC"/>
				<stop  offset="0.5835" style="stop-color:#A9A9A9"/>
				<stop  offset="0.6346" style="stop-color:#7C7C7C"/>
				<stop  offset="0.687" style="stop-color:#565656"/>
				<stop  offset="0.741" style="stop-color:#363636"/>
				<stop  offset="0.7972" style="stop-color:#1E1E1E"/>
				<stop  offset="0.8565" style="stop-color:#0D0D0D"/>
				<stop  offset="0.9209" style="stop-color:#030303"/>
				<stop  offset="1" style="stop-color:#000000"/>
			</linearGradient>
			<path class="st22" d="M184.9,173.9c0,32-26.1,58.1-58.1,58.1c-23.9,0-44.4-14.5-53.4-35.1c-3.1-7.1-4.8-14.9-4.8-23
				c0-32.1,26.1-58.1,58.1-58.1c9.4,0,18.3,2.2,26.1,6.2C171.8,131.6,184.9,151.3,184.9,173.9z"/>
		</g>
	</mask>
	<linearGradient id="SVGID_12_" gradientUnits="userSpaceOnUse" x1="132.3586" y1="116.0602" x2="121.0795" y2="231.9794">
		<stop  offset="0" style="stop-color:#FFFFFF"/>
		<stop  offset="0.5049" style="stop-color:#FFFFFF"/>
		<stop  offset="0.5474" style="stop-color:#FFFFFF"/>
		<stop  offset="1" style="stop-color:#FFFFFF"/>
	</linearGradient>
	<path class="st23" d="M184.9,173.9c0,32-26.1,58.1-58.1,58.1c-23.9,0-44.4-14.5-53.4-35.1c-3.1-7.1-4.8-14.9-4.8-23
		c0-32.1,26.1-58.1,58.1-58.1c9.4,0,18.3,2.2,26.1,6.2C171.8,131.6,184.9,151.3,184.9,173.9z"/>
	<path class="st24" d="M184.9,173.9c0,31.2-24.8,56.8-55.7,58.1c29.7-2.6,51.8-27.5,51.8-57.9c0-32.1-24.8-58.1-56.9-58.1
		c-0.9,0-1.8,0-2.6,0.1c1.7-0.2,3.5-0.2,5.2-0.2C158.8,115.8,184.9,141.9,184.9,173.9z"/>
	<g class="st1">
		<path class="st25" d="M174,199.1c0,0-1.7,4.1-3.9,5.2c-1.1,0.5-2.1,0.7-3,0.6c0,0,0,0,0,0c-1-0.1-1.7-0.6-2-1.4
			c-0.6-1.5,0.8-3.7,3-4.8c0.5-0.2,1.1-0.4,1.7-0.4C171.8,198.3,174,199.1,174,199.1z"/>
		<path class="st25" d="M162,202.6c-0.4,0.3-0.9,0.4-1.5,0.3c-1.1-0.2-2.3-1.2-3.2-2.8c-1.2-2-1.1-5.5-1-6.5c0-0.2,0-0.3,0-0.3
			s3.8,1,5.2,3.3C163,198.9,163.2,201.6,162,202.6z"/>
		<path class="st25" d="M168,209.9c0,0-2.2,3.7-4.6,4.4c-0.7,0.2-1.4,0.3-2.1,0.2c-1.5-0.1-2.6-0.8-2.8-2c-0.3-1.6,1.3-3.5,3.7-4.1
			c0.2-0.1,0.4-0.1,0.6-0.1C165,208,168,209.9,168,209.9z"/>
		<path class="st25" d="M154.6,211.3c-0.3,0.1-0.5,0.1-0.8,0c-1.2-0.4-2.3-2.1-2.7-4.3c-0.4-2.1,0.6-5,1.1-6.2
			c0.1-0.4,0.3-0.6,0.3-0.6s3.2,2.6,3.7,5.4C156.7,208.4,156,210.9,154.6,211.3z"/>
		<path class="st25" d="M178.6,185.1c0,0-1,4.4-3,5.9c-1.3,1-2.6,1.4-3.7,1.3c-0.6-0.1-1.1-0.4-1.4-0.9c-0.8-1.4,0.2-3.8,2.3-5.4
			c1-0.7,2.3-1,3.5-1h0C177.5,184.9,178.6,185.1,178.6,185.1z"/>
		<path class="st25" d="M168,191.3c-0.4,0.7-1.2,1-2.2,0.8c-0.9-0.1-1.9-0.6-2.9-1.4c-2-1.7-2.8-6.1-2.8-6.1s0.3,0,0.7-0.1
			c0.1,0,0.1,0,0.2,0c1.3,0,3.6,0.1,4.9,1.2C167.9,187.5,168.8,189.9,168,191.3z"/>
		<path class="st25" d="M173.6,162c-0.9,2.5-2.6,4.1-3.9,3.7h0c-0.1,0-0.1,0-0.2-0.1c-1.3-0.7-1.6-3.3-0.7-5.9
			c0.7-1.9,2.6-3.4,3.7-4.1c0.5-0.3,0.8-0.5,0.8-0.5S174.5,159.4,173.6,162z"/>
		<path class="st25" d="M167.6,166.8c-0.4,1-1.5,1.5-2.9,1.4c-0.7-0.1-1.4-0.3-2.2-0.6c-2.3-1.1-3.9-5.2-3.9-5.2s1.6-0.7,3.4-0.7
			c0.9-0.1,1.8,0,2.6,0.4C166.8,163.1,168.2,165.3,167.6,166.8z"/>
		<path class="st25" d="M176.4,176.8c-1.3,1.8-2.9,2.7-4.1,2.5c-0.3-0.1-0.5-0.2-0.7-0.4c-1.1-1.1-0.7-3.7,0.8-5.9
			c1.1-1.6,3.3-2.4,4.5-2.7c0.5-0.2,0.9-0.2,0.9-0.2S177.9,174.5,176.4,176.8z"/>
		<path class="st25" d="M168.4,178.8c-0.4,0.9-1.4,1.2-2.6,1.1c-0.8-0.1-1.7-0.4-2.5-1c-2.1-1.4-3.4-5.7-3.4-5.7s1-0.3,2.3-0.3h0.1
			c1.2-0.1,2.6,0.1,3.6,0.7C167.9,175,169.1,177.3,168.4,178.8z"/>
		<path class="st25" d="M168.3,148.5c-0.5,2.4-1.8,4.2-3.1,3.8c0,0-0.1,0-0.1,0c-1.1-0.4-1.7-2.6-1.2-4.9c0.3-1.7,1.8-3.3,2.6-4.2
			c0.4-0.4,0.6-0.6,0.6-0.6S168.8,146,168.3,148.5z"/>
		<path class="st25" d="M164.4,155.5c-0.2,1.2-1.6,1.9-3.3,1.7c-0.3,0-0.6-0.1-0.9-0.2c-2.1-0.6-4.1-3.8-4.1-3.8s2-1.3,3.8-1.4
			c0.4-0.1,0.9,0,1.3,0.1C163.2,152.5,164.7,154.1,164.4,155.5z"/>
		<path class="st25" d="M161.6,139c-0.1,2.2-1.1,3.9-2.2,3.8c-0.1,0-0.3,0-0.4-0.1c-0.9-0.4-1.5-2.1-1.4-4c0.1-1.5,1.1-3.1,1.7-3.9
			c0.3-0.4,0.5-0.6,0.5-0.6S161.8,136.8,161.6,139z"/>
		<path class="st25" d="M159.6,146.2c-0.1,1.3-1.6,2.2-3.5,2c0,0-0.1,0-0.1,0c-1.8-0.2-3.8-2.6-3.8-2.6s1.8-1.7,3.5-2
			c0.2,0,0.4,0,0.6,0C158.2,143.8,159.6,144.9,159.6,146.2z"/>
		<path class="st25" d="M155.9,139.6c-0.3,0.7-1.1,0.9-2,0.8c-0.6-0.1-1.3-0.4-1.9-0.8c-1.6-1.1-2.5-4.4-2.5-4.4s0.6-0.1,1.4-0.2
			c1-0.1,2.2,0,3.1,0.6C155.6,136.8,156.5,138.5,155.9,139.6z"/>
	</g>
	<g class="st1">
		<path class="st12" d="M173.1,199.1c0,0-1.6,4.1-3.9,5.2c-0.7,0.4-1.5,0.6-2.2,0.6c0,0,0,0,0,0c-1-0.1-1.7-0.6-2-1.4
			c-0.6-1.5,0.8-3.7,3-4.8c0.5-0.2,1.1-0.4,1.7-0.4C171.5,198.5,173.1,199.1,173.1,199.1z"/>
		<path class="st12" d="M161.1,202.6c-0.2,0.1-0.4,0.3-0.6,0.3c-1.1-0.2-2.3-1.2-3.2-2.8c-1.2-2-1.1-5.5-1-6.5
			c1.2,0.4,3.3,1.4,4.3,3C162.1,198.9,162.3,201.6,161.1,202.6z"/>
		<path class="st12" d="M167.1,209.9c0,0-2.2,3.7-4.6,4.4c-0.4,0.1-0.8,0.2-1.2,0.2c-1.5-0.1-2.6-0.8-2.8-2
			c-0.3-1.6,1.3-3.5,3.7-4.1c0.2-0.1,0.4-0.1,0.6-0.1C164.8,208.5,167.1,209.9,167.1,209.9z"/>
		<path class="st12" d="M153.8,211.3c-1.2-0.4-2.3-2.1-2.7-4.3c-0.4-2.1,0.6-5,1.1-6.2c1,0.9,2.7,2.8,3.1,4.8
			C155.7,208.3,155.1,210.8,153.8,211.3z"/>
		<path class="st12" d="M177.7,185.1c0,0-1,4.4-3,5.9c-0.9,0.7-1.9,1.1-2.8,1.3c-0.6-0.1-1.1-0.4-1.4-0.9c-0.8-1.4,0.2-3.8,2.3-5.4
			c1-0.7,2.3-1,3.5-1h0C177.1,185,177.7,185.1,177.7,185.1z"/>
		<path class="st12" d="M167.1,191.3c-0.3,0.5-0.8,0.7-1.3,0.8c-0.9-0.1-1.9-0.6-2.9-1.4c-2-1.7-2.8-6.1-2.8-6.1s0.3,0,0.7-0.1
			c0.1,0,0.1,0,0.2,0c1.3,0.1,3,0.3,4.1,1.2C167,187.5,167.9,189.9,167.1,191.3z"/>
		<path class="st12" d="M172.7,162c-0.7,1.9-1.9,3.3-3,3.7h0c-0.1,0-0.1,0-0.2-0.1c-1.3-0.7-1.6-3.3-0.7-5.9
			c0.7-1.9,2.6-3.4,3.7-4.1C172.8,156.8,173.4,159.9,172.7,162z"/>
		<path class="st12" d="M166.7,166.8c-0.3,0.8-1,1.3-2,1.4c-0.7-0.1-1.4-0.3-2.2-0.6c-2.3-1.1-3.9-5.2-3.9-5.2s1.6-0.7,3.4-0.7
			c0.6,0,1.2,0.2,1.7,0.4C165.9,163.1,167.3,165.3,166.7,166.8z"/>
		<path class="st12" d="M175.5,176.8c-1,1.4-2.2,2.3-3.2,2.5c-0.3-0.1-0.5-0.2-0.7-0.4c-1.1-1.1-0.7-3.7,0.8-5.9
			c1.1-1.6,3.3-2.4,4.5-2.7C176.9,171.2,176.8,174.8,175.5,176.8z"/>
		<path class="st12" d="M167.5,178.8c-0.3,0.6-0.9,1-1.7,1.1c-0.8-0.1-1.7-0.4-2.5-1c-2.1-1.4-3.4-5.7-3.4-5.7s1-0.3,2.3-0.3h0.1
			c0.9,0,1.9,0.2,2.7,0.7C167,175,168.2,177.3,167.5,178.8z"/>
		<path class="st12" d="M167.4,148.5c-0.4,1.9-1.3,3.4-2.3,3.8c-1.1-0.4-1.7-2.6-1.2-4.9c0.3-1.7,1.8-3.3,2.6-4.2
			C167,144.2,167.8,146.6,167.4,148.5z"/>
		<path class="st12" d="M163.5,155.5c-0.2,1-1.2,1.6-2.4,1.7c-0.3,0-0.6-0.1-0.9-0.2c-2.1-0.6-4.1-3.8-4.1-3.8s2-1.3,3.8-1.4
			c0.1,0,0.3,0,0.4,0.1C162.3,152.5,163.8,154.1,163.5,155.5z"/>
		<path class="st12" d="M160.8,139c-0.1,1.8-0.8,3.3-1.7,3.7c-0.9-0.4-1.5-2.1-1.4-4c0.1-1.5,1.1-3.1,1.7-3.9
			C160,135.7,160.8,137.5,160.8,139z"/>
		<path class="st12" d="M158.7,146.2c-0.1,1.1-1.2,1.9-2.7,2c-1.8-0.2-3.8-2.6-3.8-2.6s1.8-1.7,3.5-2
			C157.4,143.9,158.7,145,158.7,146.2z"/>
		<path class="st12" d="M155,139.6c-0.2,0.4-0.6,0.7-1.1,0.8c-0.6-0.1-1.3-0.4-1.9-0.8c-1.6-1.1-2.5-4.4-2.5-4.4s0.6-0.1,1.4-0.2
			c0.8,0,1.6,0.2,2.2,0.6C154.7,136.8,155.6,138.5,155,139.6z"/>
	</g>
	<g class="st1">
		<path class="st25" d="M88.1,202.8c-0.6,1.6-2.8,2-5.1,0.8c-0.1,0-0.2-0.1-0.3-0.1c-2.1-1.3-3.7-5.3-3.7-5.3s3.3-1.4,5.5-0.5
			c0.1,0,0.3,0.1,0.4,0.2C87.3,198.9,88.7,201.2,88.1,202.8z"/>
		<path class="st25" d="M95.8,199.1c-1.4,2.4-3.5,3.6-4.7,2.6c0,0-0.1-0.1-0.1-0.1c-1.1-1.1-0.8-3.8,0.6-6.2c1-1.7,3.2-2.7,4.4-3.2
			c0.5-0.2,0.8-0.3,0.8-0.3S97.3,196.7,95.8,199.1z"/>
		<path class="st25" d="M94.8,212.1c-0.3,1.7-2.5,2.5-4.9,1.9c-0.4-0.1-0.7-0.3-1.1-0.5c-1.9-1.3-3.6-4-3.6-4s3.4-2.3,5.8-1.6
			c0.3,0.1,0.5,0.2,0.7,0.3C93.7,208.9,95.1,210.6,94.8,212.1z"/>
		<path class="st25" d="M102.1,206.3c-0.6,2.9-2.1,5-3.5,4.6c-0.2-0.1-0.4-0.2-0.6-0.4c-0.9-0.9-1.3-3.2-0.9-5.6
			c0.4-2.2,2.3-4.3,3.2-5.2c0.3-0.3,0.5-0.5,0.5-0.5S102.7,203.4,102.1,206.3z"/>
		<path class="st25" d="M82.8,190c-0.7,1.3-2.5,1.3-4.3,0.2c0,0,0,0,0,0c-0.3-0.1-0.5-0.3-0.8-0.5c-2-1.6-3-6.2-3-6.2
			s2.6-0.5,4.7,0.3c0.4,0.2,0.8,0.4,1.2,0.6C82.5,186,83.5,188.5,82.8,190z"/>
		<path class="st25" d="M93.1,182.9c0,0-0.9,4.6-2.8,6.4c-1.8,1.5-3.7,1.9-4.7,1c-0.1-0.1-0.3-0.3-0.4-0.4c-0.8-1.4,0.1-4,2.1-5.7
			c1.4-1.2,3.6-1.3,4.9-1.3C92.8,182.9,93.1,182.9,93.1,182.9z"/>
		<path class="st25" d="M83.7,163c-0.6,0.3-1.2,0.1-1.9-0.3c-0.9-0.6-1.7-1.9-2.2-3.4c-0.9-2.5,0.1-6.4,0.3-7.1c0-0.1,0-0.1,0-0.1
			s3.5,2,4.5,4.8C85.3,159.5,85,162.3,83.7,163z"/>
		<path class="st25" d="M94.6,159.6c0,0-1.7,4.3-3.9,5.5c-1.7,0.9-3.5,0.9-4.4,0.1c-0.3-0.2-0.5-0.5-0.7-0.9c-0.6-1.6,0.8-3.9,3.1-5
			c1.5-0.8,3.8-0.3,5,0.1C94.2,159.4,94.6,159.6,94.6,159.6z"/>
		<path class="st25" d="M81.6,176.9c-0.7,0.7-1.7,0.6-2.8-0.1c-0.7-0.4-1.4-1.2-2.1-2.1c-1.6-2.3-1.4-7.1-1.4-7.1s1.2,0.2,2.5,0.8
			c1.1,0.5,2.2,1.2,2.9,2.2C82.3,173,82.7,175.8,81.6,176.9z"/>
		<path class="st25" d="M93.4,171c0,0-1.3,4.5-3.4,5.9c-1.7,1.2-3.6,1.4-4.6,0.5c-0.2-0.2-0.4-0.4-0.5-0.7c-0.7-1.5,0.5-3.9,2.6-5.4
			c1.5-1,3.7-0.8,5-0.6C93,170.9,93.4,171,93.4,171z"/>
		<path class="st25" d="M87.9,149c-0.4,0.1-0.9,0-1.3-0.4c-0.8-0.7-1.4-2-1.7-3.6c-0.4-2.1,0.7-5,1.1-5.9c0.1-0.2,0.1-0.3,0.1-0.3
			s2.8,2.4,3.2,5C89.7,146.3,89.1,148.7,87.9,149z"/>
		<path class="st25" d="M97.1,150.1c0,0-2,3.4-4.1,4c-1.4,0.4-2.7,0.2-3.5-0.4c-0.4-0.3-0.7-0.7-0.8-1.2c-0.3-1.5,1.2-3.2,3.3-3.7
			c1.1-0.3,2.4,0.1,3.5,0.6C96.4,149.6,97.1,150.1,97.1,150.1z"/>
		<path class="st25" d="M93.7,139c-0.3,0-0.7-0.1-1-0.4c-0.6-0.7-1.1-2-1.2-3.5c-0.1-1.7,1-3.8,1.5-4.7c0.2-0.3,0.2-0.4,0.2-0.4
			s2.1,2.5,2.2,4.8C95.6,137,94.8,138.9,93.7,139z"/>
		<path class="st25" d="M101,142c0,0-2.1,2.6-3.9,2.7c-1,0.1-1.9-0.2-2.6-0.6c-0.5-0.4-0.9-0.9-0.9-1.5c-0.1-1.3,1.4-2.5,3.2-2.7
			c0.5,0,1,0.1,1.5,0.3C99.7,140.8,101,142,101,142z"/>
		<path class="st25" d="M103.7,131.1c0,0-0.9,3.4-2.5,4.6c-1.4,1-2.9,1.2-3.6,0.4c-0.1-0.1-0.2-0.2-0.3-0.4c-0.6-1.1,0.3-3,1.9-4.2
			c1-0.7,2.6-0.7,3.5-0.6C103.3,131,103.7,131.1,103.7,131.1z"/>
	</g>
	<g class="st1">
		<path class="st12" d="M87.3,202.4c-0.5,1.5-2.4,1.9-4.5,1.1c-2.1-1.3-3.7-5.3-3.7-5.3s3.3-1.4,5.5-0.5
			C86.6,198.8,87.8,200.9,87.3,202.4z"/>
		<path class="st12" d="M95,198.7c-1.1,2-2.7,3.1-3.9,2.9c-1.1-1.1-0.8-3.8,0.6-6.2c1-1.7,3.2-2.7,4.4-3.2
			C96.1,193.7,96.1,196.9,95,198.7z"/>
		<path class="st12" d="M93.9,211.7c-0.3,1.7-2.5,2.5-4.9,1.9c-0.1,0-0.1,0-0.2-0.1c-1.9-1.3-3.6-4-3.6-4s3.4-2.3,5.8-1.6
			c0.3,0.1,0.5,0.2,0.7,0.3C93.2,209,94.1,210.4,93.9,211.7z"/>
		<path class="st12" d="M101.3,205.9c-0.5,2.8-2,4.7-3.3,4.6c-0.9-0.9-1.3-3.2-0.9-5.6c0.4-2.2,2.3-4.3,3.2-5.2
			C100.8,201.1,101.7,203.8,101.3,205.9z"/>
		<path class="st12" d="M81.9,189.5c-0.6,1.1-2,1.3-3.5,0.7c0,0,0,0,0,0c-0.3-0.1-0.5-0.3-0.8-0.5c-2-1.6-3-6.2-3-6.2
			s2.6-0.5,4.7,0.3c0.1,0.1,0.2,0.1,0.3,0.2C81.6,185.6,82.7,188.1,81.9,189.5z"/>
		<path class="st12" d="M92.2,182.8c-0.3,1.1-1.1,4.5-2.7,6c-1.3,1.2-2.8,1.7-3.9,1.5c-0.1-0.1-0.3-0.3-0.4-0.4
			c-0.8-1.4,0.1-4,2.1-5.7C88.6,182.9,90.9,182.8,92.2,182.8z"/>
		<path class="st12" d="M82.8,162.5c-0.3,0.2-0.7,0.2-1,0.1c-0.9-0.6-1.7-1.9-2.2-3.4c-0.9-2.5,0.1-6.4,0.3-7.1
			c1.1,0.8,3,2.3,3.6,4.2C84.5,159.1,84.2,161.9,82.8,162.5z"/>
		<path class="st12" d="M93.7,159.2c-0.3,0.7-1.8,4.3-3.9,5.3c-1.3,0.7-2.6,0.8-3.6,0.6c-0.3-0.2-0.5-0.5-0.7-0.9
			c-0.6-1.6,0.8-3.9,3.1-5C90.2,158.4,92.4,158.9,93.7,159.2z"/>
		<path class="st12" d="M80.7,176.4c-0.5,0.5-1.1,0.6-1.9,0.3c-0.7-0.4-1.4-1.2-2.1-2.1c-1.6-2.3-1.4-7.1-1.4-7.1s1.2,0.2,2.5,0.8
			c0.8,0.4,1.6,1.1,2.1,1.8C81.5,172.6,81.8,175.3,80.7,176.4z"/>
		<path class="st12" d="M92.4,170.8c-0.3,0.9-1.5,4.4-3.4,5.7c-1.3,0.9-2.7,1.2-3.7,1c-0.2-0.2-0.4-0.4-0.5-0.7
			c-0.7-1.5,0.5-3.9,2.6-5.4C88.9,170.4,91.2,170.6,92.4,170.8z"/>
		<path class="st12" d="M87,148.6c-0.2,0-0.3,0.1-0.5,0c-0.8-0.7-1.4-2-1.7-3.6c-0.4-2.1,0.7-5,1.1-5.9c0.9,0.9,2.2,2.5,2.5,4.2
			C88.9,145.9,88.3,148.2,87,148.6z"/>
		<path class="st12" d="M96.3,149.7c0,0-2,3.4-4.1,4c-0.9,0.3-1.9,0.3-2.6,0c-0.4-0.3-0.7-0.7-0.8-1.2c-0.3-1.5,1.2-3.2,3.3-3.7
			c1.1-0.3,2.4,0.1,3.5,0.6C96,149.5,96.3,149.7,96.3,149.7z"/>
		<path class="st12" d="M92.8,138.6h-0.1c-0.6-0.7-1.1-2-1.2-3.5c-0.1-1.7,1-3.8,1.5-4.7c0.6,0.9,1.5,2.5,1.6,3.9
			C94.7,136.6,93.9,138.5,92.8,138.6z"/>
		<path class="st12" d="M100.2,141.6c0,0-2.1,2.6-3.9,2.7c-0.6,0.1-1.2,0-1.7-0.2c-0.5-0.4-0.9-0.9-0.9-1.5
			c-0.1-1.3,1.4-2.5,3.2-2.7c0.5,0,1,0.1,1.5,0.3C99.4,140.8,100.2,141.6,100.2,141.6z"/>
		<path class="st12" d="M102.7,130.9c-0.2,0.8-1.1,3.4-2.4,4.3c-1,0.7-2,1-2.8,0.9c-0.1-0.1-0.2-0.2-0.3-0.4c-0.6-1.1,0.3-3,1.9-4.2
			C100.2,130.8,101.7,130.8,102.7,130.9z"/>
	</g>
	<g class="st1">
		<linearGradient id="SVGID_13_" gradientUnits="userSpaceOnUse" x1="208.3557" y1="-70.6702" x2="110.7374" y2="80.0822">
			<stop  offset="0" style="stop-color:#A51500"/>
			<stop  offset="1" style="stop-color:#DD1D00"/>
		</linearGradient>
		<polygon class="st26" points="145.8,-21.3 118.9,108 123.3,108 153.6,-21.3 		"/>
		<linearGradient id="SVGID_14_" gradientUnits="userSpaceOnUse" x1="123.3247" y1="43.3233" x2="179.8101" y2="43.3233">
			<stop  offset="0" style="stop-color:#C8C8C8"/>
			<stop  offset="0.5343" style="stop-color:#FFFFFF"/>
			<stop  offset="1" style="stop-color:#C8C8C8"/>
		</linearGradient>
		<polygon class="st27" points="153.6,-21.3 123.3,108 129.1,108 162.7,-21.3 		"/>
		<polygon class="st4" points="162.7,-21.3 129.1,108 131.6,108 170.7,-21.3 		"/>
		<linearGradient id="SVGID_15_" gradientUnits="userSpaceOnUse" x1="220.6666" y1="-70.2325" x2="122.6568" y2="81.1244">
			<stop  offset="0" style="stop-color:#A51500"/>
			<stop  offset="1" style="stop-color:#DD1D00"/>
		</linearGradient>
		<polygon class="st28" points="162.7,-21.3 129.1,108 131.6,108 170.7,-21.3 		"/>
	</g>
	<path class="st29" d="M184.9,173.9c0,32-26.1,58.1-58.1,58.1c-1.6,0-3.2-0.1-4.7-0.2c-21.8-1.8-40.3-15.6-48.7-34.9
		c86.3,20.1,81.3-59,79.7-73.1c0,0,0.4-1.3,0.4-1.6c10.6,5.3,18.7,13.5,24.4,23.9C182.3,154.5,184.9,163.9,184.9,173.9z"/>
	<path class="st30" d="M184.9,173.9c0,32-26.1,58.1-58.1,58.1c-1.6,0-3.2-0.1-4.7-0.2c39.4-13.7,51.4-55.7,55-79.4l2.7-2.5
		C182.9,157.3,184.9,163.9,184.9,173.9z"/>
	<defs>
		<filter id="Adobe_OpacityMaskFilter_4_" filterUnits="userSpaceOnUse" x="65.6" y="134" width="105.6" height="92.5">
			<feFlood  style="flood-color:white;flood-opacity:1" result="back"/>
			<feBlend  in="SourceGraphic" in2="back" mode="normal"/>
		</filter>
	</defs>
	<mask maskUnits="userSpaceOnUse" x="65.6" y="134" width="105.6" height="92.5" id="SVGID_16_" class="st1">
		<g style="filter:url(#Adobe_OpacityMaskFilter_4_);">
			<defs>
				<filter id="Adobe_OpacityMaskFilter_5_" filterUnits="userSpaceOnUse" x="65.6" y="134" width="105.6" height="92.5">
					<feFlood  style="flood-color:white;flood-opacity:1" result="back"/>
					<feBlend  in="SourceGraphic" in2="back" mode="normal"/>
				</filter>
			</defs>
			<mask maskUnits="userSpaceOnUse" x="65.6" y="134" width="105.6" height="92.5" id="SVGID_16_">
				<g class="st32">
				</g>
			</mask>
			<linearGradient id="SVGID_17_" gradientUnits="userSpaceOnUse" x1="163.336" y1="221.8365" x2="77.1514" y2="143.959">
				<stop  offset="0" style="stop-color:#000000"/>
				<stop  offset="1" style="stop-color:#FFFFFF"/>
			</linearGradient>
			<path class="st33" d="M171.2,217.5c-3.3,3.4-7,6.4-11,9l-0.7-2.8l-0.4-1.5l-3.2,0.4l-7.7-6.9l-75.4-63.4l-1.7-6.4l-5.5,1.8
				c0.3-0.6,0.6-1.2,0.8-1.7c0.5-1,1-2,1.5-3c1.3-2.6,2.9-5,4.6-7.3l6.5-1.6l0.3,6.4l73,60l2.1,1.9l0,0h0l2.9,2.6l4.1,3.7h0l3.9,3.6
				l0.5,0.4l0.6,0.6l3.1,0l0.2,0.6L171.2,217.5z"/>
		</g>
	</mask>
	<linearGradient id="SVGID_18_" gradientUnits="userSpaceOnUse" x1="163.336" y1="221.8365" x2="77.1514" y2="143.959">
		<stop  offset="0" style="stop-color:#FFFFFF"/>
		<stop  offset="1" style="stop-color:#FFFFFF"/>
	</linearGradient>
	<path class="st34" d="M171.2,217.5c-3.3,3.4-7,6.4-11,9l-0.7-2.8l-0.4-1.5l-3.2,0.4l-7.7-6.9l-75.4-63.4l-1.7-6.4l-5.5,1.8
		c0.3-0.6,0.6-1.2,0.8-1.7c0.5-1,1-2,1.5-3c1.3-2.6,2.9-5,4.6-7.3l6.5-1.6l0.3,6.4l73,60l2.1,1.9l0,0h0l2.9,2.6l4.1,3.7h0l3.9,3.6
		l0.5,0.4l0.6,0.6l3.1,0l0.2,0.6L171.2,217.5z"/>
	<defs>
		<filter id="Adobe_OpacityMaskFilter_6_" filterUnits="userSpaceOnUse" x="77.3" y="124.7" width="102.1" height="88.1">
			<feFlood  style="flood-color:white;flood-opacity:1" result="back"/>
			<feBlend  in="SourceGraphic" in2="back" mode="normal"/>
		</filter>
	</defs>
	<mask maskUnits="userSpaceOnUse" x="77.3" y="124.7" width="102.1" height="88.1" id="SVGID_19_" class="st1">
		<g style="filter:url(#Adobe_OpacityMaskFilter_6_);">
			<defs>
				<filter id="Adobe_OpacityMaskFilter_7_" filterUnits="userSpaceOnUse" x="77.3" y="124.7" width="102.1" height="88.1">
					<feFlood  style="flood-color:white;flood-opacity:1" result="back"/>
					<feBlend  in="SourceGraphic" in2="back" mode="normal"/>
				</filter>
			</defs>
			<mask maskUnits="userSpaceOnUse" x="77.3" y="124.7" width="102.1" height="88.1" id="SVGID_19_">
				<g class="st36">
				</g>
			</mask>
			<linearGradient id="SVGID_20_" gradientUnits="userSpaceOnUse" x1="162.4471" y1="199.7989" x2="102.0186" y2="141.1936">
				<stop  offset="0" style="stop-color:#000000"/>
				<stop  offset="1" style="stop-color:#FFFFFF"/>
			</linearGradient>
			<path class="st37" d="M179.5,207.1c-1.3,2-2.6,3.9-4.1,5.7l-1.7-4.4l-0.1-0.2l-3.3,0l-86.5-73.5l-0.6-5.4l-5.8,0.2
				c0.3-0.2,0.5-0.5,0.7-0.7c0.7-0.7,1.5-1.5,2.2-2.2c0.5-0.5,1.1-1,1.7-1.5l6.6-0.5l-0.1,5.2l84.5,71.3l1.1,1l3.1-0.1l0.4,0
				L179.5,207.1z"/>
		</g>
	</mask>
	<linearGradient id="SVGID_21_" gradientUnits="userSpaceOnUse" x1="162.4471" y1="199.7989" x2="102.0186" y2="141.1936">
		<stop  offset="0" style="stop-color:#FFFFFF"/>
		<stop  offset="1" style="stop-color:#FFFFFF"/>
	</linearGradient>
	<path class="st38" d="M179.5,207.1c-1.3,2-2.6,3.9-4.1,5.7l-1.7-4.4l-0.1-0.2l-3.3,0l-86.5-73.5l-0.6-5.4l-5.8,0.2
		c0.3-0.2,0.5-0.5,0.7-0.7c0.7-0.7,1.5-1.5,2.2-2.2c0.5-0.5,1.1-1,1.7-1.5l6.6-0.5l-0.1,5.2l84.5,71.3l1.1,1l3.1-0.1l0.4,0
		L179.5,207.1z"/>
</g>
<g class="st0">
	<g class="st1">
		
			<linearGradient id="SVGID_22_" gradientUnits="userSpaceOnUse" x1="246.6194" y1="142.4417" x2="304.2865" y2="81.7747" gradientTransform="matrix(-1 0 0 1 457.7283 0)">
			<stop  offset="0.1569" style="stop-color:#13589C"/>
			<stop  offset="0.5251" style="stop-color:#13579A"/>
			<stop  offset="0.6822" style="stop-color:#125393"/>
			<stop  offset="0.799" style="stop-color:#104C86"/>
			<stop  offset="0.8959" style="stop-color:#0E4275"/>
			<stop  offset="0.9797" style="stop-color:#0B355E"/>
			<stop  offset="1" style="stop-color:#0A3157"/>
		</linearGradient>
		<polygon class="st39" points="97.8,-21.3 128.1,108 132.5,108 105.7,-21.3 		"/>
		<linearGradient id="SVGID_23_" gradientUnits="userSpaceOnUse" x1="140.3947" y1="97.9775" x2="24.2401" y2="-111.3383">
			<stop  offset="0" style="stop-color:#8E8E8E"/>
			<stop  offset="0.5343" style="stop-color:#FFFFFF"/>
			<stop  offset="1" style="stop-color:#C8C8C8"/>
		</linearGradient>
		<polygon class="st40" points="88.7,-21.3 122.3,108 128.1,108 97.8,-21.3 		"/>
		<polygon class="st4" points="80.3,-21.3 118.3,108 122.3,108 88.7,-21.3 		"/>
		
			<linearGradient id="SVGID_24_" gradientUnits="userSpaceOnUse" x1="253.6406" y1="149.1169" x2="311.308" y2="88.4496" gradientTransform="matrix(-1 0 0 1 457.7283 0)">
			<stop  offset="0.1569" style="stop-color:#13589C"/>
			<stop  offset="0.5251" style="stop-color:#13579A"/>
			<stop  offset="0.6822" style="stop-color:#125393"/>
			<stop  offset="0.799" style="stop-color:#104C86"/>
			<stop  offset="0.8959" style="stop-color:#0E4275"/>
			<stop  offset="0.9797" style="stop-color:#0B355E"/>
			<stop  offset="1" style="stop-color:#0A3157"/>
		</linearGradient>
		<polygon class="st41" points="80.3,-21.3 118.3,108 122.3,108 88.7,-21.3 		"/>
	</g>
	<linearGradient id="SVGID_25_" gradientUnits="userSpaceOnUse" x1="60.2977" y1="166.4398" x2="183.2532" y2="166.4398">
		<stop  offset="0" style="stop-color:#9EA0A6"/>
		<stop  offset="1" style="stop-color:#7F8389"/>
	</linearGradient>
	<path class="st42" d="M178.9,150.7L178.9,150.7c-2.3-5.7-5.3-10.9-9-15.7c0,0,0-0.1,0-0.1c-0.3-0.3-0.5-0.6-0.7-0.9
		c0,0-0.1-0.1-0.1-0.1c-7.9-9.7-18.5-16.9-30.8-20.5c-0.4-0.2-0.9-0.3-1.4-0.4c-0.8-0.2-1.5-0.4-2.3-0.6l0.7,0l0.3,0l0.3,0l0.9,0
		l1.2,0c0-0.1,0.1-0.5,0.2-1.3c0.1-1.1-0.8-4.8-2.3-7.6v0c0,0,0,0,0,0c-0.3-0.5-0.5-0.9-0.8-1.3c0,0,0-0.1,0-0.1
		c-2.4-3.6-6.3-4.5-9.5-4.5c-3.6,0-8.3,1.2-10.7,3.7c-4.8,4.9-5.2,8.2-5.3,10.5v0.1c-8.9,1.7-16.9,5.2-23.8,10.2
		c-1.3,0.9-2.6,1.9-3.8,3c-0.6,0.5-1.1,1-1.7,1.5c-0.8,0.7-1.5,1.4-2.2,2.2c-0.2,0.2-0.4,0.4-0.7,0.7h0c-0.5,0.5-1,1-1.4,1.6
		c-1.2,1.4-2.4,2.9-3.5,4.4c-1.7,2.3-3.2,4.7-4.6,7.3c-0.5,1-1,2-1.5,3c-0.3,0.6-0.5,1.2-0.8,1.7c-3.4,8-5.3,16.8-5.3,26.2
		c0,28.6,19.5,51.4,45.5,58.7c5.7,1.6,11.7,2.5,17.9,2.5c13.1,0,24.9-3.8,34.4-10.4c0.4-0.3,0.9-0.6,1.3-0.9
		c3.4-2.5,6.4-5.3,9.2-8.5c0.4-0.4,0.8-0.9,1.1-1.3c1-1.2,1.9-2.4,2.7-3.6c0.4-0.6,0.8-1.2,1.2-1.8c0.4-0.6,0.8-1.2,1.1-1.9
		c0-0.1,0.1-0.1,0.1-0.2c0.4-0.7,0.8-1.5,1.2-2.3c0.3-0.7,0.7-1.3,1-2c3.9-8.3,6.1-17.8,6.1-28C183.3,165.8,181.7,158,178.9,150.7z
		 M115.3,106.8c0.3-1.2,0.6-0.6,1.1-0.2c0.3,0.2,0.7,0.4,1.2-0.3c0.3-0.4,0.6-0.8,0.9-1.1c1.4-1.4,3.1-2.1,5.2-2.1
		c1.2,0,2.3,0.2,3.2,0.7c0.4,0.2,0.7,0.4,1.1,0.6c0.1,0.1,0.2,0.2,0.3,0.3c0.2,0.1,4.4,3.7,4.3,6.2c-0.2,0-0.4-0.1-0.6-0.1
		c-3.6-0.6-7.6-0.6-11.3-0.2c-1.3,0.1-2.4,0.3-3.6,0.5c-0.5,0.1-1.1,0.1-1.6,0.2c-0.2,0-0.5,0.1-0.7,0.1
		C114.8,110,114.9,108.4,115.3,106.8z"/>
	<path class="st7" d="M135.5,112.5c0,0-3.1-1.8-2.9-1.7c0.1-2.5-4.1-6.1-4.3-6.3c-0.4-0.4-0.9-0.6-1.4-0.9c0.9-0.4,2.3,0,3.1,0.2
		l0.7,0.7C132.3,107.1,136.9,108.7,135.5,112.5z"/>
	<path class="st8" d="M138.6,117c0.1,0-6.4,0-6.4,0l-15.3,0.8l-1.4-6.6c1.7-0.2,3.4-0.5,5.2-0.7c3.9-0.4,8.2-0.4,11.9,0.3
		c0,0,4.5,2.9,4.6,3.1C138.1,116,138.5,117,138.6,117z"/>
	<path class="st9" d="M135.8,103.7L135.8,103.7c0,0.2-5.7-1.6-5.7-1.6l-10,1.4l-1.5,0.2l-1,2.6l-1.2,0.3l-1.1,0.3l-2.8,7.1l-0.8-0.5
		l-2.2-1.4c0-2.3,0.4-5.6,5.2-10.5c1-1,2.4-1.9,4-2.5c2.2-0.8,4.6-1.2,6.7-1.2c2.6,0,5.7,0.6,8.1,2.8c0.5,0.5,1,1,1.4,1.6
		C135.2,102.7,135.5,103.1,135.8,103.7C135.7,103.6,135.7,103.7,135.8,103.7z"/>
	<linearGradient id="SVGID_26_" gradientUnits="userSpaceOnUse" x1="64.4315" y1="167.565" x2="189.0267" y2="167.565">
		<stop  offset="0" style="stop-color:#7F8389"/>
		<stop  offset="1" style="stop-color:#9EA0A6"/>
	</linearGradient>
	<path class="st43" d="M140.1,113.1c0-1.9-0.3-4.5-2.7-7.9c-0.7-0.9-1.5-1.9-2.5-2.9c-2.4-2.4-5.4-3.3-9-3.3c-2,0-3.9,0.4-5.5,1.2
		l0,0c-1.3,0.6-2.4,1.4-3.4,2.5c-5,5.1-5.2,9.1-5.2,10.8v0.1c-8.6,2.1-16.4,6-23.2,11.3c-1.9,1.4-3.7,3-5.3,4.7
		c-1.5,1.5-2.9,3-4.2,4.6c-3,3.6-5.7,7.6-7.8,11.9c-4.3,8.4-6.7,18-6.7,28.1c0,27.1,17.3,50.1,41.4,58.7c6.5,2.3,13.6,3.6,20.9,3.6
		c12.3,0,23.8-3.6,33.4-9.7c4-2.6,7.7-5.6,11-9c1.5-1.5,2.9-3.1,4.2-4.7c1.5-1.8,2.9-3.7,4.1-5.7c6.1-9.6,9.6-21,9.6-33.2
		C189,144.1,168.1,119.2,140.1,113.1z M126.7,111.6c-3.3,0-6.6,0.3-9.8,0.8c0-0.6,0.1-1,0.2-1.5c0.3-1.4,1-2.1,2.6-3.7
		c0.3-0.3,0.7-0.7,1-1.1c1.4-1.4,3.1-2.1,5.2-2.1c0.7,0,1.4,0,2.1,0.1c1.2,0.2,2.3,0.6,3.2,1.6c0.7,0.7,1.3,1.4,1.7,1.9
		c1.3,1.7,1.7,2.9,1.9,4.4C132.2,111.8,129.5,111.6,126.7,111.6z"/>
	<path class="st7" d="M137.4,105.2l-4.5,2.6c-0.4-0.6-1-1.2-1.7-1.9c-0.9-0.9-2-1.4-3.2-1.6c-0.6-0.1-1.3-0.1-2.1-0.1
		c-2.1,0-3.9,0.7-5.2,2.1c-0.4,0.4-0.7,0.7-1,1.1l0.4-3.9l0.3-3.3l0,0c0-0.1-0.9-0.6-1.6-1.1c2.2-0.8,4.6-1.2,6.7-1.2
		c2.6,0,5.7,0.6,8.1,2.8c0.4,0.6,0.9,1.1,1.4,1.6C135.9,103.3,136.7,104.3,137.4,105.2z"/>
	<g class="st1">
		<radialGradient id="SVGID_27_" cx="126.73" cy="173.9176" r="58.1309" gradientUnits="userSpaceOnUse">
			<stop  offset="0" style="stop-color:#83848C"/>
			<stop  offset="1" style="stop-color:#9C9FA4"/>
		</radialGradient>
		<path class="st44" d="M126.7,232c-32.1,0-58.1-26.1-58.1-58.1c0-32.1,26.1-58.1,58.1-58.1c32.1,0,58.1,26.1,58.1,58.1
			C184.9,206,158.8,232,126.7,232z"/>
	</g>
	<g class="st1">
		<path class="st45" d="M151.6,186.1c0,3.9-0.3,8.2-0.7,11.9c-0.3,0-1.7,2.6-2.2,2.8c0,0-0.1,0-0.1,0c-4.7,0-25.1-0.1-32.5-0.1
			h-12.7c-1-2.7-2-5.9-2.7-8.7c-0.1-0.3,2.4-2.5,2.3-2.8c6.8-5,10.6-8,14.9-12c3.1-2.8,6-5.5,8.4-8.3c2.9-3.9,4.7-7.9,4.7-12.4
			c0-3.4-0.8-5.6-2.3-7.7c-1.3-1.7-3.6-2.8-6.1-2.8c-2.1,0-3.8,0.4-5.1,0.9l-2.1,8.9c-0.3,0-2,2.9-2.3,2.9c0,0-0.1,0-0.1,0
			c-3.5,0-7-0.9-10.2-1.1c0.3-6,0.7-12,1.1-17.9c0-0.4,2.3-2.5,2.3-2.9c4.7-2,12.8-3.4,19.4-3.4c9.2,0,14.7,1.8,18.8,5.4
			c4,3.4,6.2,8.6,6.2,13.8c0,6.7-3.4,12.6-7.7,17.5c-4.3,5.8-10.1,10.4-14.2,13.6c-1.4,1.2-2.7,2.1-3.9,3c7.3-0.1,20.6-0.8,26.5-0.9
			l0.1,0.1L151.6,186.1z"/>
		<g>
			<g>
				<path class="st46" d="M151.4,185.9L151.4,185.9c-5.9,0-19.3,0.7-26.6,0.8c-0.4,0-0.9,0-1.2,0v-0.4c2.6-1.8,4.7-3.2,7.5-5.5
					c3.4-2.6,8-6.2,11.9-10.7c4.3-4.9,7.7-10.8,7.7-17.5c0-5.2-2.2-10.4-6.2-13.8c-4.1-3.6-9.6-5.4-18.8-5.4
					c-6.7,0-14.8,1.4-19.4,3.4c0,0.4-2.3,2.5-2.3,2.9c-0.4,5.5,1.5,9.4,1.2,15c2,0.1,3.5,1.8,5.2,3c0.8,0.5,1.6,0.9,2.6,1
					c0,0,0.1,0,0.1,0c0.3,0,2-2.9,2.3-2.9l2.1-8.9l0.2-1.1c0-0.2,0.1-0.3,0.1-0.4c0.1-0.2,0.2-0.4,0.4-0.6c1.4-0.9,3.7-1.7,6.7-1.7
					c2.5,0,4.8,1.1,6.1,2.8c1.5,2.1,2.3,4.3,2.3,7.7c0,5.5-2.8,10.5-7,15.2c-2.5,2.8-5.4,5.5-8.4,8.3c-4.3,4-8.1,7-14.9,12
					c0.1,0.3-2.4,2.5-2.3,2.8c0.7,2.6,4.1,3.4,5,5.8h12.7c6.9,0,24,2.9,30.2,3c0,0,0.1,0,0.1,0c0.5-0.3,1.9-2.8,2.2-2.8
					c0.4-3.7,0.7-8,0.7-11.9L151.4,185.9z"/>
			</g>
		</g>
		<path class="st15" d="M117.9,145.5c0,0.1-0.1,0.2-0.1,0.4l-0.2,1.1l-2.1,8.9c-0.3,0-2,2.9-2.3,2.9c0,0-0.1,0-0.1,0
			c-1-0.1-1.8-0.4-2.6-1c0.1-1.1,0.2-2,0.2-2.4c0.5-2.6,1.8-5.2,3.5-7.2c0.5-0.6,2.4-3.3,3.5-2.8
			C117.7,145.4,117.8,145.4,117.9,145.5z"/>
		<path class="st15" d="M151.6,186.1c0,3.9-0.3,8.2-0.7,11.9c-0.3,0-1.7,2.6-2.2,2.8l-0.1,0l-0.6-0.2l0.6-11.1l0.5-0.6l2.3-2.9
			L151.6,186.1z"/>
		<g>
			<g>
				<path class="st47" d="M149.1,188.8l-0.1-0.1c-6.2,0.1-20.8,0.8-27.7,0.9v-0.4c1.3-0.9,2.4-1.6,3.6-2.5c1.2-0.9,2.5-1.8,3.9-3
					c4.1-3.2,10-7.8,14.2-13.6c3.2-4.3,5.4-9.2,5.4-14.7c0-5.2-2.2-10.4-6.2-13.8c-4.1-3.6-9.6-5.4-18.7-5.4
					c-6.7,0-14.8,1.4-19.5,3.4c-0.4,5.9-0.8,11.9-1.1,17.9c3.2,0.2,6.7,1.1,10.2,1.1h0.1l2.3-10c0.1-0.5,0.2-0.7,0.5-1
					c0.4-0.3,1-0.6,1.6-0.8c1.3-0.5,3.1-0.9,5.1-0.9c2.5,0,4.8,1.1,6.1,2.8c1.5,2.1,2.3,4.3,2.3,7.7c0,4.4-1.8,8.5-4.7,12.4
					c-2.8,3.8-6.6,7.5-10.7,11.2c-4.3,4-8.1,7-14.9,12c0.7,2.8,1.7,6,2.7,8.7h12.7c7.4,0,27.8,0.1,32.5,0.1c0,0,0,0,0-0.1
					c0.4-3.7,0.7-7.9,0.7-11.8L149.1,188.8z"/>
			</g>
		</g>
	</g>
	<defs>
		<filter id="Adobe_OpacityMaskFilter_8_" filterUnits="userSpaceOnUse" x="68.6" y="115.8" width="116.3" height="116.3">
			<feFlood  style="flood-color:white;flood-opacity:1" result="back"/>
			<feBlend  in="SourceGraphic" in2="back" mode="normal"/>
		</filter>
	</defs>
	<mask maskUnits="userSpaceOnUse" x="68.6" y="115.8" width="116.3" height="116.3" id="SVGID_28_" class="st1">
		<g style="filter:url(#Adobe_OpacityMaskFilter_8_);">
			<defs>
				<filter id="Adobe_OpacityMaskFilter_9_" filterUnits="userSpaceOnUse" x="68.6" y="115.8" width="116.3" height="116.3">
					<feFlood  style="flood-color:white;flood-opacity:1" result="back"/>
					<feBlend  in="SourceGraphic" in2="back" mode="normal"/>
				</filter>
			</defs>
			<mask maskUnits="userSpaceOnUse" x="68.6" y="115.8" width="116.3" height="116.3" id="SVGID_28_">
				<g class="st49">
				</g>
			</mask>
			<linearGradient id="SVGID_29_" gradientUnits="userSpaceOnUse" x1="81.7126" y1="210.4718" x2="171.2606" y2="137.7578">
				<stop  offset="0" style="stop-color:#000000"/>
				<stop  offset="0.1621" style="stop-color:#020202"/>
				<stop  offset="0.2313" style="stop-color:#090909"/>
				<stop  offset="0.2828" style="stop-color:#161616"/>
				<stop  offset="0.3255" style="stop-color:#272727"/>
				<stop  offset="0.3628" style="stop-color:#3F3F3F"/>
				<stop  offset="0.3963" style="stop-color:#5B5B5B"/>
				<stop  offset="0.427" style="stop-color:#7D7D7D"/>
				<stop  offset="0.4554" style="stop-color:#A5A5A5"/>
				<stop  offset="0.4811" style="stop-color:#D0D0D0"/>
				<stop  offset="0.5049" style="stop-color:#FFFFFF"/>
				<stop  offset="0.5347" style="stop-color:#DCDCDC"/>
				<stop  offset="0.5835" style="stop-color:#A9A9A9"/>
				<stop  offset="0.6346" style="stop-color:#7C7C7C"/>
				<stop  offset="0.687" style="stop-color:#565656"/>
				<stop  offset="0.741" style="stop-color:#363636"/>
				<stop  offset="0.7972" style="stop-color:#1E1E1E"/>
				<stop  offset="0.8565" style="stop-color:#0D0D0D"/>
				<stop  offset="0.9209" style="stop-color:#030303"/>
				<stop  offset="1" style="stop-color:#000000"/>
			</linearGradient>
			<path class="st50" d="M126.7,232c-32.1,0-58.1-26.1-58.1-58.1c0-32.1,26.1-58.1,58.1-58.1c32.1,0,58.1,26.1,58.1,58.1
				C184.9,206,158.8,232,126.7,232z"/>
		</g>
	</mask>
	<linearGradient id="SVGID_30_" gradientUnits="userSpaceOnUse" x1="81.7126" y1="210.4718" x2="171.2606" y2="137.7578">
		<stop  offset="0" style="stop-color:#FFFFFF"/>
		<stop  offset="0.431" style="stop-color:#FFFFFF"/>
		<stop  offset="0.5049" style="stop-color:#FFFFFF"/>
		<stop  offset="0.5158" style="stop-color:#F6F6F6"/>
		<stop  offset="0.5743" style="stop-color:#CACCCC"/>
		<stop  offset="0.6353" style="stop-color:#A3A7A7"/>
		<stop  offset="0.6982" style="stop-color:#848989"/>
		<stop  offset="0.7636" style="stop-color:#6C7272"/>
		<stop  offset="0.8327" style="stop-color:#5B6262"/>
		<stop  offset="0.9078" style="stop-color:#515858"/>
		<stop  offset="1" style="stop-color:#4E5555"/>
	</linearGradient>
	<path class="st51" d="M126.7,232c-32.1,0-58.1-26.1-58.1-58.1c0-32.1,26.1-58.1,58.1-58.1c32.1,0,58.1,26.1,58.1,58.1
		C184.9,206,158.8,232,126.7,232z"/>
	<defs>
		<filter id="Adobe_OpacityMaskFilter_10_" filterUnits="userSpaceOnUse" x="68.6" y="115.8" width="116.3" height="116.3">
			<feFlood  style="flood-color:white;flood-opacity:1" result="back"/>
			<feBlend  in="SourceGraphic" in2="back" mode="normal"/>
		</filter>
	</defs>
	<mask maskUnits="userSpaceOnUse" x="68.6" y="115.8" width="116.3" height="116.3" id="SVGID_31_" class="st1">
		<g style="filter:url(#Adobe_OpacityMaskFilter_10_);">
			<defs>
				<filter id="Adobe_OpacityMaskFilter_11_" filterUnits="userSpaceOnUse" x="68.6" y="115.8" width="116.3" height="116.3">
					<feFlood  style="flood-color:white;flood-opacity:1" result="back"/>
					<feBlend  in="SourceGraphic" in2="back" mode="normal"/>
				</filter>
			</defs>
			<mask maskUnits="userSpaceOnUse" x="68.6" y="115.8" width="116.3" height="116.3" id="SVGID_31_">
				<g class="st53">
				</g>
			</mask>
			<linearGradient id="SVGID_32_" gradientUnits="userSpaceOnUse" x1="132.3586" y1="116.0603" x2="121.0795" y2="231.9794">
				<stop  offset="0" style="stop-color:#000000"/>
				<stop  offset="0.5049" style="stop-color:#FFFFFF"/>
				<stop  offset="0.5347" style="stop-color:#DCDCDC"/>
				<stop  offset="0.5835" style="stop-color:#A9A9A9"/>
				<stop  offset="0.6346" style="stop-color:#7C7C7C"/>
				<stop  offset="0.687" style="stop-color:#565656"/>
				<stop  offset="0.741" style="stop-color:#363636"/>
				<stop  offset="0.7972" style="stop-color:#1E1E1E"/>
				<stop  offset="0.8565" style="stop-color:#0D0D0D"/>
				<stop  offset="0.9209" style="stop-color:#030303"/>
				<stop  offset="1" style="stop-color:#000000"/>
			</linearGradient>
			<path class="st54" d="M184.9,173.9c0,32-26.1,58.1-58.1,58.1c-23.9,0-44.4-14.5-53.4-35.1c-3.1-7.1-4.8-14.9-4.8-23
				c0-32.1,26.1-58.1,58.1-58.1c9.4,0,18.3,2.2,26.1,6.2C171.8,131.6,184.9,151.3,184.9,173.9z"/>
		</g>
	</mask>
	<linearGradient id="SVGID_33_" gradientUnits="userSpaceOnUse" x1="132.3586" y1="116.0603" x2="121.0795" y2="231.9794">
		<stop  offset="0" style="stop-color:#FFFFFF"/>
		<stop  offset="0.5049" style="stop-color:#FFFFFF"/>
		<stop  offset="0.5474" style="stop-color:#FFFFFF"/>
		<stop  offset="1" style="stop-color:#FFFFFF"/>
	</linearGradient>
	<path class="st55" d="M184.9,173.9c0,32-26.1,58.1-58.1,58.1c-23.9,0-44.4-14.5-53.4-35.1c-3.1-7.1-4.8-14.9-4.8-23
		c0-32.1,26.1-58.1,58.1-58.1c9.4,0,18.3,2.2,26.1,6.2C171.8,131.6,184.9,151.3,184.9,173.9z"/>
	<path class="st24" d="M184.9,173.9c0,31.2-24.8,56.8-55.7,58.1c29.7-2.6,51.8-27.5,51.8-57.9c0-32.1-24.8-58.1-56.9-58.1
		c-0.9,0-1.8,0-2.6,0.1c1.7-0.2,3.5-0.2,5.2-0.2C158.8,115.8,184.9,141.9,184.9,173.9z"/>
	<g class="st1">
		<g>
			<path class="st46" d="M174,199.1c0,0-1.7,4.1-3.9,5.2c-1.1,0.5-2.1,0.7-3,0.6c0,0,0,0,0,0c-1-0.1-1.7-0.6-2-1.4
				c-0.6-1.5,0.8-3.7,3.1-4.8c0.5-0.2,1.1-0.4,1.7-0.4C171.8,198.3,174,199.1,174,199.1z"/>
			<path class="st46" d="M162,202.6c-0.4,0.3-0.9,0.4-1.5,0.3c-1.1-0.2-2.3-1.2-3.2-2.8c-1.2-2-1.1-5.5-1-6.5c0-0.2,0-0.3,0-0.3
				s3.8,1,5.2,3.3C163,198.9,163.2,201.6,162,202.6z"/>
			<path class="st46" d="M168,209.9c0,0-2.2,3.7-4.6,4.4c-0.7,0.2-1.4,0.3-2.1,0.2c-1.5-0.1-2.6-0.8-2.8-2c-0.3-1.6,1.3-3.5,3.7-4.1
				c0.2-0.1,0.4-0.1,0.6-0.1C165,208,168,209.9,168,209.9z"/>
			<path class="st46" d="M154.6,211.3c-0.3,0.1-0.5,0.1-0.8,0c-1.2-0.4-2.3-2.1-2.7-4.3c-0.4-2.1,0.6-5,1.1-6.2
				c0.1-0.4,0.3-0.6,0.3-0.6s3.2,2.6,3.7,5.4C156.7,208.4,156,210.9,154.6,211.3z"/>
			<path class="st46" d="M178.6,185.1c0,0-1,4.4-3,5.9c-1.3,1-2.6,1.4-3.7,1.3c-0.6-0.1-1.1-0.4-1.4-0.9c-0.8-1.4,0.2-3.8,2.3-5.4
				c1-0.7,2.3-1,3.5-1h0C177.5,184.9,178.6,185.1,178.6,185.1z"/>
			<path class="st46" d="M168,191.3c-0.4,0.7-1.2,1-2.2,0.8c-0.9-0.1-1.9-0.6-2.9-1.4c-2-1.7-2.8-6.1-2.8-6.1s0.3,0,0.8-0.1
				c0.1,0,0.1,0,0.2,0c1.3,0,3.6,0.1,4.9,1.2C167.9,187.5,168.8,189.9,168,191.3z"/>
			<path class="st46" d="M173.6,162c-0.9,2.5-2.6,4.1-3.9,3.7h0c-0.1,0-0.1,0-0.2-0.1c-1.3-0.7-1.6-3.3-0.7-5.9
				c0.7-1.9,2.6-3.4,3.7-4.1c0.5-0.3,0.8-0.5,0.8-0.5S174.5,159.4,173.6,162z"/>
			<path class="st46" d="M167.6,166.8c-0.4,1-1.5,1.5-2.9,1.4c-0.7-0.1-1.4-0.3-2.2-0.6c-2.3-1.1-3.9-5.2-3.9-5.2s1.6-0.7,3.4-0.7
				c0.9-0.1,1.8,0,2.6,0.4C166.8,163.1,168.2,165.3,167.6,166.8z"/>
			<path class="st46" d="M176.4,176.8c-1.3,1.8-2.9,2.7-4.1,2.5c-0.3-0.1-0.5-0.2-0.7-0.4c-1.1-1.1-0.7-3.7,0.8-5.9
				c1.1-1.6,3.3-2.4,4.5-2.7c0.5-0.2,0.9-0.2,0.9-0.2S177.9,174.5,176.4,176.8z"/>
			<path class="st46" d="M168.4,178.8c-0.4,0.9-1.4,1.2-2.6,1.1c-0.8-0.1-1.7-0.4-2.5-1c-2.1-1.4-3.4-5.7-3.4-5.7s1-0.3,2.3-0.3h0.1
				c1.2-0.1,2.6,0.1,3.6,0.7C167.9,175,169.1,177.3,168.4,178.8z"/>
			<path class="st46" d="M168.3,148.5c-0.5,2.4-1.8,4.2-3.1,3.8c0,0-0.1,0-0.1,0c-1.1-0.4-1.7-2.6-1.2-4.9c0.3-1.7,1.8-3.3,2.6-4.2
				c0.4-0.4,0.6-0.6,0.6-0.6S168.8,146,168.3,148.5z"/>
			<path class="st46" d="M164.4,155.5c-0.2,1.2-1.6,1.9-3.3,1.7c-0.3,0-0.6-0.1-0.9-0.2c-2.1-0.6-4.1-3.8-4.1-3.8s2-1.3,3.8-1.4
				c0.4-0.1,0.9,0,1.3,0.1C163.2,152.5,164.7,154.1,164.4,155.5z"/>
			<path class="st46" d="M161.6,139c-0.1,2.2-1.1,3.9-2.2,3.8c-0.1,0-0.3,0-0.4-0.1c-0.9-0.4-1.5-2.1-1.4-4c0.1-1.5,1.1-3.1,1.7-3.9
				c0.3-0.4,0.5-0.6,0.5-0.6S161.8,136.8,161.6,139z"/>
			<path class="st46" d="M159.6,146.2c-0.1,1.3-1.6,2.2-3.5,2c0,0-0.1,0-0.1,0c-1.8-0.2-3.8-2.6-3.8-2.6s1.8-1.7,3.5-2
				c0.2,0,0.4,0,0.6,0C158.2,143.8,159.6,144.9,159.6,146.2z"/>
			<path class="st46" d="M155.9,139.6c-0.3,0.7-1.1,0.9-2,0.8c-0.6-0.1-1.3-0.4-1.9-0.8c-1.6-1.1-2.5-4.4-2.5-4.4s0.6-0.1,1.4-0.2
				c1-0.1,2.2,0,3.1,0.6C155.6,136.8,156.5,138.5,155.9,139.6z"/>
		</g>
	</g>
	<g class="st1">
		<path class="st56" d="M173.1,199.1c0,0-1.6,4.1-3.9,5.2c-0.7,0.4-1.5,0.6-2.2,0.6c0,0,0,0,0,0c-1-0.1-1.7-0.6-2-1.4
			c-0.6-1.5,0.8-3.7,3.1-4.8c0.5-0.2,1.1-0.4,1.7-0.4C171.5,198.5,173.1,199.1,173.1,199.1z"/>
		<path class="st56" d="M161.1,202.6c-0.2,0.1-0.4,0.3-0.6,0.3c-1.1-0.2-2.3-1.2-3.2-2.8c-1.2-2-1.1-5.5-1-6.5
			c1.2,0.4,3.3,1.4,4.3,3C162.1,198.9,162.3,201.6,161.1,202.6z"/>
		<path class="st56" d="M167.1,209.9c0,0-2.2,3.7-4.6,4.4c-0.4,0.1-0.8,0.2-1.2,0.2c-1.5-0.1-2.6-0.8-2.8-2
			c-0.3-1.6,1.3-3.5,3.7-4.1c0.2-0.1,0.4-0.1,0.6-0.1C164.8,208.5,167.1,209.9,167.1,209.9z"/>
		<path class="st56" d="M153.8,211.3c-1.2-0.4-2.3-2.1-2.7-4.3c-0.4-2.1,0.6-5,1.1-6.2c1,0.9,2.7,2.8,3.1,4.8
			C155.7,208.3,155.1,210.8,153.8,211.3z"/>
		<path class="st56" d="M177.7,185.1c0,0-1,4.4-3,5.9c-0.9,0.7-1.9,1.1-2.8,1.3c-0.6-0.1-1.1-0.4-1.4-0.9c-0.8-1.4,0.2-3.8,2.3-5.4
			c1-0.7,2.3-1,3.5-1h0C177.1,185,177.7,185.1,177.7,185.1z"/>
		<path class="st56" d="M167.1,191.3c-0.3,0.5-0.8,0.7-1.3,0.8c-0.9-0.1-1.9-0.6-2.9-1.4c-2-1.7-2.8-6.1-2.8-6.1s0.3,0,0.8-0.1
			c0.1,0,0.1,0,0.2,0c1.3,0.1,3,0.3,4.1,1.2C167,187.5,167.9,189.9,167.1,191.3z"/>
		<path class="st56" d="M172.7,162c-0.7,1.9-1.9,3.3-3,3.7h0c-0.1,0-0.1,0-0.2-0.1c-1.3-0.7-1.6-3.3-0.7-5.9
			c0.7-1.9,2.6-3.4,3.7-4.1C172.8,156.8,173.4,159.9,172.7,162z"/>
		<path class="st56" d="M166.7,166.8c-0.3,0.8-1,1.3-2,1.4c-0.7-0.1-1.4-0.3-2.2-0.6c-2.3-1.1-3.9-5.2-3.9-5.2s1.6-0.7,3.4-0.7
			c0.6,0,1.2,0.2,1.7,0.4C165.9,163.1,167.3,165.3,166.7,166.8z"/>
		<path class="st56" d="M175.5,176.8c-1,1.4-2.2,2.3-3.2,2.5c-0.3-0.1-0.5-0.2-0.7-0.4c-1.1-1.1-0.7-3.7,0.8-5.9
			c1.1-1.6,3.3-2.4,4.5-2.7C176.9,171.2,176.8,174.8,175.5,176.8z"/>
		<path class="st56" d="M167.5,178.8c-0.3,0.6-0.9,1-1.7,1.1c-0.8-0.1-1.7-0.4-2.5-1c-2.1-1.4-3.4-5.7-3.4-5.7s1-0.3,2.3-0.3h0.1
			c0.9,0,1.9,0.2,2.7,0.7C167,175,168.2,177.3,167.5,178.8z"/>
		<path class="st56" d="M167.4,148.5c-0.4,1.9-1.3,3.4-2.3,3.8c-1.1-0.4-1.7-2.6-1.2-4.9c0.3-1.7,1.8-3.3,2.6-4.2
			C167,144.2,167.8,146.6,167.4,148.5z"/>
		<path class="st56" d="M163.5,155.5c-0.2,1-1.2,1.6-2.4,1.7c-0.3,0-0.6-0.1-0.9-0.2c-2.1-0.6-4.1-3.8-4.1-3.8s2-1.3,3.8-1.4
			c0.1,0,0.3,0,0.4,0.1C162.3,152.5,163.8,154.1,163.5,155.5z"/>
		<path class="st56" d="M160.8,139c-0.1,1.8-0.8,3.3-1.7,3.7c-0.9-0.4-1.5-2.1-1.4-4c0.1-1.5,1.1-3.1,1.7-3.9
			C160,135.7,160.8,137.5,160.8,139z"/>
		<path class="st56" d="M158.7,146.2c-0.1,1.1-1.2,1.9-2.7,2c-1.8-0.2-3.8-2.6-3.8-2.6s1.8-1.7,3.5-2
			C157.4,143.9,158.7,145,158.7,146.2z"/>
		<path class="st56" d="M155,139.6c-0.2,0.4-0.6,0.7-1.1,0.8c-0.6-0.1-1.3-0.4-1.9-0.8c-1.6-1.1-2.5-4.4-2.5-4.4s0.6-0.1,1.4-0.2
			c0.8,0,1.6,0.2,2.2,0.6C154.7,136.8,155.6,138.5,155,139.6z"/>
	</g>
	<g class="st1">
		<g>
			<path class="st46" d="M88.1,202.8c-0.6,1.6-2.8,2-5.1,0.8c-0.1,0-0.2-0.1-0.3-0.1c-2.1-1.3-3.7-5.3-3.7-5.3s3.3-1.4,5.5-0.5
				c0.1,0,0.3,0.1,0.4,0.2C87.3,198.9,88.7,201.2,88.1,202.8z"/>
			<path class="st46" d="M95.8,199.1c-1.4,2.4-3.5,3.6-4.7,2.6c0,0-0.1-0.1-0.1-0.1c-1.1-1.1-0.8-3.8,0.6-6.2c1-1.7,3.2-2.7,4.4-3.2
				c0.5-0.2,0.8-0.3,0.8-0.3S97.3,196.7,95.8,199.1z"/>
			<path class="st46" d="M94.8,212.1c-0.3,1.7-2.5,2.5-4.9,1.9c-0.4-0.1-0.7-0.3-1.1-0.5c-1.9-1.3-3.6-4-3.6-4s3.4-2.3,5.8-1.6
				c0.3,0.1,0.5,0.2,0.7,0.3C93.7,208.9,95.1,210.6,94.8,212.1z"/>
			<path class="st46" d="M102.1,206.3c-0.6,2.9-2.1,5-3.5,4.6c-0.2-0.1-0.4-0.2-0.6-0.4c-0.9-0.9-1.3-3.2-0.9-5.6
				c0.4-2.2,2.3-4.3,3.2-5.2c0.3-0.3,0.5-0.5,0.5-0.5S102.7,203.4,102.1,206.3z"/>
			<path class="st46" d="M82.8,190c-0.7,1.3-2.5,1.3-4.3,0.2c0,0,0,0,0,0c-0.3-0.1-0.5-0.3-0.8-0.5c-2-1.6-3-6.2-3-6.2
				s2.6-0.5,4.7,0.3c0.4,0.2,0.8,0.4,1.2,0.6C82.5,186,83.5,188.5,82.8,190z"/>
			<path class="st46" d="M93.1,182.9c0,0-0.9,4.6-2.8,6.4c-1.8,1.5-3.7,1.9-4.7,1c-0.1-0.1-0.3-0.3-0.4-0.4c-0.8-1.4,0.1-4,2.1-5.7
				c1.4-1.2,3.6-1.3,4.9-1.3C92.8,182.9,93.1,182.9,93.1,182.9z"/>
			<path class="st46" d="M83.7,163c-0.6,0.3-1.2,0.1-1.9-0.3c-0.9-0.6-1.7-1.9-2.2-3.4c-0.9-2.5,0.1-6.4,0.3-7.1c0-0.1,0-0.1,0-0.1
				s3.5,2,4.5,4.8C85.3,159.5,85,162.3,83.7,163z"/>
			<path class="st46" d="M94.6,159.6c0,0-1.7,4.3-3.9,5.5c-1.7,0.9-3.5,0.9-4.4,0.1c-0.3-0.2-0.5-0.5-0.7-0.9
				c-0.6-1.6,0.8-3.9,3.1-5c1.5-0.8,3.8-0.3,5,0.1C94.2,159.4,94.6,159.6,94.6,159.6z"/>
			<path class="st46" d="M81.6,176.9c-0.7,0.7-1.7,0.6-2.8-0.1c-0.7-0.4-1.4-1.2-2.1-2.1c-1.6-2.3-1.4-7.1-1.4-7.1s1.2,0.2,2.5,0.8
				c1.1,0.5,2.2,1.2,2.9,2.2C82.3,173,82.7,175.8,81.6,176.9z"/>
			<path class="st46" d="M93.4,171c0,0-1.3,4.5-3.4,5.9c-1.7,1.2-3.6,1.4-4.6,0.5c-0.2-0.2-0.4-0.4-0.5-0.7
				c-0.7-1.5,0.5-3.9,2.6-5.4c1.5-1,3.7-0.8,5-0.6C93,170.9,93.4,171,93.4,171z"/>
			<path class="st46" d="M87.9,149c-0.4,0.1-0.9,0-1.3-0.4c-0.8-0.7-1.4-2-1.7-3.6c-0.4-2.1,0.7-5,1.1-5.9c0.1-0.2,0.1-0.3,0.1-0.3
				s2.8,2.4,3.2,5C89.7,146.3,89.1,148.7,87.9,149z"/>
			<path class="st46" d="M97.1,150.1c0,0-2,3.4-4.1,4c-1.4,0.4-2.7,0.2-3.5-0.4c-0.4-0.3-0.7-0.7-0.8-1.2c-0.3-1.5,1.2-3.2,3.3-3.7
				c1.1-0.3,2.4,0.1,3.5,0.6C96.4,149.6,97.1,150.1,97.1,150.1z"/>
			<path class="st46" d="M93.7,139c-0.3,0-0.7-0.1-1-0.4c-0.6-0.7-1.1-2-1.2-3.5c-0.1-1.7,1-3.8,1.5-4.7c0.2-0.3,0.2-0.4,0.2-0.4
				s2.1,2.5,2.2,4.8C95.6,137,94.8,138.9,93.7,139z"/>
			<path class="st46" d="M101,142c0,0-2.1,2.6-3.9,2.7c-1,0.1-1.9-0.2-2.6-0.6c-0.5-0.4-0.9-0.9-0.9-1.5c-0.1-1.3,1.4-2.5,3.2-2.7
				c0.5,0,1,0.1,1.5,0.3C99.7,140.8,101,142,101,142z"/>
			<path class="st46" d="M103.7,131.1c0,0-0.9,3.4-2.5,4.6c-1.4,1-2.9,1.2-3.6,0.4c-0.1-0.1-0.2-0.2-0.3-0.4c-0.6-1.1,0.3-3,1.9-4.2
				c1-0.7,2.6-0.7,3.5-0.6C103.3,131,103.7,131.1,103.7,131.1z"/>
		</g>
	</g>
	<g class="st1">
		<path class="st56" d="M87.3,202.4c-0.5,1.5-2.4,1.9-4.5,1.1c-2.1-1.3-3.7-5.3-3.7-5.3s3.3-1.4,5.5-0.5
			C86.6,198.8,87.8,200.9,87.3,202.4z"/>
		<path class="st56" d="M95,198.7c-1.1,2-2.7,3.1-3.9,2.9c-1.1-1.1-0.8-3.8,0.6-6.2c1-1.7,3.2-2.7,4.4-3.2
			C96.1,193.7,96.1,196.9,95,198.7z"/>
		<path class="st56" d="M93.9,211.7c-0.3,1.7-2.5,2.5-4.9,1.9c-0.1,0-0.1,0-0.2-0.1c-1.9-1.3-3.6-4-3.6-4s3.4-2.3,5.8-1.6
			c0.3,0.1,0.5,0.2,0.7,0.3C93.2,209,94.1,210.4,93.9,211.7z"/>
		<path class="st56" d="M101.3,205.9c-0.5,2.8-2,4.7-3.3,4.6c-0.9-0.9-1.3-3.2-0.9-5.6c0.4-2.2,2.3-4.3,3.2-5.2
			C100.8,201.1,101.7,203.8,101.3,205.9z"/>
		<path class="st56" d="M81.9,189.5c-0.6,1.1-2,1.3-3.5,0.7c0,0,0,0,0,0c-0.3-0.1-0.5-0.3-0.8-0.5c-2-1.6-3-6.2-3-6.2
			s2.6-0.5,4.7,0.3c0.1,0.1,0.2,0.1,0.3,0.2C81.7,185.6,82.7,188.1,81.9,189.5z"/>
		<path class="st56" d="M92.2,182.8c-0.3,1.1-1.1,4.5-2.7,6c-1.3,1.2-2.8,1.7-3.9,1.5c-0.1-0.1-0.3-0.3-0.4-0.4
			c-0.8-1.4,0.1-4,2.1-5.7C88.6,182.9,90.9,182.8,92.2,182.8z"/>
		<path class="st56" d="M82.8,162.5c-0.3,0.2-0.7,0.2-1,0.1c-0.9-0.6-1.7-1.9-2.2-3.4c-0.9-2.5,0.1-6.4,0.3-7.1
			c1.1,0.8,3,2.3,3.6,4.2C84.5,159.1,84.2,161.9,82.8,162.5z"/>
		<path class="st56" d="M93.7,159.2c-0.3,0.7-1.8,4.3-3.9,5.3c-1.3,0.7-2.6,0.8-3.6,0.6c-0.3-0.2-0.5-0.5-0.7-0.9
			c-0.6-1.6,0.8-3.9,3.1-5C90.2,158.4,92.4,158.9,93.7,159.2z"/>
		<path class="st56" d="M80.7,176.4c-0.5,0.5-1.1,0.6-1.9,0.3c-0.7-0.4-1.4-1.2-2.1-2.1c-1.6-2.3-1.4-7.1-1.4-7.1s1.2,0.2,2.5,0.8
			c0.8,0.4,1.6,1.1,2.1,1.8C81.5,172.6,81.8,175.3,80.7,176.4z"/>
		<path class="st56" d="M92.4,170.8c-0.3,0.9-1.5,4.4-3.4,5.7c-1.3,0.9-2.7,1.2-3.7,1c-0.2-0.2-0.4-0.4-0.5-0.7
			c-0.7-1.5,0.5-3.9,2.6-5.4C88.9,170.4,91.2,170.6,92.4,170.8z"/>
		<path class="st56" d="M87,148.6c-0.2,0-0.3,0.1-0.5,0c-0.8-0.7-1.4-2-1.7-3.6c-0.4-2.1,0.7-5,1.1-5.9c0.9,0.9,2.2,2.5,2.5,4.2
			C88.9,145.9,88.3,148.2,87,148.6z"/>
		<path class="st56" d="M96.3,149.7c0,0-2,3.4-4.1,4c-0.9,0.3-1.9,0.3-2.6,0c-0.4-0.3-0.7-0.7-0.8-1.2c-0.3-1.5,1.2-3.2,3.3-3.7
			c1.1-0.3,2.4,0.1,3.5,0.6C96,149.5,96.3,149.7,96.3,149.7z"/>
		<path class="st56" d="M92.8,138.6h-0.1c-0.6-0.7-1.1-2-1.2-3.5c-0.1-1.7,1-3.8,1.5-4.7c0.6,0.9,1.5,2.5,1.6,3.9
			C94.7,136.6,93.9,138.5,92.8,138.6z"/>
		<path class="st56" d="M100.2,141.6c0,0-2.1,2.6-3.9,2.7c-0.6,0.1-1.2,0-1.7-0.2c-0.5-0.4-0.9-0.9-0.9-1.5
			c-0.1-1.3,1.4-2.5,3.2-2.7c0.5,0,1,0.1,1.5,0.3C99.4,140.8,100.2,141.6,100.2,141.6z"/>
		<path class="st56" d="M102.7,130.9c-0.2,0.8-1.1,3.4-2.4,4.3c-1,0.7-2,1-2.8,0.9c-0.1-0.1-0.2-0.2-0.3-0.4c-0.6-1.1,0.3-3,1.9-4.2
			C100.2,130.8,101.7,130.8,102.7,130.9z"/>
	</g>
	<g class="st1">
		<linearGradient id="SVGID_34_" gradientUnits="userSpaceOnUse" x1="208.356" y1="-70.6698" x2="110.7377" y2="80.0826">
			<stop  offset="0.1569" style="stop-color:#13589C"/>
			<stop  offset="0.5251" style="stop-color:#13579A"/>
			<stop  offset="0.6822" style="stop-color:#125393"/>
			<stop  offset="0.799" style="stop-color:#104C86"/>
			<stop  offset="0.8959" style="stop-color:#0E4275"/>
			<stop  offset="0.9797" style="stop-color:#0B355E"/>
			<stop  offset="1" style="stop-color:#0A3157"/>
		</linearGradient>
		<polygon class="st57" points="145.8,-21.3 118.9,108 123.3,108 153.6,-21.3 		"/>
		<linearGradient id="SVGID_35_" gradientUnits="userSpaceOnUse" x1="123.3255" y1="43.3233" x2="179.8101" y2="43.3233">
			<stop  offset="0" style="stop-color:#C8C8C8"/>
			<stop  offset="0.5343" style="stop-color:#FFFFFF"/>
			<stop  offset="1" style="stop-color:#C8C8C8"/>
		</linearGradient>
		<polygon class="st58" points="153.6,-21.3 123.3,108 129.1,108 162.7,-21.3 		"/>
		<polygon class="st4" points="162.7,-21.3 129.1,108 131.6,108 170.7,-21.3 		"/>
		<linearGradient id="SVGID_36_" gradientUnits="userSpaceOnUse" x1="220.6666" y1="-70.2325" x2="122.657" y2="81.1241">
			<stop  offset="0.1569" style="stop-color:#13589C"/>
			<stop  offset="0.5251" style="stop-color:#13579A"/>
			<stop  offset="0.6822" style="stop-color:#125393"/>
			<stop  offset="0.799" style="stop-color:#104C86"/>
			<stop  offset="0.8959" style="stop-color:#0E4275"/>
			<stop  offset="0.9797" style="stop-color:#0B355E"/>
			<stop  offset="1" style="stop-color:#0A3157"/>
		</linearGradient>
		<polygon class="st59" points="162.7,-21.3 129.1,108 131.6,108 170.7,-21.3 		"/>
	</g>
	<path class="st29" d="M184.9,173.9c0,32-26.1,58.1-58.1,58.1c-1.6,0-3.2-0.1-4.7-0.2c-21.8-1.8-40.3-15.6-48.7-34.9
		c86.3,20.1,81.3-59,79.7-73.1c0,0,0.4-1.3,0.4-1.6c10.6,5.3,18.7,13.5,24.4,23.9C182.3,154.5,184.9,163.9,184.9,173.9z"/>
	<path class="st30" d="M184.9,173.9c0,32-26.1,58.1-58.1,58.1c-1.6,0-3.2-0.1-4.7-0.2c39.4-13.7,51.4-55.7,55-79.4l2.7-2.5
		C182.9,157.3,184.9,163.9,184.9,173.9z"/>
	<defs>
		<filter id="Adobe_OpacityMaskFilter_12_" filterUnits="userSpaceOnUse" x="65.6" y="134" width="105.6" height="92.5">
			<feFlood  style="flood-color:white;flood-opacity:1" result="back"/>
			<feBlend  in="SourceGraphic" in2="back" mode="normal"/>
		</filter>
	</defs>
	<mask maskUnits="userSpaceOnUse" x="65.6" y="134" width="105.6" height="92.5" id="SVGID_37_" class="st1">
		<g style="filter:url(#Adobe_OpacityMaskFilter_12_);">
			<defs>
				<filter id="Adobe_OpacityMaskFilter_13_" filterUnits="userSpaceOnUse" x="65.6" y="134" width="105.6" height="92.5">
					<feFlood  style="flood-color:white;flood-opacity:1" result="back"/>
					<feBlend  in="SourceGraphic" in2="back" mode="normal"/>
				</filter>
			</defs>
			<mask maskUnits="userSpaceOnUse" x="65.6" y="134" width="105.6" height="92.5" id="SVGID_37_">
				<g class="st61">
				</g>
			</mask>
			<linearGradient id="SVGID_38_" gradientUnits="userSpaceOnUse" x1="163.3366" y1="221.8367" x2="77.1518" y2="143.9589">
				<stop  offset="0" style="stop-color:#000000"/>
				<stop  offset="1" style="stop-color:#FFFFFF"/>
			</linearGradient>
			<path class="st62" d="M171.2,217.5c-3.3,3.4-7,6.4-11,9l-0.7-2.8l-0.4-1.5l-3.2,0.4l-7.7-6.9l-75.4-63.4l-1.7-6.4l-5.5,1.8
				c0.3-0.6,0.6-1.2,0.8-1.7c0.5-1,1-2,1.5-3c1.3-2.6,2.9-5,4.6-7.3l6.5-1.6l0.3,6.4l73,60l2.1,1.9l0,0h0l2.9,2.6l4.1,3.7h0l3.9,3.6
				l0.5,0.4l0.6,0.6l3.1,0l0.2,0.6L171.2,217.5z"/>
		</g>
	</mask>
	<linearGradient id="SVGID_39_" gradientUnits="userSpaceOnUse" x1="163.3366" y1="221.8367" x2="77.1518" y2="143.9589">
		<stop  offset="0" style="stop-color:#FFFFFF"/>
		<stop  offset="1" style="stop-color:#FFFFFF"/>
	</linearGradient>
	<path class="st63" d="M171.2,217.5c-3.3,3.4-7,6.4-11,9l-0.7-2.8l-0.4-1.5l-3.2,0.4l-7.7-6.9l-75.4-63.4l-1.7-6.4l-5.5,1.8
		c0.3-0.6,0.6-1.2,0.8-1.7c0.5-1,1-2,1.5-3c1.3-2.6,2.9-5,4.6-7.3l6.5-1.6l0.3,6.4l73,60l2.1,1.9l0,0h0l2.9,2.6l4.1,3.7h0l3.9,3.6
		l0.5,0.4l0.6,0.6l3.1,0l0.2,0.6L171.2,217.5z"/>
	<defs>
		<filter id="Adobe_OpacityMaskFilter_14_" filterUnits="userSpaceOnUse" x="77.3" y="124.7" width="102.1" height="88.1">
			<feFlood  style="flood-color:white;flood-opacity:1" result="back"/>
			<feBlend  in="SourceGraphic" in2="back" mode="normal"/>
		</filter>
	</defs>
	<mask maskUnits="userSpaceOnUse" x="77.3" y="124.7" width="102.1" height="88.1" id="SVGID_40_" class="st1">
		<g style="filter:url(#Adobe_OpacityMaskFilter_14_);">
			<defs>
				<filter id="Adobe_OpacityMaskFilter_15_" filterUnits="userSpaceOnUse" x="77.3" y="124.7" width="102.1" height="88.1">
					<feFlood  style="flood-color:white;flood-opacity:1" result="back"/>
					<feBlend  in="SourceGraphic" in2="back" mode="normal"/>
				</filter>
			</defs>
			<mask maskUnits="userSpaceOnUse" x="77.3" y="124.7" width="102.1" height="88.1" id="SVGID_40_">
				<g class="st65">
				</g>
			</mask>
			<linearGradient id="SVGID_41_" gradientUnits="userSpaceOnUse" x1="162.4472" y1="199.7986" x2="102.0189" y2="141.1934">
				<stop  offset="0" style="stop-color:#000000"/>
				<stop  offset="1" style="stop-color:#FFFFFF"/>
			</linearGradient>
			<path class="st66" d="M179.5,207.1c-1.3,2-2.6,3.9-4.1,5.7l-1.7-4.4l-0.1-0.2l-3.3,0l-86.5-73.5l-0.6-5.4l-5.8,0.2
				c0.3-0.2,0.5-0.5,0.7-0.7c0.7-0.7,1.5-1.5,2.2-2.2c0.5-0.5,1.1-1,1.7-1.5l6.6-0.5l-0.1,5.2l84.5,71.3l1.1,1l3.1-0.1l0.4,0
				L179.5,207.1z"/>
		</g>
	</mask>
	<linearGradient id="SVGID_42_" gradientUnits="userSpaceOnUse" x1="162.4472" y1="199.7986" x2="102.0189" y2="141.1934">
		<stop  offset="0" style="stop-color:#FFFFFF"/>
		<stop  offset="1" style="stop-color:#FFFFFF"/>
	</linearGradient>
	<path class="st67" d="M179.5,207.1c-1.3,2-2.6,3.9-4.1,5.7l-1.7-4.4l-0.1-0.2l-3.3,0l-86.5-73.5l-0.6-5.4l-5.8,0.2
		c0.3-0.2,0.5-0.5,0.7-0.7c0.7-0.7,1.5-1.5,2.2-2.2c0.5-0.5,1.1-1,1.7-1.5l6.6-0.5l-0.1,5.2l84.5,71.3l1.1,1l3.1-0.1l0.4,0
		L179.5,207.1z"/>
</g>
<g class="st0">
	<g class="st1">
		
			<linearGradient id="SVGID_43_" gradientUnits="userSpaceOnUse" x1="334.8218" y1="30.5123" x2="179.4918" y2="-226.1197" gradientTransform="matrix(-1 0 0 1 457.7283 0)">
			<stop  offset="0" style="stop-color:#003D14"/>
			<stop  offset="1" style="stop-color:#238500"/>
		</linearGradient>
		<polygon class="st68" points="97.8,-21.3 128.1,108 132.5,108 105.7,-21.3 		"/>
		<linearGradient id="SVGID_44_" gradientUnits="userSpaceOnUse" x1="140.3945" y1="97.9775" x2="24.24" y2="-111.338">
			<stop  offset="0" style="stop-color:#8E8E8E"/>
			<stop  offset="0.5343" style="stop-color:#FFFFFF"/>
			<stop  offset="1" style="stop-color:#C8C8C8"/>
		</linearGradient>
		<polygon class="st69" points="88.7,-21.3 122.3,108 128.1,108 97.8,-21.3 		"/>
		<polygon class="st70" points="80.3,-21.3 118.3,108 122.3,108 88.7,-21.3 		"/>
		
			<linearGradient id="SVGID_45_" gradientUnits="userSpaceOnUse" x1="337.412" y1="11.8904" x2="180.4106" y2="-247.503" gradientTransform="matrix(-1 0 0 1 457.7283 0)">
			<stop  offset="0" style="stop-color:#003D14"/>
			<stop  offset="1" style="stop-color:#238500"/>
		</linearGradient>
		<polygon class="st71" points="80.3,-21.3 118.3,108 122.3,108 88.7,-21.3 		"/>
	</g>
	<path class="st72" d="M178.9,150.7L178.9,150.7c-2.3-5.7-5.3-10.9-9-15.7c0,0,0-0.1,0-0.1c-0.3-0.3-0.5-0.6-0.7-0.9
		c0,0-0.1-0.1-0.1-0.1c-7.9-9.7-18.5-16.9-30.8-20.5c-0.4-0.2-0.9-0.3-1.4-0.4c-0.8-0.2-1.5-0.4-2.3-0.6l0.7,0l0.3,0l0.3,0l0.9,0
		l1.2,0c0-0.1,0.1-0.5,0.2-1.3c0.1-1.1-0.8-4.8-2.3-7.6v0c0,0,0,0,0,0c-0.3-0.5-0.5-0.9-0.8-1.3c0,0,0-0.1,0-0.1
		c-2.4-3.6-6.3-4.5-9.5-4.5c-3.6,0-8.3,1.2-10.7,3.7c-4.8,4.9-5.2,8.2-5.3,10.5v0.1c-8.9,1.7-16.9,5.2-23.8,10.2
		c-1.3,0.9-2.6,1.9-3.8,3c-0.6,0.5-1.1,1-1.7,1.5c-0.8,0.7-1.5,1.4-2.2,2.2c-0.2,0.2-0.4,0.4-0.7,0.7h0c-0.5,0.5-1,1-1.4,1.6
		c-1.2,1.4-2.4,2.9-3.5,4.4c-1.7,2.3-3.2,4.7-4.6,7.3c-0.5,1-1,2-1.5,3c-0.3,0.6-0.5,1.2-0.8,1.7c-3.4,8-5.3,16.8-5.3,26.2
		c0,28.6,19.5,51.4,45.5,58.7c5.7,1.6,11.7,2.5,17.9,2.5c13.1,0,24.9-3.8,34.4-10.4c0.4-0.3,0.9-0.6,1.3-0.9
		c3.4-2.5,6.4-5.3,9.2-8.5c0.4-0.4,0.8-0.9,1.1-1.3c1-1.2,1.9-2.4,2.7-3.6c0.4-0.6,0.8-1.2,1.2-1.8c0.4-0.6,0.8-1.2,1.1-1.9
		c0-0.1,0.1-0.1,0.1-0.2c0.4-0.7,0.8-1.5,1.2-2.3c0.3-0.7,0.7-1.3,1-2c3.9-8.3,6.1-17.8,6.1-28C183.3,165.8,181.7,158,178.9,150.7z
		 M115.3,106.8c0.3-1.2,0.6-0.6,1.1-0.2c0.3,0.2,0.7,0.4,1.2-0.3c0.3-0.4,0.6-0.8,0.9-1.1c1.4-1.4,3.1-2.1,5.2-2.1
		c1.2,0,2.3,0.2,3.2,0.7c0.4,0.2,0.7,0.4,1.1,0.6c0.1,0.1,0.2,0.2,0.3,0.3c0.2,0.1,4.4,3.7,4.3,6.2c-0.2,0-0.4-0.1-0.6-0.1
		c-3.6-0.6-7.6-0.6-11.3-0.2c-1.3,0.1-2.4,0.3-3.6,0.5c-0.5,0.1-1.1,0.1-1.6,0.2c-0.2,0-0.5,0.1-0.7,0.1
		C114.8,110,114.9,108.4,115.3,106.8z"/>
	<path class="st73" d="M135.5,112.5c0,0-3.1-1.8-2.9-1.7c0.1-2.5-4.1-6.1-4.3-6.3c-0.4-0.4-0.9-0.6-1.4-0.9c0.9-0.4,2.3,0,3.1,0.2
		l0.7,0.7C132.3,107.1,136.9,108.7,135.5,112.5z"/>
	<path class="st74" d="M138.6,117c0.1,0-6.4,0-6.4,0l-15.3,0.8l-1.4-6.6c1.7-0.2,3.4-0.5,5.2-0.7c3.9-0.4,8.2-0.4,11.9,0.3
		c0,0,4.5,2.9,4.6,3.1C138.1,116,138.5,117,138.6,117z"/>
	<path class="st75" d="M135.8,103.7L135.8,103.7c0,0.2-5.7-1.6-5.7-1.6l-10,1.4l-1.5,0.2l-1,2.6l-1.2,0.3l-1.1,0.3l-2.8,7.1
		l-0.8-0.5l-2.2-1.4c0-2.3,0.4-5.6,5.2-10.5c1-1,2.4-1.9,4-2.5c2.2-0.8,4.6-1.2,6.7-1.2c2.6,0,5.7,0.6,8.1,2.8c0.5,0.5,1,1,1.4,1.6
		C135.2,102.7,135.5,103.1,135.8,103.7C135.7,103.6,135.7,103.7,135.8,103.7z"/>
	<path class="st76" d="M140.1,113.1c0-1.9-0.3-4.5-2.7-7.9c-0.7-0.9-1.5-1.9-2.5-2.9c-2.4-2.4-5.4-3.3-9-3.3c-2,0-3.9,0.4-5.5,1.2
		l0,0c-1.3,0.6-2.4,1.4-3.4,2.5c-5,5.1-5.2,9.1-5.2,10.8v0.1c-8.6,2.1-16.4,6-23.2,11.3c-1.9,1.4-3.7,3-5.3,4.7
		c-1.5,1.5-2.9,3-4.2,4.6c-3,3.6-5.7,7.6-7.8,11.9c-4.3,8.4-6.7,18-6.7,28.1c0,27.1,17.3,50.1,41.4,58.7c6.5,2.3,13.6,3.6,20.9,3.6
		c12.3,0,23.8-3.6,33.4-9.7c4-2.6,7.7-5.6,11-9c1.5-1.5,2.9-3.1,4.2-4.7c1.5-1.8,2.9-3.7,4.1-5.7c6.1-9.6,9.6-21,9.6-33.2
		C189,144.1,168.1,119.2,140.1,113.1z M126.7,111.6c-3.3,0-6.6,0.3-9.8,0.8c0-0.6,0.1-1,0.2-1.5c0.3-1.4,1-2.1,2.6-3.7
		c0.3-0.3,0.7-0.7,1-1.1c1.4-1.4,3.1-2.1,5.2-2.1c0.7,0,1.4,0,2.1,0.1c1.2,0.2,2.3,0.6,3.2,1.6c0.7,0.7,1.3,1.4,1.7,1.9
		c1.3,1.7,1.7,2.9,1.9,4.4C132.2,111.8,129.5,111.6,126.7,111.6z"/>
	<path class="st73" d="M137.4,105.2l-4.5,2.6c-0.4-0.6-1-1.2-1.7-1.9c-0.9-0.9-2-1.4-3.2-1.6c-0.6-0.1-1.3-0.1-2.1-0.1
		c-2.1,0-3.9,0.7-5.2,2.1c-0.4,0.4-0.7,0.7-1,1.1l0.4-3.9l0.3-3.3l0,0c0-0.1-0.9-0.6-1.6-1.1c2.2-0.8,4.6-1.2,6.7-1.2
		c2.6,0,5.7,0.6,8.1,2.8c0.4,0.6,0.9,1.1,1.4,1.6C135.9,103.3,136.7,104.3,137.4,105.2z"/>
	<g class="st1">
		<path class="st77" d="M126.7,232c-32.1,0-58.1-26.1-58.1-58.1c0-32.1,26.1-58.1,58.1-58.1c32.1,0,58.1,26.1,58.1,58.1
			C184.9,206,158.8,232,126.7,232z"/>
	</g>
	<g class="st1">
		<g>
			<g>
				<path class="st78" d="M140.6,168c-0.7-0.2-1.4-0.4-2.2-0.5v-0.6c1.6-0.5,3.2-1,4.6-1.7c1.7-0.8,3.1-1.9,4.4-3.1
					c2.5-2.4,4-5.6,4-9.3c0-4.7-3-8.5-6.2-10.7c-4-2.7-9.3-3.5-16.4-3.5c-7.4,0-14.3,1.2-18.9,3.1c0,0.5-2.2,2.2-2.2,2.7
					c-0.3,4.5,1.6,8,1.4,12.6c1.4,0.2,2.5,1.1,3.7,2c1.1,0.8,2.3,1.6,3.7,1.8c0.3,0,1.9-2.8,2.2-2.7l1.7-7.4l0.3-1.2
					c0.1-0.4,0.2-0.6,0.5-0.8c0.1,0,0.1-0.1,0.2-0.1c1.3-0.9,3.2-1.3,5.1-1.3c2.8,0,5.1,0.3,6.9,2.3c1.3,1.3,1.8,3.3,1.8,5.1
					c0,2.8-0.8,5.1-3.1,6.9c-2.7,2.1-7.4,3.4-15.2,3.4c0,0.4-2.2,2.3-2.2,2.7c0,2.5,2.3,3.7,2.5,6.1h5.4c7.6,0,13.2,3.2,13.2,9.7
					c0,1.7-0.4,3.3-1.2,4.7c-0.4,0.7-0.9,1.4-1.6,2c-0.1,0.1-0.2,0.2-0.4,0.3c-1.8,1.4-4.6,2.2-8.1,2.2c-1.3,0-3.2-0.4-4.1-0.9
					c-0.3-0.2-0.6-0.4-0.7-0.9l-2.2-9c-0.1,0-0.2,0-0.3,0.1c-3.2,0.5-6.6,1-9.6,1.6c0,0.5-2.3,2.2-2.2,2.7c0.5,5,3.5,8.7,4.2,13.8
					c3.9,0.9,9.4,1.1,13,1.1c10,0,18-1.7,22.3-5c0.7-0.5,1.3-1,2-1.6c0.5-0.4,1-0.9,1.4-1.3c2.7-2.8,4.7-6.3,4.7-11.4
					C152.9,176.1,149,170.3,140.6,168z"/>
			</g>
			<path class="st79" d="M121.3,148.4c-0.1,0-0.1,0.1-0.2,0.1c-0.3,0.2-0.4,0.4-0.5,0.8l-0.3,1.2l-1.7,7.4c-0.3,0-1.9,2.8-2.2,2.7
				c-1.4-0.1-2.5-0.9-3.7-1.8c1.1-4.1,4.8-9.4,6.7-10.3L121.3,148.4C121.3,148.3,121.3,148.3,121.3,148.4z"/>
			<path class="st79" d="M152.9,181.9c0,5-1.9,8.6-4.7,11.4c-0.5,0.5-0.9,0.9-1.4,1.3c-1.2-2.3-0.8-4.8-0.4-7.2
				c1-5.8-4.6-9.2-8.6-12.2c-1.8-1.4-4.2-3.1-3.5-5.7c0.4-1.6,1.8-2.7,3.2-3.2c1.6-0.5,3.6-0.9,5.6-1.1c-1.4,0.7-3,1.3-4.6,1.7v0.6
				c0.8,0.1,1.5,0.3,2.2,0.5C149,170.3,152.9,176.1,152.9,181.9z"/>
			<path class="st79" d="M135,190.3c-0.2,6.8-8.3,9.8-14,8.7c-2.1-0.4-5.6-1.3-6.8-3.3c-0.8-1.3-0.1-2.6,0.1-3.9
				c0.4-2.6-0.6-5.3,0.9-7.2c0.1-0.2,0.3-0.3,0.5-0.5c0.7-0.6,1-1.5,1.6-2.2c0.1,0,0.2,0,0.3-0.1l2.2,9c0.1,0.5,0.4,0.7,0.7,0.9
				c1,0.5,2.8,0.9,4.1,0.9c3.6,0,6.3-0.8,8.1-2.2c0.1-0.1,0.3-0.2,0.4-0.3c0.7-0.6,1.2-1.3,1.6-2C134.9,188.8,135,189.6,135,190.3z"
				/>
			<g>
				<g>
					<path class="st80" d="M136.2,170.2v-0.6c1.6-0.4,3.1-1,4.4-1.6c2.9-1.4,5.3-3.4,6.8-5.9c1.2-1.9,1.8-4.1,1.8-6.6
						c0-4.7-3-8.5-6.2-10.7c-4-2.7-9.3-3.5-16.4-3.5c-7.4,0-14.3,1.2-18.9,3.1c-0.4,5-0.6,10.2-0.8,15.3c3.1,0.5,6.4,0.8,9.6,1.1
						l2-8.6c0.1-0.4,0.2-0.6,0.5-0.8c0.4-0.3,0.9-0.6,1.5-0.8c1.1-0.4,2.5-0.6,3.9-0.6c2.8,0,5.1,0.3,6.9,2.3
						c1.3,1.3,1.8,3.3,1.8,5.1c0,1.5-0.2,2.9-0.8,4.2c-1.8,3.7-6.6,6.1-17.4,6.2c0,2.8,0.1,6,0.3,8.9h5.3c7.7,0,13.2,3.2,13.2,9.7
						c0,1.5-0.3,3-0.9,4.3c-0.4,0.9-1.1,1.7-1.8,2.4c-1.8,1.6-4.7,2.5-8.5,2.5c-1.3,0-3.2-0.4-4.1-0.9c-0.3-0.2-0.6-0.4-0.7-0.9
						l-2.2-9c0,0-0.1,0-0.1,0c-3.3,0.5-6.8,1-9.8,1.6c0.6,5.4,1.2,11,2,16.5c3.9,0.9,9.4,1.1,13,1.1c10,0,18-1.7,22.3-5
						c2.1-1.6,4.1-3.4,5.6-5.6c1.5-2.3,2.5-5.1,2.5-8.6C150.7,178.4,146.1,172,136.2,170.2z"/>
				</g>
			</g>
		</g>
	</g>
	<defs>
		<filter id="Adobe_OpacityMaskFilter_16_" filterUnits="userSpaceOnUse" x="68.6" y="115.8" width="116.3" height="116.3">
			<feFlood  style="flood-color:white;flood-opacity:1" result="back"/>
			<feBlend  in="SourceGraphic" in2="back" mode="normal"/>
		</filter>
	</defs>
	<mask maskUnits="userSpaceOnUse" x="68.6" y="115.8" width="116.3" height="116.3" id="SVGID_46_" class="st1">
		<g style="filter:url(#Adobe_OpacityMaskFilter_16_);">
			<defs>
				<filter id="Adobe_OpacityMaskFilter_17_" filterUnits="userSpaceOnUse" x="68.6" y="115.8" width="116.3" height="116.3">
					<feFlood  style="flood-color:white;flood-opacity:1" result="back"/>
					<feBlend  in="SourceGraphic" in2="back" mode="normal"/>
				</filter>
			</defs>
			<mask maskUnits="userSpaceOnUse" x="68.6" y="115.8" width="116.3" height="116.3" id="SVGID_46_">
				<g class="st82">
				</g>
			</mask>
			<linearGradient id="SVGID_47_" gradientUnits="userSpaceOnUse" x1="81.7123" y1="210.4719" x2="171.2604" y2="137.7578">
				<stop  offset="0" style="stop-color:#000000"/>
				<stop  offset="0.1621" style="stop-color:#020202"/>
				<stop  offset="0.2313" style="stop-color:#090909"/>
				<stop  offset="0.2828" style="stop-color:#161616"/>
				<stop  offset="0.3255" style="stop-color:#272727"/>
				<stop  offset="0.3628" style="stop-color:#3F3F3F"/>
				<stop  offset="0.3963" style="stop-color:#5B5B5B"/>
				<stop  offset="0.427" style="stop-color:#7D7D7D"/>
				<stop  offset="0.4554" style="stop-color:#A5A5A5"/>
				<stop  offset="0.4811" style="stop-color:#D0D0D0"/>
				<stop  offset="0.5049" style="stop-color:#FFFFFF"/>
				<stop  offset="0.5347" style="stop-color:#DCDCDC"/>
				<stop  offset="0.5835" style="stop-color:#A9A9A9"/>
				<stop  offset="0.6346" style="stop-color:#7C7C7C"/>
				<stop  offset="0.687" style="stop-color:#565656"/>
				<stop  offset="0.741" style="stop-color:#363636"/>
				<stop  offset="0.7972" style="stop-color:#1E1E1E"/>
				<stop  offset="0.8565" style="stop-color:#0D0D0D"/>
				<stop  offset="0.9209" style="stop-color:#030303"/>
				<stop  offset="1" style="stop-color:#000000"/>
			</linearGradient>
			<path class="st83" d="M126.7,232c-32.1,0-58.1-26.1-58.1-58.1c0-32.1,26.1-58.1,58.1-58.1c32.1,0,58.1,26.1,58.1,58.1
				C184.9,206,158.8,232,126.7,232z"/>
		</g>
	</mask>
	<linearGradient id="SVGID_48_" gradientUnits="userSpaceOnUse" x1="81.7123" y1="210.4719" x2="171.2604" y2="137.7578">
		<stop  offset="0" style="stop-color:#E6E6E6"/>
		<stop  offset="0.431" style="stop-color:#E6E6E6"/>
		<stop  offset="0.5049" style="stop-color:#E6E6E6"/>
		<stop  offset="0.5071" style="stop-color:#E5E4E4"/>
		<stop  offset="0.5589" style="stop-color:#D0B1BD"/>
		<stop  offset="0.6128" style="stop-color:#BD849B"/>
		<stop  offset="0.6683" style="stop-color:#AD5E7D"/>
		<stop  offset="0.7255" style="stop-color:#A13E66"/>
		<stop  offset="0.785" style="stop-color:#972653"/>
		<stop  offset="0.8478" style="stop-color:#901546"/>
		<stop  offset="0.9161" style="stop-color:#8B0B3E"/>
		<stop  offset="1" style="stop-color:#8A083C"/>
	</linearGradient>
	<path class="st84" d="M126.7,232c-32.1,0-58.1-26.1-58.1-58.1c0-32.1,26.1-58.1,58.1-58.1c32.1,0,58.1,26.1,58.1,58.1
		C184.9,206,158.8,232,126.7,232z"/>
	<defs>
		<filter id="Adobe_OpacityMaskFilter_18_" filterUnits="userSpaceOnUse" x="68.6" y="115.8" width="116.3" height="116.3">
			<feFlood  style="flood-color:white;flood-opacity:1" result="back"/>
			<feBlend  in="SourceGraphic" in2="back" mode="normal"/>
		</filter>
	</defs>
	<mask maskUnits="userSpaceOnUse" x="68.6" y="115.8" width="116.3" height="116.3" id="SVGID_49_" class="st1">
		<g style="filter:url(#Adobe_OpacityMaskFilter_18_);">
			<defs>
				<filter id="Adobe_OpacityMaskFilter_19_" filterUnits="userSpaceOnUse" x="68.6" y="115.8" width="116.3" height="116.3">
					<feFlood  style="flood-color:white;flood-opacity:1" result="back"/>
					<feBlend  in="SourceGraphic" in2="back" mode="normal"/>
				</filter>
			</defs>
			<mask maskUnits="userSpaceOnUse" x="68.6" y="115.8" width="116.3" height="116.3" id="SVGID_49_">
				<g class="st86">
				</g>
			</mask>
			<linearGradient id="SVGID_50_" gradientUnits="userSpaceOnUse" x1="132.3587" y1="116.0603" x2="121.0796" y2="231.9794">
				<stop  offset="0" style="stop-color:#000000"/>
				<stop  offset="0.5049" style="stop-color:#FFFFFF"/>
				<stop  offset="0.5347" style="stop-color:#DCDCDC"/>
				<stop  offset="0.5835" style="stop-color:#A9A9A9"/>
				<stop  offset="0.6346" style="stop-color:#7C7C7C"/>
				<stop  offset="0.687" style="stop-color:#565656"/>
				<stop  offset="0.741" style="stop-color:#363636"/>
				<stop  offset="0.7972" style="stop-color:#1E1E1E"/>
				<stop  offset="0.8565" style="stop-color:#0D0D0D"/>
				<stop  offset="0.9209" style="stop-color:#030303"/>
				<stop  offset="1" style="stop-color:#000000"/>
			</linearGradient>
			<path class="st87" d="M184.9,173.9c0,32-26.1,58.1-58.1,58.1c-23.9,0-44.4-14.5-53.4-35.1c-3.1-7.1-4.8-14.9-4.8-23
				c0-32.1,26.1-58.1,58.1-58.1c9.4,0,18.3,2.2,26.1,6.2C171.8,131.6,184.9,151.3,184.9,173.9z"/>
		</g>
	</mask>
	<linearGradient id="SVGID_51_" gradientUnits="userSpaceOnUse" x1="132.3587" y1="116.0603" x2="121.0796" y2="231.9794">
		<stop  offset="0" style="stop-color:#E6E6E6"/>
		<stop  offset="0.5049" style="stop-color:#E6E6E6"/>
		<stop  offset="0.5474" style="stop-color:#E6E6E6"/>
		<stop  offset="1" style="stop-color:#E6E6E6"/>
	</linearGradient>
	<path class="st88" d="M184.9,173.9c0,32-26.1,58.1-58.1,58.1c-23.9,0-44.4-14.5-53.4-35.1c-3.1-7.1-4.8-14.9-4.8-23
		c0-32.1,26.1-58.1,58.1-58.1c9.4,0,18.3,2.2,26.1,6.2C171.8,131.6,184.9,151.3,184.9,173.9z"/>
	<path class="st89" d="M184.9,173.9c0,31.2-24.8,56.8-55.7,58.1c29.7-2.6,51.8-27.5,51.8-57.9c0-32.1-24.8-58.1-56.9-58.1
		c-0.9,0-1.8,0-2.6,0.1c1.7-0.2,3.5-0.2,5.2-0.2C158.8,115.8,184.9,141.9,184.9,173.9z"/>
	<g class="st1">
		<path class="st78" d="M174,199.1c0,0-1.7,4.1-3.9,5.2c-1.1,0.5-2.1,0.7-3,0.6c0,0,0,0,0,0c-1-0.1-1.7-0.6-2-1.4
			c-0.6-1.5,0.8-3.7,3.1-4.8c0.5-0.2,1.1-0.4,1.7-0.4C171.8,198.3,174,199.1,174,199.1z"/>
		<path class="st78" d="M162,202.6c-0.4,0.3-0.9,0.4-1.5,0.3c-1.1-0.2-2.3-1.2-3.2-2.8c-1.2-2-1.1-5.5-1-6.5c0-0.2,0-0.3,0-0.3
			s3.8,1,5.2,3.3C163,198.9,163.2,201.6,162,202.6z"/>
		<path class="st78" d="M168,209.9c0,0-2.2,3.7-4.6,4.4c-0.7,0.2-1.4,0.3-2.1,0.2c-1.5-0.1-2.6-0.8-2.8-2c-0.3-1.6,1.3-3.5,3.7-4.1
			c0.2-0.1,0.4-0.1,0.6-0.1C165,208,168,209.9,168,209.9z"/>
		<path class="st78" d="M154.6,211.3c-0.3,0.1-0.5,0.1-0.8,0c-1.2-0.4-2.3-2.1-2.7-4.3c-0.4-2.1,0.6-5,1.1-6.2
			c0.1-0.4,0.3-0.6,0.3-0.6s3.2,2.6,3.7,5.4C156.7,208.4,156,210.9,154.6,211.3z"/>
		<path class="st78" d="M178.6,185.1c0,0-1,4.4-3,5.9c-1.3,1-2.6,1.4-3.7,1.3c-0.6-0.1-1.1-0.4-1.4-0.9c-0.8-1.4,0.2-3.8,2.3-5.4
			c1-0.7,2.3-1,3.5-1h0C177.5,184.9,178.6,185.1,178.6,185.1z"/>
		<path class="st78" d="M168,191.3c-0.4,0.7-1.2,1-2.2,0.8c-0.9-0.1-1.9-0.6-2.9-1.4c-2-1.7-2.8-6.1-2.8-6.1s0.3,0,0.8-0.1
			c0.1,0,0.1,0,0.2,0c1.3,0,3.6,0.1,4.9,1.2C167.9,187.5,168.8,189.9,168,191.3z"/>
		<path class="st78" d="M173.6,162c-0.9,2.5-2.6,4.1-3.9,3.7h0c-0.1,0-0.1,0-0.2-0.1c-1.3-0.7-1.6-3.3-0.7-5.9
			c0.7-1.9,2.6-3.4,3.7-4.1c0.5-0.3,0.8-0.5,0.8-0.5S174.5,159.4,173.6,162z"/>
		<path class="st78" d="M167.6,166.8c-0.4,1-1.5,1.5-2.9,1.4c-0.7-0.1-1.4-0.3-2.2-0.6c-2.3-1.1-3.9-5.2-3.9-5.2s1.6-0.7,3.4-0.7
			c0.9-0.1,1.8,0,2.6,0.4C166.8,163.1,168.2,165.3,167.6,166.8z"/>
		<path class="st78" d="M176.4,176.8c-1.3,1.8-2.9,2.7-4.1,2.5c-0.3-0.1-0.5-0.2-0.7-0.4c-1.1-1.1-0.7-3.7,0.8-5.9
			c1.1-1.6,3.3-2.4,4.5-2.7c0.5-0.2,0.9-0.2,0.9-0.2S177.9,174.5,176.4,176.8z"/>
		<path class="st78" d="M168.4,178.8c-0.4,0.9-1.4,1.2-2.6,1.1c-0.8-0.1-1.7-0.4-2.5-1c-2.1-1.4-3.4-5.7-3.4-5.7s1-0.3,2.3-0.3h0.1
			c1.2-0.1,2.6,0.1,3.6,0.7C167.9,175,169.1,177.3,168.4,178.8z"/>
		<path class="st78" d="M168.3,148.5c-0.5,2.4-1.8,4.2-3.1,3.8c0,0-0.1,0-0.1,0c-1.1-0.4-1.7-2.6-1.2-4.9c0.3-1.7,1.8-3.3,2.6-4.2
			c0.4-0.4,0.6-0.6,0.6-0.6S168.8,146,168.3,148.5z"/>
		<path class="st78" d="M164.4,155.5c-0.2,1.2-1.6,1.9-3.3,1.7c-0.3,0-0.6-0.1-0.9-0.2c-2.1-0.6-4.1-3.8-4.1-3.8s2-1.3,3.8-1.4
			c0.4-0.1,0.9,0,1.3,0.1C163.2,152.5,164.7,154.1,164.4,155.5z"/>
		<path class="st78" d="M161.6,139c-0.1,2.2-1.1,3.9-2.2,3.8c-0.1,0-0.3,0-0.4-0.1c-0.9-0.4-1.5-2.1-1.4-4c0.1-1.5,1.1-3.1,1.7-3.9
			c0.3-0.4,0.5-0.6,0.5-0.6S161.8,136.8,161.6,139z"/>
		<path class="st78" d="M159.6,146.2c-0.1,1.3-1.6,2.2-3.5,2c0,0-0.1,0-0.1,0c-1.8-0.2-3.8-2.6-3.8-2.6s1.8-1.7,3.5-2
			c0.2,0,0.4,0,0.6,0C158.2,143.8,159.6,144.9,159.6,146.2z"/>
		<path class="st78" d="M155.9,139.6c-0.3,0.7-1.1,0.9-2,0.8c-0.6-0.1-1.3-0.4-1.9-0.8c-1.6-1.1-2.5-4.4-2.5-4.4s0.6-0.1,1.4-0.2
			c1-0.1,2.2,0,3.1,0.6C155.6,136.8,156.5,138.5,155.9,139.6z"/>
	</g>
	<g class="st1">
		<path class="st80" d="M173.1,199.1c0,0-1.6,4.1-3.9,5.2c-0.7,0.4-1.5,0.6-2.2,0.6c0,0,0,0,0,0c-1-0.1-1.7-0.6-2-1.4
			c-0.6-1.5,0.8-3.7,3.1-4.8c0.5-0.2,1.1-0.4,1.7-0.4C171.5,198.5,173.1,199.1,173.1,199.1z"/>
		<path class="st80" d="M161.1,202.6c-0.2,0.1-0.4,0.3-0.6,0.3c-1.1-0.2-2.3-1.2-3.2-2.8c-1.2-2-1.1-5.5-1-6.5
			c1.2,0.4,3.3,1.4,4.3,3C162.1,198.9,162.3,201.6,161.1,202.6z"/>
		<path class="st80" d="M167.1,209.9c0,0-2.2,3.7-4.6,4.4c-0.4,0.1-0.8,0.2-1.2,0.2c-1.5-0.1-2.6-0.8-2.8-2
			c-0.3-1.6,1.3-3.5,3.7-4.1c0.2-0.1,0.4-0.1,0.6-0.1C164.8,208.5,167.1,209.9,167.1,209.9z"/>
		<path class="st80" d="M153.8,211.3c-1.2-0.4-2.3-2.1-2.7-4.3c-0.4-2.1,0.6-5,1.1-6.2c1,0.9,2.7,2.8,3.1,4.8
			C155.7,208.3,155.1,210.8,153.8,211.3z"/>
		<path class="st80" d="M177.7,185.1c0,0-1,4.4-3,5.9c-0.9,0.7-1.9,1.1-2.8,1.3c-0.6-0.1-1.1-0.4-1.4-0.9c-0.8-1.4,0.2-3.8,2.3-5.4
			c1-0.7,2.3-1,3.5-1h0C177.1,185,177.7,185.1,177.7,185.1z"/>
		<path class="st80" d="M167.1,191.3c-0.3,0.5-0.8,0.7-1.3,0.8c-0.9-0.1-1.9-0.6-2.9-1.4c-2-1.7-2.8-6.1-2.8-6.1s0.3,0,0.8-0.1
			c0.1,0,0.1,0,0.2,0c1.3,0.1,3,0.3,4.1,1.2C167,187.5,167.9,189.9,167.1,191.3z"/>
		<path class="st80" d="M172.7,162c-0.7,1.9-1.9,3.3-3,3.7h0c-0.1,0-0.1,0-0.2-0.1c-1.3-0.7-1.6-3.3-0.7-5.9
			c0.7-1.9,2.6-3.4,3.7-4.1C172.8,156.8,173.4,159.9,172.7,162z"/>
		<path class="st80" d="M166.7,166.8c-0.3,0.8-1,1.3-2,1.4c-0.7-0.1-1.4-0.3-2.2-0.6c-2.3-1.1-3.9-5.2-3.9-5.2s1.6-0.7,3.4-0.7
			c0.6,0,1.2,0.2,1.7,0.4C165.9,163.1,167.3,165.3,166.7,166.8z"/>
		<path class="st80" d="M175.5,176.8c-1,1.4-2.2,2.3-3.2,2.5c-0.3-0.1-0.5-0.2-0.7-0.4c-1.1-1.1-0.7-3.7,0.8-5.9
			c1.1-1.6,3.3-2.4,4.5-2.7C176.9,171.2,176.8,174.8,175.5,176.8z"/>
		<path class="st80" d="M167.5,178.8c-0.3,0.6-0.9,1-1.7,1.1c-0.8-0.1-1.7-0.4-2.5-1c-2.1-1.4-3.4-5.7-3.4-5.7s1-0.3,2.3-0.3h0.1
			c0.9,0,1.9,0.2,2.7,0.7C167,175,168.2,177.3,167.5,178.8z"/>
		<path class="st80" d="M167.4,148.5c-0.4,1.9-1.3,3.4-2.3,3.8c-1.1-0.4-1.7-2.6-1.2-4.9c0.3-1.7,1.8-3.3,2.6-4.2
			C167,144.2,167.8,146.6,167.4,148.5z"/>
		<path class="st80" d="M163.5,155.5c-0.2,1-1.2,1.6-2.4,1.7c-0.3,0-0.6-0.1-0.9-0.2c-2.1-0.6-4.1-3.8-4.1-3.8s2-1.3,3.8-1.4
			c0.1,0,0.3,0,0.4,0.1C162.3,152.5,163.8,154.1,163.5,155.5z"/>
		<path class="st80" d="M160.8,139c-0.1,1.8-0.8,3.3-1.7,3.7c-0.9-0.4-1.5-2.1-1.4-4c0.1-1.5,1.1-3.1,1.7-3.9
			C160,135.7,160.8,137.5,160.8,139z"/>
		<path class="st80" d="M158.7,146.2c-0.1,1.1-1.2,1.9-2.7,2c-1.8-0.2-3.8-2.6-3.8-2.6s1.8-1.7,3.5-2
			C157.4,143.9,158.7,145,158.7,146.2z"/>
		<path class="st80" d="M155,139.6c-0.2,0.4-0.6,0.7-1.1,0.8c-0.6-0.1-1.3-0.4-1.9-0.8c-1.6-1.1-2.5-4.4-2.5-4.4s0.6-0.1,1.4-0.2
			c0.8,0,1.6,0.2,2.2,0.6C154.7,136.8,155.6,138.5,155,139.6z"/>
	</g>
	<g class="st1">
		<path class="st78" d="M88.1,202.8c-0.6,1.6-2.8,2-5.1,0.8c-0.1,0-0.2-0.1-0.3-0.1c-2.1-1.3-3.7-5.3-3.7-5.3s3.3-1.4,5.5-0.5
			c0.1,0,0.3,0.1,0.4,0.2C87.3,198.9,88.7,201.2,88.1,202.8z"/>
		<path class="st78" d="M95.8,199.1c-1.4,2.4-3.5,3.6-4.7,2.6c0,0-0.1-0.1-0.1-0.1c-1.1-1.1-0.8-3.8,0.6-6.2c1-1.7,3.2-2.7,4.4-3.2
			c0.5-0.2,0.8-0.3,0.8-0.3S97.3,196.7,95.8,199.1z"/>
		<path class="st78" d="M94.8,212.1c-0.3,1.7-2.5,2.5-4.9,1.9c-0.4-0.1-0.7-0.3-1.1-0.5c-1.9-1.3-3.6-4-3.6-4s3.4-2.3,5.8-1.6
			c0.3,0.1,0.5,0.2,0.7,0.3C93.7,208.9,95.1,210.6,94.8,212.1z"/>
		<path class="st78" d="M102.1,206.3c-0.6,2.9-2.1,5-3.5,4.6c-0.2-0.1-0.4-0.2-0.6-0.4c-0.9-0.9-1.3-3.2-0.9-5.6
			c0.4-2.2,2.3-4.3,3.2-5.2c0.3-0.3,0.5-0.5,0.5-0.5S102.7,203.4,102.1,206.3z"/>
		<path class="st78" d="M82.8,190c-0.7,1.3-2.5,1.3-4.3,0.2c0,0,0,0,0,0c-0.3-0.1-0.5-0.3-0.8-0.5c-2-1.6-3-6.2-3-6.2
			s2.6-0.5,4.7,0.3c0.4,0.2,0.8,0.4,1.2,0.6C82.5,186,83.5,188.5,82.8,190z"/>
		<path class="st78" d="M93.1,182.9c0,0-0.9,4.6-2.8,6.4c-1.8,1.5-3.7,1.9-4.7,1c-0.1-0.1-0.3-0.3-0.4-0.4c-0.8-1.4,0.1-4,2.1-5.7
			c1.4-1.2,3.6-1.3,4.9-1.3C92.8,182.9,93.1,182.9,93.1,182.9z"/>
		<path class="st78" d="M83.7,163c-0.6,0.3-1.2,0.1-1.9-0.3c-0.9-0.6-1.7-1.9-2.2-3.4c-0.9-2.5,0.1-6.4,0.3-7.1c0-0.1,0-0.1,0-0.1
			s3.5,2,4.5,4.8C85.3,159.5,85,162.3,83.7,163z"/>
		<path class="st78" d="M94.6,159.6c0,0-1.7,4.3-3.9,5.5c-1.7,0.9-3.5,0.9-4.4,0.1c-0.3-0.2-0.5-0.5-0.7-0.9c-0.6-1.6,0.8-3.9,3.1-5
			c1.5-0.8,3.8-0.3,5,0.1C94.2,159.4,94.6,159.6,94.6,159.6z"/>
		<path class="st78" d="M81.6,176.9c-0.7,0.7-1.7,0.6-2.8-0.1c-0.7-0.4-1.4-1.2-2.1-2.1c-1.6-2.3-1.4-7.1-1.4-7.1s1.2,0.2,2.5,0.8
			c1.1,0.5,2.2,1.2,2.9,2.2C82.3,173,82.7,175.8,81.6,176.9z"/>
		<path class="st78" d="M93.4,171c0,0-1.3,4.5-3.4,5.9c-1.7,1.2-3.6,1.4-4.6,0.5c-0.2-0.2-0.4-0.4-0.5-0.7c-0.7-1.5,0.5-3.9,2.6-5.4
			c1.5-1,3.7-0.8,5-0.6C93,170.9,93.4,171,93.4,171z"/>
		<path class="st78" d="M87.9,149c-0.4,0.1-0.9,0-1.3-0.4c-0.8-0.7-1.4-2-1.7-3.6c-0.4-2.1,0.7-5,1.1-5.9c0.1-0.2,0.1-0.3,0.1-0.3
			s2.8,2.4,3.2,5C89.7,146.3,89.1,148.7,87.9,149z"/>
		<path class="st78" d="M97.1,150.1c0,0-2,3.4-4.1,4c-1.4,0.4-2.7,0.2-3.5-0.4c-0.4-0.3-0.7-0.7-0.8-1.2c-0.3-1.5,1.2-3.2,3.3-3.7
			c1.1-0.3,2.4,0.1,3.5,0.6C96.4,149.6,97.1,150.1,97.1,150.1z"/>
		<path class="st78" d="M93.7,139c-0.3,0-0.7-0.1-1-0.4c-0.6-0.7-1.1-2-1.2-3.5c-0.1-1.7,1-3.8,1.5-4.7c0.2-0.3,0.2-0.4,0.2-0.4
			s2.1,2.5,2.2,4.8C95.6,137,94.8,138.9,93.7,139z"/>
		<path class="st78" d="M101,142c0,0-2.1,2.6-3.9,2.7c-1,0.1-1.9-0.2-2.6-0.6c-0.5-0.4-0.9-0.9-0.9-1.5c-0.1-1.3,1.4-2.5,3.2-2.7
			c0.5,0,1,0.1,1.5,0.3C99.7,140.8,101,142,101,142z"/>
		<path class="st78" d="M103.7,131.1c0,0-0.9,3.4-2.5,4.6c-1.4,1-2.9,1.2-3.6,0.4c-0.1-0.1-0.2-0.2-0.3-0.4c-0.6-1.1,0.3-3,1.9-4.2
			c1-0.7,2.6-0.7,3.5-0.6C103.3,131,103.7,131.1,103.7,131.1z"/>
	</g>
	<g class="st1">
		<path class="st80" d="M87.3,202.4c-0.5,1.5-2.4,1.9-4.5,1.1c-2.1-1.3-3.7-5.3-3.7-5.3s3.3-1.4,5.5-0.5
			C86.6,198.8,87.8,200.9,87.3,202.4z"/>
		<path class="st80" d="M95,198.7c-1.1,2-2.7,3.1-3.9,2.9c-1.1-1.1-0.8-3.8,0.6-6.2c1-1.7,3.2-2.7,4.4-3.2
			C96.1,193.7,96.1,196.9,95,198.7z"/>
		<path class="st80" d="M93.9,211.7c-0.3,1.7-2.5,2.5-4.9,1.9c-0.1,0-0.1,0-0.2-0.1c-1.9-1.3-3.6-4-3.6-4s3.4-2.3,5.8-1.6
			c0.3,0.1,0.5,0.2,0.7,0.3C93.2,209,94.1,210.4,93.9,211.7z"/>
		<path class="st80" d="M101.3,205.9c-0.5,2.8-2,4.7-3.3,4.6c-0.9-0.9-1.3-3.2-0.9-5.6c0.4-2.2,2.3-4.3,3.2-5.2
			C100.8,201.1,101.7,203.8,101.3,205.9z"/>
		<path class="st80" d="M81.9,189.5c-0.6,1.1-2,1.3-3.5,0.7c0,0,0,0,0,0c-0.3-0.1-0.5-0.3-0.8-0.5c-2-1.6-3-6.2-3-6.2
			s2.6-0.5,4.7,0.3c0.1,0.1,0.2,0.1,0.3,0.2C81.6,185.6,82.7,188.1,81.9,189.5z"/>
		<path class="st80" d="M92.2,182.8c-0.3,1.1-1.1,4.5-2.7,6c-1.3,1.2-2.8,1.7-3.9,1.5c-0.1-0.1-0.3-0.3-0.4-0.4
			c-0.8-1.4,0.1-4,2.1-5.7C88.6,182.9,90.9,182.8,92.2,182.8z"/>
		<path class="st80" d="M82.8,162.5c-0.3,0.2-0.7,0.2-1,0.1c-0.9-0.6-1.7-1.9-2.2-3.4c-0.9-2.5,0.1-6.4,0.3-7.1
			c1.1,0.8,3,2.3,3.6,4.2C84.5,159.1,84.2,161.9,82.8,162.5z"/>
		<path class="st80" d="M93.7,159.2c-0.3,0.7-1.8,4.3-3.9,5.3c-1.3,0.7-2.6,0.8-3.6,0.6c-0.3-0.2-0.5-0.5-0.7-0.9
			c-0.6-1.6,0.8-3.9,3.1-5C90.2,158.4,92.4,158.9,93.7,159.2z"/>
		<path class="st80" d="M80.7,176.4c-0.5,0.5-1.1,0.6-1.9,0.3c-0.7-0.4-1.4-1.2-2.1-2.1c-1.6-2.3-1.4-7.1-1.4-7.1s1.2,0.2,2.5,0.8
			c0.8,0.4,1.6,1.1,2.1,1.8C81.5,172.6,81.8,175.3,80.7,176.4z"/>
		<path class="st80" d="M92.4,170.8c-0.3,0.9-1.5,4.4-3.4,5.7c-1.3,0.9-2.7,1.2-3.7,1c-0.2-0.2-0.4-0.4-0.5-0.7
			c-0.7-1.5,0.5-3.9,2.6-5.4C88.9,170.4,91.2,170.6,92.4,170.8z"/>
		<path class="st80" d="M87,148.6c-0.2,0-0.3,0.1-0.5,0c-0.8-0.7-1.4-2-1.7-3.6c-0.4-2.1,0.7-5,1.1-5.9c0.9,0.9,2.2,2.5,2.5,4.2
			C88.9,145.9,88.3,148.2,87,148.6z"/>
		<path class="st80" d="M96.3,149.7c0,0-2,3.4-4.1,4c-0.9,0.3-1.9,0.3-2.6,0c-0.4-0.3-0.7-0.7-0.8-1.2c-0.3-1.5,1.2-3.2,3.3-3.7
			c1.1-0.3,2.4,0.1,3.5,0.6C96,149.5,96.3,149.7,96.3,149.7z"/>
		<path class="st80" d="M92.8,138.6h-0.1c-0.6-0.7-1.1-2-1.2-3.5c-0.1-1.7,1-3.8,1.5-4.7c0.6,0.9,1.5,2.5,1.6,3.9
			C94.7,136.6,93.9,138.5,92.8,138.6z"/>
		<path class="st80" d="M100.2,141.6c0,0-2.1,2.6-3.9,2.7c-0.6,0.1-1.2,0-1.7-0.2c-0.5-0.4-0.9-0.9-0.9-1.5
			c-0.1-1.3,1.4-2.5,3.2-2.7c0.5,0,1,0.1,1.5,0.3C99.4,140.8,100.2,141.6,100.2,141.6z"/>
		<path class="st80" d="M102.7,130.9c-0.2,0.8-1.1,3.4-2.4,4.3c-1,0.7-2,1-2.8,0.9c-0.1-0.1-0.2-0.2-0.3-0.4c-0.6-1.1,0.3-3,1.9-4.2
			C100.2,130.8,101.7,130.8,102.7,130.9z"/>
	</g>
	<g class="st1">
		<linearGradient id="SVGID_52_" gradientUnits="userSpaceOnUse" x1="208.3559" y1="-70.6699" x2="110.7375" y2="80.0825">
			<stop  offset="0" style="stop-color:#003D14"/>
			<stop  offset="1" style="stop-color:#238500"/>
		</linearGradient>
		<polygon class="st90" points="145.8,-21.3 118.9,108 123.3,108 153.6,-21.3 		"/>
		<linearGradient id="SVGID_53_" gradientUnits="userSpaceOnUse" x1="123.3253" y1="43.3233" x2="179.8098" y2="43.3233">
			<stop  offset="0" style="stop-color:#C8C8C8"/>
			<stop  offset="0.5343" style="stop-color:#FFFFFF"/>
			<stop  offset="1" style="stop-color:#C8C8C8"/>
		</linearGradient>
		<polygon class="st91" points="153.6,-21.3 123.3,108 129.1,108 162.7,-21.3 		"/>
		<polygon class="st70" points="162.7,-21.3 129.1,108 131.6,108 170.7,-21.3 		"/>
		<linearGradient id="SVGID_54_" gradientUnits="userSpaceOnUse" x1="220.6664" y1="-70.2326" x2="122.6568" y2="81.1241">
			<stop  offset="0" style="stop-color:#003D14"/>
			<stop  offset="1" style="stop-color:#238500"/>
		</linearGradient>
		<polygon class="st92" points="162.7,-21.3 129.1,108 131.6,108 170.7,-21.3 		"/>
	</g>
	<path class="st93" d="M184.9,173.9c0,32-26.1,58.1-58.1,58.1c-1.6,0-3.2-0.1-4.7-0.2c-21.8-1.8-40.3-15.6-48.7-34.9
		c86.3,20.1,81.3-59,79.7-73.1c0,0,0.4-1.3,0.4-1.6c10.6,5.3,18.7,13.5,24.4,23.9C182.3,154.5,184.9,163.9,184.9,173.9z"/>
	<path class="st94" d="M184.9,173.9c0,32-26.1,58.1-58.1,58.1c-1.6,0-3.2-0.1-4.7-0.2c39.4-13.7,51.4-55.7,55-79.4l2.7-2.5
		C182.9,157.3,184.9,163.9,184.9,173.9z"/>
	<defs>
		<filter id="Adobe_OpacityMaskFilter_20_" filterUnits="userSpaceOnUse" x="65.6" y="134" width="105.6" height="92.5">
			<feFlood  style="flood-color:white;flood-opacity:1" result="back"/>
			<feBlend  in="SourceGraphic" in2="back" mode="normal"/>
		</filter>
	</defs>
	<mask maskUnits="userSpaceOnUse" x="65.6" y="134" width="105.6" height="92.5" id="SVGID_55_" class="st1">
		<g style="filter:url(#Adobe_OpacityMaskFilter_20_);">
			<defs>
				<filter id="Adobe_OpacityMaskFilter_21_" filterUnits="userSpaceOnUse" x="65.6" y="134" width="105.6" height="92.5">
					<feFlood  style="flood-color:white;flood-opacity:1" result="back"/>
					<feBlend  in="SourceGraphic" in2="back" mode="normal"/>
				</filter>
			</defs>
			<mask maskUnits="userSpaceOnUse" x="65.6" y="134" width="105.6" height="92.5" id="SVGID_55_">
				<g class="st96">
				</g>
			</mask>
			<linearGradient id="SVGID_56_" gradientUnits="userSpaceOnUse" x1="163.3364" y1="221.8367" x2="77.1516" y2="143.9589">
				<stop  offset="0" style="stop-color:#000000"/>
				<stop  offset="1" style="stop-color:#FFFFFF"/>
			</linearGradient>
			<path class="st97" d="M171.2,217.5c-3.3,3.4-7,6.4-11,9l-0.7-2.8l-0.4-1.5l-3.2,0.4l-7.7-6.9l-75.4-63.4l-1.7-6.4l-5.5,1.8
				c0.3-0.6,0.6-1.2,0.8-1.7c0.5-1,1-2,1.5-3c1.3-2.6,2.9-5,4.6-7.3l6.5-1.6l0.3,6.4l73,60l2.1,1.9l0,0h0l2.9,2.6l4.1,3.7h0l3.9,3.6
				l0.5,0.4l0.6,0.6l3.1,0l0.2,0.6L171.2,217.5z"/>
		</g>
	</mask>
	<linearGradient id="SVGID_57_" gradientUnits="userSpaceOnUse" x1="163.3364" y1="221.8367" x2="77.1516" y2="143.9589">
		<stop  offset="0" style="stop-color:#E6E6E6"/>
		<stop  offset="1" style="stop-color:#E6E6E6"/>
	</linearGradient>
	<path class="st98" d="M171.2,217.5c-3.3,3.4-7,6.4-11,9l-0.7-2.8l-0.4-1.5l-3.2,0.4l-7.7-6.9l-75.4-63.4l-1.7-6.4l-5.5,1.8
		c0.3-0.6,0.6-1.2,0.8-1.7c0.5-1,1-2,1.5-3c1.3-2.6,2.9-5,4.6-7.3l6.5-1.6l0.3,6.4l73,60l2.1,1.9l0,0h0l2.9,2.6l4.1,3.7h0l3.9,3.6
		l0.5,0.4l0.6,0.6l3.1,0l0.2,0.6L171.2,217.5z"/>
	<defs>
		<filter id="Adobe_OpacityMaskFilter_22_" filterUnits="userSpaceOnUse" x="77.3" y="124.7" width="102.1" height="88.1">
			<feFlood  style="flood-color:white;flood-opacity:1" result="back"/>
			<feBlend  in="SourceGraphic" in2="back" mode="normal"/>
		</filter>
	</defs>
	<mask maskUnits="userSpaceOnUse" x="77.3" y="124.7" width="102.1" height="88.1" id="SVGID_58_" class="st1">
		<g style="filter:url(#Adobe_OpacityMaskFilter_22_);">
			<defs>
				<filter id="Adobe_OpacityMaskFilter_23_" filterUnits="userSpaceOnUse" x="77.3" y="124.7" width="102.1" height="88.1">
					<feFlood  style="flood-color:white;flood-opacity:1" result="back"/>
					<feBlend  in="SourceGraphic" in2="back" mode="normal"/>
				</filter>
			</defs>
			<mask maskUnits="userSpaceOnUse" x="77.3" y="124.7" width="102.1" height="88.1" id="SVGID_58_">
				<g class="st100">
				</g>
			</mask>
			<linearGradient id="SVGID_59_" gradientUnits="userSpaceOnUse" x1="162.4471" y1="199.7985" x2="102.0187" y2="141.1932">
				<stop  offset="0" style="stop-color:#000000"/>
				<stop  offset="1" style="stop-color:#FFFFFF"/>
			</linearGradient>
			<path class="st101" d="M179.5,207.1c-1.3,2-2.6,3.9-4.1,5.7l-1.7-4.4l-0.1-0.2l-3.3,0l-86.5-73.5l-0.6-5.4l-5.8,0.2
				c0.3-0.2,0.5-0.5,0.7-0.7c0.7-0.7,1.5-1.5,2.2-2.2c0.5-0.5,1.1-1,1.7-1.5l6.6-0.5l-0.1,5.2l84.5,71.3l1.1,1l3.1-0.1l0.4,0
				L179.5,207.1z"/>
		</g>
	</mask>
	<linearGradient id="SVGID_60_" gradientUnits="userSpaceOnUse" x1="162.4471" y1="199.7985" x2="102.0187" y2="141.1932">
		<stop  offset="0" style="stop-color:#E6E6E6"/>
		<stop  offset="1" style="stop-color:#E6E6E6"/>
	</linearGradient>
	<path class="st102" d="M179.5,207.1c-1.3,2-2.6,3.9-4.1,5.7l-1.7-4.4l-0.1-0.2l-3.3,0l-86.5-73.5l-0.6-5.4l-5.8,0.2
		c0.3-0.2,0.5-0.5,0.7-0.7c0.7-0.7,1.5-1.5,2.2-2.2c0.5-0.5,1.1-1,1.7-1.5l6.6-0.5l-0.1,5.2l84.5,71.3l1.1,1l3.1-0.1l0.4,0
		L179.5,207.1z"/>
</g>
<g>
	<g>
		<g>
			<path class="st103" d="M95.6,176.6c11.6-1.4,16.3,11,20,12.2C103.1,187.6,97,181.6,95.6,176.6z"/>
			<path class="st103" d="M82.4,173.6c10.9-0.3,14.9,12.7,18.5,14.1C88,185.6,83.2,178.3,82.4,173.6z"/>
			<path class="st103" d="M69.9,168.8c10.7,1.8,13.1,14.5,16.4,16.2C75.3,182.4,70,174.9,69.9,168.8z"/>
			<path class="st103" d="M58.5,162.3c9.7,3.3,10.7,16.1,13.6,18.3C61.2,176.3,57.7,168.1,58.5,162.3z"/>
			<path class="st103" d="M48.6,153.9c7.7,4.3,8.9,19.1,10.2,20.2C51.4,170.5,46.1,161.9,48.6,153.9z"/>
			<path class="st103" d="M40.4,143.8c7.5,6.3,4.5,18.7,6.4,21.6C38.1,159.2,37.9,149.1,40.4,143.8z"/>
			<path class="st103" d="M34.1,132.3c6.2,7.8,1.3,19.4,2.7,22.4C30.3,147.7,30.1,138.6,34.1,132.3z"/>
			<path class="st103" d="M29.7,119.8c4.9,9.9-1.7,19.6-0.8,22.6C24.1,135.4,23.9,126.6,29.7,119.8z"/>
			<path class="st103" d="M27.1,106.7c3.5,10-4.2,19.3-3.9,22.3C18.9,121,21.2,112.4,27.1,106.7z"/>
			<path class="st103" d="M26.3,93.4c1.9,7.8-6.7,20.7-6.7,21.5C17,107.9,17.9,100.6,26.3,93.4z"/>
			<path class="st103" d="M27.3,80.2c0.4,10.4-8.9,17.6-9.4,20.4C16,93.5,17.8,86.5,27.3,80.2z"/>
			<path class="st103" d="M30.1,67.3c-0.8,9.7-11.2,16.4-12,18.9C16.5,75.7,23.4,71.4,30.1,67.3z"/>
		</g>
		<g>
			<path class="st103" d="M85.3,194c14.9,5.7,22.7-2.3,29.6-4C100.5,185.8,96.2,193.4,85.3,194z"/>
			<path class="st103" d="M70.7,189.8c14.7,7.5,23.1,0.1,29.6-0.9C86.5,183.5,81.4,190.4,70.7,189.8z"/>
			<path class="st103" d="M56.6,183.5c13,9.6,23,3,29.1,2.7C71.7,179.2,67,185.7,56.6,183.5z"/>
			<path class="st103" d="M43.6,174.9c11.4,11.5,22.9,6.3,28.1,6.9C60,173.5,52.1,178.3,43.6,174.9z"/>
			<path class="st103" d="M32.3,164.3c8,12.3,21.3,10,26.1,11.1C45.3,164.2,41,169.4,32.3,164.3z"/>
			<path class="st103" d="M23.1,151.8c6.3,14,18.9,13.1,23.5,14.9C35.6,153.7,30.7,158,23.1,151.8z"/>
			<path class="st103" d="M16,138.2c4.2,14.6,18,16.2,20.3,18C30.2,143.5,21.9,144.3,16,138.2z"/>
			<path class="st103" d="M11.1,123.9c1.8,14.6,14.9,17.8,17.1,20.2C24.1,130.4,15.9,130.1,11.1,123.9z"/>
			<path class="st103" d="M8.2,109.1c-0.6,13.4,12.8,19.7,14.1,21.7C20.7,117.9,11.1,114,8.2,109.1z"/>
			<path class="st103" d="M7.2,94.2c-1.7,13.4,9.9,20.2,11.3,22.7C17.8,102.8,10.9,100.9,7.2,94.2z"/>
			<path class="st103" d="M8.2,79.2c-3.4,12.8,7.6,21.3,8.4,23.4C17.8,90,11.1,85.3,8.2,79.2z"/>
			<path class="st103" d="M11.1,64.5c-5.2,10.9,5.1,22.2,5.4,23.8C19.5,76.8,13.3,70.1,11.1,64.5z"/>
		</g>
		<path class="st103" d="M50.3,20.7C40.8,30.5,31,46.1,25.6,63.4l0.7,0.2c5.2-17,14.9-32.6,24.5-42.4L50.3,20.7z"/>
		<path class="st103" d="M44.5,19.2C32.9,31.8,22.9,50,18.4,69.8l0.8,0.2C23.7,50.3,33.6,32.3,45,19.7L44.5,19.2z"/>
		<path class="st103" d="M45.8,10.4c-10.7,9.6-23.6,28.8-30.2,50.1l0.7,0.2c6.4-20.8,19.1-40,30-49.7L45.8,10.4z"/>
	</g>
	<g>
		<g>
			<path class="st103" d="M154.4,176.6c-11.6-1.4-16.3,11-20,12.2C146.9,187.6,153,181.6,154.4,176.6z"/>
			<path class="st103" d="M167.6,173.6c-10.9-0.3-14.9,12.7-18.5,14.1C162,185.6,166.8,178.3,167.6,173.6z"/>
			<path class="st103" d="M180.1,168.8c-10.7,1.8-13.1,14.5-16.4,16.2C174.7,182.4,180,174.9,180.1,168.8z"/>
			<path class="st103" d="M191.5,162.3c-9.7,3.3-10.7,16.1-13.6,18.3C188.8,176.3,192.3,168.1,191.5,162.3z"/>
			<path class="st103" d="M201.4,153.9c-7.7,4.3-8.9,19.1-10.2,20.2C198.6,170.5,203.9,161.9,201.4,153.9z"/>
			<path class="st103" d="M209.6,143.8c-7.5,6.3-4.5,18.7-6.4,21.6C211.9,159.2,212.1,149.1,209.6,143.8z"/>
			<path class="st103" d="M215.9,132.3c-6.2,7.8-1.3,19.4-2.7,22.4C219.7,147.7,219.9,138.6,215.9,132.3z"/>
			<path class="st103" d="M220.3,119.8c-4.9,9.9,1.7,19.6,0.8,22.6C225.9,135.4,226.1,126.6,220.3,119.8z"/>
			<path class="st103" d="M222.9,106.7c-3.5,10,4.2,19.3,3.9,22.3C231.1,121,228.8,112.4,222.9,106.7z"/>
			<path class="st103" d="M223.7,93.4c-1.9,7.8,6.7,20.7,6.7,21.5C233,107.9,232.1,100.6,223.7,93.4z"/>
			<path class="st103" d="M222.7,80.2c-0.4,10.4,8.9,17.6,9.4,20.4C234,93.5,232.2,86.5,222.7,80.2z"/>
			<path class="st103" d="M219.9,67.3c0.8,9.7,11.2,16.4,12,18.9C233.5,75.7,226.6,71.4,219.9,67.3z"/>
		</g>
		<g>
			<path class="st103" d="M164.7,194c-14.9,5.7-22.7-2.3-29.6-4C149.5,185.8,153.8,193.4,164.7,194z"/>
			<path class="st103" d="M179.3,189.8c-14.7,7.5-23.1,0.1-29.6-0.9C163.5,183.5,168.6,190.4,179.3,189.8z"/>
			<path class="st103" d="M193.4,183.5c-13,9.6-23,3-29.1,2.7C178.3,179.2,183,185.7,193.4,183.5z"/>
			<path class="st103" d="M206.4,174.9c-11.4,11.5-22.9,6.3-28.1,6.9C190,173.5,197.9,178.3,206.4,174.9z"/>
			<path class="st103" d="M217.7,164.3c-8,12.3-21.3,10-26.1,11.1C204.7,164.2,209,169.4,217.7,164.3z"/>
			<path class="st103" d="M226.9,151.8c-6.3,14-18.9,13.1-23.5,14.9C214.4,153.7,219.3,158,226.9,151.8z"/>
			<path class="st103" d="M234,138.2c-4.2,14.6-18,16.2-20.3,18C219.8,143.5,228.1,144.3,234,138.2z"/>
			<path class="st103" d="M238.9,123.9c-1.8,14.6-14.9,17.8-17.1,20.2C225.9,130.4,234.1,130.1,238.9,123.9z"/>
			<path class="st103" d="M241.8,109.1c0.6,13.4-12.8,19.7-14.1,21.7C229.3,117.9,238.9,114,241.8,109.1z"/>
			<path class="st103" d="M242.8,94.2c1.7,13.4-9.9,20.2-11.3,22.7C232.2,102.8,239.1,100.9,242.8,94.2z"/>
			<path class="st103" d="M241.8,79.2c3.4,12.8-7.6,21.3-8.4,23.4C232.2,90,238.9,85.3,241.8,79.2z"/>
			<path class="st103" d="M238.9,64.5c5.2,10.9-5.1,22.2-5.4,23.8C230.5,76.8,236.7,70.1,238.9,64.5z"/>
		</g>
		<path class="st103" d="M199.7,20.7c9.5,9.8,19.4,25.4,24.7,42.7l-0.7,0.2c-5.2-17-14.9-32.6-24.5-42.4L199.7,20.7z"/>
		<path class="st103" d="M205.5,19.2c11.6,12.7,21.5,30.9,26,50.7l-0.8,0.2c-4.5-19.7-14.4-37.7-25.8-50.3L205.5,19.2z"/>
		<path class="st103" d="M204.2,10.4c10.7,9.6,23.6,28.8,30.2,50.1l-0.7,0.2c-6.4-20.8-19.1-40-30-49.7L204.2,10.4z"/>
	</g>
	<path class="st103" d="M129.7,189.3c0,2.8-2.3,5.1-5.1,5.1c-2.8,0-5.1-2.3-5.1-5.1c0-2.8,2.3-5.1,5.1-5.1
		C127.4,184.2,129.7,186.5,129.7,189.3z"/>
	<polygon class="st103" points="132.1,201 132.1,201 132.1,201 132.1,201 	"/>
</g>
</svg>
