<?xml version="1.0" encoding="utf-8"?>
<!-- Generator: Adobe Illustrator 22.1.0, SVG Export Plug-In . SVG Version: 6.00 Build 0)  -->
<svg version="1.1" id="Layer_1" xmlns="http://www.w3.org/2000/svg" xmlns:xlink="http://www.w3.org/1999/xlink" x="0px" y="0px"
	 viewBox="0 0 589.2 597.3" style="enable-background:new 0 0 589.2 597.3;" xml:space="preserve">
<style type="text/css">
	.st0{display:none;fill:#5E35B1;stroke:#5E35B1;stroke-miterlimit:10;}
	.st1{fill:#FFFFFF;stroke:#5E35B1;stroke-width:2;stroke-miterlimit:10;}
</style>
<rect class="st0" width="589.2" height="597.3"/>
<g>
	<polygon class="st1" points="512.7,134.3 512.7,570.8 425.4,570.8 112.6,258 112.6,571.1 25.3,571.1 25.3,134.6 112.6,134.6 
		112.6,134.7 112.6,134.6 425.4,447.4 425.4,134.3 	"/>
	<path class="st1" d="M269,199.8c-84.4,0-152.9,68.4-152.9,152.9S184.6,505.6,269,505.6s152.9-68.4,152.9-152.9
		S353.4,199.8,269,199.8z M269,442c-49.3,0-89.3-40-89.3-89.3s40-89.3,89.3-89.3s89.3,40,89.3,89.3S318.3,442,269,442z"/>
	<polygon class="st1" points="512.7,134.3 512.7,570.8 554.9,546.5 554.9,110 	"/>
	<circle class="st1" cx="484.1" cy="71.8" r="43.3"/>
</g>
</svg>
